<?xml version="1.0" standalone="no"?><!DOCTYPE svg PUBLIC "-//W3C//DTD SVG 1.1//EN" "http://www.w3.org/Graphics/SVG/1.1/DTD/svg11.dtd"><svg t="1536913808015" className="icon" style="" viewBox="0 0 1024 1024" version="1.1" xmlns="http://www.w3.org/2000/svg" p-id="3797" xmlns:xlink="http://www.w3.org/1999/xlink" width="200" height="200"><defs><style type="text/css"></style></defs><path d="M960 0h-64v1024h64c38.4 0 64-25.6 64-64V64c0-38.4-25.6-64-64-64zM128 896V0H64C25.6 0 0 25.6 0 64v896c0 38.4 25.6 64 64 64h832v-128H128z" fill="#2590F2" p-id="3798"></path><path d="M896 320V192H128v128zM384 0h256v192H384zM256 448h128v128H256zM192 0h128v128H192zM704 0h128v128h-128zM448 448h128v128H448zM640 448h128v128h-128zM256 640h128v128H256zM448 640h128v128H448zM640 640h128v128h-128z" fill="#2590F2" p-id="3799"></path></svg>