<?xml version="1.0" standalone="no"?><!DOCTYPE svg PUBLIC "-//W3C//DTD SVG 1.1//EN" "http://www.w3.org/Graphics/SVG/1.1/DTD/svg11.dtd"><svg t="1536051261313" class="icon" style="" viewBox="0 0 1024 1024" version="1.1" xmlns="http://www.w3.org/2000/svg" p-id="5626" xmlns:xlink="http://www.w3.org/1999/xlink" width="200" height="200"><defs><style type="text/css"></style></defs><path d="M511.998977 527.518438m-156.1422 0a156.1422 156.1422 0 1 0 312.284399 0 156.1422 156.1422 0 1 0-312.284399 0Z" fill="#F7D11E" p-id="5627"></path><path d="M511.99693 696.641277c-93.253894 0-169.124885-75.870991-169.124885-169.124885s75.870991-169.124885 169.124885-169.124885 169.124885 75.870991 169.124885 169.124885-75.870991 169.124885-169.124885 169.124885z m0-312.283376c-78.939887 0-143.158491 64.219627-143.15849 143.158491s64.218604 143.158491 143.15849 143.15849S655.155421 606.456279 655.155421 527.516392s-64.219627-143.158491-143.158491-143.158491z" fill="#885F44" p-id="5628"></path><path d="M893.678886 275.81172H738.75749a34.69929 34.69929 0 0 1-28.870537-15.450901l-48.795333-73.191975a34.69929 34.69929 0 0 0-28.870538-15.450901H391.775848a34.69929 34.69929 0 0 0-28.870538 15.450901l-48.795333 73.191975a34.69929 34.69929 0 0 1-28.870537 15.450901H130.319068c-28.744671 0-52.0474 23.302729-52.0474 52.0474v433.727308c0 28.744671 23.302729 52.0474 52.0474 52.0474h763.359818c28.744671 0 52.0474-23.302729 52.0474-52.0474V327.85912c0-28.744671-23.302729-52.0474-52.0474-52.0474zM511.998977 735.707015c-114.793466 0-208.189599-93.39511-208.1896-208.1896s93.39511-208.189599 208.1896-208.189599S720.188576 412.722926 720.188576 527.517415s-93.396133 208.189599-208.189599 208.1896z" fill="#F7D11E" p-id="5629"></path><path d="M893.678886 826.620607H130.321114c-35.856649 0-65.030086-29.17446-65.030085-65.030085V327.860143c0-35.856649 29.17446-65.030086 65.030085-65.030086h154.918326c7.277754 0 14.029528-3.613294 18.067494-9.668197l48.795333-73.196069a47.573505 47.573505 0 0 1 39.672558-21.230534h240.44421a47.617507 47.617507 0 0 1 39.678698 21.224394l48.795333 73.202209a21.672602 21.672602 0 0 0 18.067494 9.668197h154.918326c35.856649 0 65.030086 29.17446 65.030085 65.030086v433.729355c0 35.856649-29.17446 65.031109-65.030085 65.031109zM130.321114 288.796452c-21.541619 0-39.063691 17.522072-39.063691 39.063691v433.729355c0 21.541619 17.522072 39.063691 39.063691 39.063691h763.357772c21.541619 0 39.063691-17.522072 39.063691-39.063691V327.860143c0-21.541619-17.522072-39.063691-39.063691-39.063691h-154.918326a47.588855 47.588855 0 0 1-39.672558-21.230534l-48.795332-73.196069a21.683858 21.683858 0 0 0-18.073635-9.668197H391.774825a21.669532 21.669532 0 0 0-18.067495 9.668197l-48.795332 73.196069a47.588855 47.588855 0 0 1-39.672558 21.230534h-154.918326z m381.675816 459.892225c-121.952516 0-221.172285-99.219769-221.172285-221.172285s99.219769-221.172285 221.172285-221.172285 221.172285 99.219769 221.172285 221.172285-99.219769 221.172285-221.172285 221.172285z m0-416.378176c-107.638509 0-195.20589 87.567381-195.20589 195.205891s87.567381 195.20589 195.20589 195.20589 195.20589-87.567381 195.20589-195.20589-87.567381-195.20589-195.20589-195.205891z" fill="#885F44" p-id="5630"></path><path d="M228.14407 193.878662h-47.235814c-13.044084 0-23.617907 10.573823-23.617907 23.617907 0 13.044084 10.573823 23.617907 23.617907 23.617907h47.235814c13.044084 0 23.617907-10.573823 23.617907-23.617907 0-13.044084-10.573823-23.617907-23.617907-23.617907z" fill="#F7D11E" p-id="5631"></path><path d="M228.146117 254.094092h-47.235814c-20.184715 0-36.604686-16.418948-36.604686-36.597523 0-20.184715 16.418948-36.604686 36.604686-36.604686h47.235814c20.178575 0 36.597523 16.418948 36.597523 36.604686 0 20.178575-16.418948 36.597523-36.597523 36.597523z m-47.235814-47.235814c-5.863545 0-10.637268 4.773723-10.637268 10.637268 0 5.863545 4.773723 10.631128 10.637268 10.631128h47.235814c5.863545 0 10.631128-4.767584 10.631128-10.631128 0-5.863545-4.767584-10.637268-10.631128-10.637268h-47.235814z" fill="#885F44" p-id="5632"></path><path d="M814.606992 371.376239h-0.859577c-23.50432 0-42.558281-7.690146-42.558281-17.175171v-0.346901c0-9.486048 19.053961-17.175171 42.558281-17.175171h0.859577c23.50432 0 42.558281 7.690146 42.558282 17.175171v0.346901c0 9.485025-19.053961 17.175171-42.558282 17.175171z" fill="#F7D11E" p-id="5633"></path><path d="M814.605969 384.357901h-0.855484c-26.752294 0-55.547107-9.44-55.547107-30.156833 0-21.065781 28.79379-30.505781 55.547107-30.505781 27.608801 0 56.396451 9.44 56.396451 30.156833 0 21.066805-28.78765 30.505781-55.540967 30.505781z m-26.784016-30.327725c5.122671 2.155083 14.149255 4.361331 25.928532 4.361331h0.855484c11.791557 0 20.819165-2.212388 25.940812-4.367471-5.122671-2.148943-14.150278-4.361331-25.940812-4.361331-12.387122-0.001023-21.611204 2.218528-26.784016 4.367471z" fill="#885F44" p-id="5634"></path></svg>