<?xml version="1.0" standalone="no"?><!DOCTYPE svg PUBLIC "-//W3C//DTD SVG 1.1//EN" "http://www.w3.org/Graphics/SVG/1.1/DTD/svg11.dtd"><svg t="1536570987220" className="icon" style="" viewBox="0 0 1024 1024" version="1.1" xmlns="http://www.w3.org/2000/svg" p-id="1092" xmlns:xlink="http://www.w3.org/1999/xlink" width="200" height="200"><defs><style type="text/css"></style></defs><path d="M549.604456 429.149037c-62.386886 0-113.044636 52.742225-113.044636 117.875664 0 65.089437 50.65775 117.861338 113.044636 117.861338 62.504566 0 113.161293-52.771901 113.161293-117.861338C662.765749 481.891262 612.107999 429.149037 549.604456 429.149037L549.604456 429.149037zM889.028982 232.842069 436.500469 232.842069c0-43.513026-33.579793-78.501912-75.325569-78.501912l-75.266218 0c-41.745776 0-75.326593 34.989909-75.326593 78.501912L134.967948 232.842069c-41.398876 0-75.323523 34.989909-75.323523 78.501912l0 471.287763c0 43.456744 33.923624 78.834486 75.323523 78.834486l754.060011 0c41.401945 0 75.325569-35.378765 75.325569-78.834486L964.353528 311.343981C964.354552 267.831978 930.430928 232.842069 889.028982 232.842069L889.028982 232.842069zM549.777395 743.387951c-104.077404 0-188.602496-88.061638-188.602496-196.578144 0-108.171652 84.526115-196.23329 188.602496-196.23329 104.192014 0 188.313923 88.061638 188.313923 196.23329C738.091318 655.326313 653.969409 743.387951 549.777395 743.387951L549.777395 743.387951z" p-id="1093"></path></svg>