<?xml version="1.0" standalone="no"?><!DOCTYPE svg PUBLIC "-//W3C//DTD SVG 1.1//EN" "http://www.w3.org/Graphics/SVG/1.1/DTD/svg11.dtd"><svg t="1536051169865" className="icon" style="" viewBox="0 0 1024 1024" version="1.1" xmlns="http://www.w3.org/2000/svg" p-id="4077" xmlns:xlink="http://www.w3.org/1999/xlink" width="200" height="200"><defs><style type="text/css"></style></defs><path d="M890.500043 217.142857q16 16 27.428571 43.428572t11.428572 50.285714v658.285714q0 22.857143-16 38.857143t-38.857143 16H106.500043q-22.857143 0-38.857143-16t-16-38.857143V54.857143q0-22.857143 16-38.857143T106.500043 0h512q22.857143 0 50.285714 11.428571t43.428572 27.428572z m-253.714286-139.428571v214.857143h214.857143q-5.714286-16.571429-12.571429-23.428572l-178.857142-178.857143q-6.857143-6.857143-23.428572-12.571428z m219.428572 873.142857V365.714286H618.500043q-22.857143 0-38.857143-16t-16-38.857143V73.142857H124.785757v877.714286h731.428572z m-73.142858-256v182.857143H197.928614v-109.714286l109.714286-109.714286 73.142857 73.142857 219.428572-219.428571z m-475.428571-109.714286q-45.714286 0-77.714286-32t-32-77.714286 32-77.714285 77.714286-32 77.714286 32 32 77.714285-32 77.714286-77.714286 32z" p-id="4078" fill="#0A6ECB"></path></svg>