<?xml version="1.0" standalone="no"?><!DOCTYPE svg PUBLIC "-//W3C//DTD SVG 1.1//EN" "http://www.w3.org/Graphics/SVG/1.1/DTD/svg11.dtd"><svg t="1534152684881" class="icon" style="" viewBox="0 0 1366 1024" version="1.1" xmlns="http://www.w3.org/2000/svg" p-id="4677" xmlns:xlink="http://www.w3.org/1999/xlink" width="64.03125" height="48"><defs><style type="text/css"></style></defs><path d="M1308.389921 568.886518C1301.677312 568.886518 1295.419795 567.217847 1289.427749 565.056159L1289.427749 568.886518 75.848691 568.886518 75.848691 565.056159C69.856644 567.217847 63.599127 568.886518 56.886518 568.886518 25.48516 568.886518 0 543.401358 0 512 0 480.598642 25.48516 455.113482 56.886518 455.113482 63.599127 455.113482 69.856644 456.782153 75.848691 458.943841L75.848691 455.113482 1289.427749 455.113482 1289.427749 458.943841C1295.419795 456.782153 1301.677312 455.113482 1308.389921 455.113482 1339.791279 455.113482 1365.27644 480.598642 1365.27644 512 1365.27644 543.401358 1339.791279 568.886518 1308.389921 568.886518ZM1308.389921 113.794372C1301.677312 113.794372 1295.419795 112.125701 1289.427749 109.964013L1289.427749 113.794372 75.848691 113.794372 75.848691 109.964013C69.856644 112.125701 63.599127 113.794372 56.886518 113.794372 25.48516 113.794372 0 88.309212 0 56.907853 0 25.506495 25.48516 0.021335 56.886518 0.021335 63.599127 0.021335 69.856644 1.690006 75.848691 3.851694L75.848691 0.021335 1289.427749 0.021335 1289.427749 3.851694C1295.419795 1.690006 1301.677312 0.021335 1308.389921 0.021335 1339.791279 0.021335 1365.27644 25.506495 1365.27644 56.907853 1365.27644 88.309212 1339.791279 113.794372 1308.389921 113.794372ZM56.886518 910.205628C63.599127 910.205628 69.856644 911.874299 75.848691 914.035987L75.848691 910.205628 1289.427749 910.205628 1289.427749 914.035987C1295.419795 911.874299 1301.677312 910.205628 1308.389921 910.205628 1339.791279 910.205628 1365.27644 935.690788 1365.27644 967.092147 1365.27644 998.493505 1339.791279 1023.978665 1308.389921 1023.978665 1301.677312 1023.978665 1295.419795 1022.309994 1289.427749 1020.148306L1289.427749 1023.978665 75.848691 1023.978665 75.848691 1020.148306C69.856644 1022.309994 63.599127 1023.978665 56.886518 1023.978665 25.48516 1023.978665 0 998.493505 0 967.092147 0 935.690788 25.48516 910.205628 56.886518 910.205628Z" p-id="4678" fill="#999999"></path></svg>