<?xml version="1.0" standalone="no"?><!DOCTYPE svg PUBLIC "-//W3C//DTD SVG 1.1//EN" "http://www.w3.org/Graphics/SVG/1.1/DTD/svg11.dtd"><svg t="1535527444277" className="icon" style="" viewBox="0 0 1024 1024" version="1.1" xmlns="http://www.w3.org/2000/svg" p-id="1989" xmlns:xlink="http://www.w3.org/1999/xlink" width="200" height="200"><defs><style type="text/css"></style></defs><path d="M362.666667 853.333333l298.666667 0c12.8 0 21.333333-8.533333 21.333333-21.333333 0-12.8-8.533333-21.333333-21.333333-21.333333L362.666667 810.666667c-12.8 0-21.333333 8.533333-21.333333 21.333333C341.333333 844.8 349.866667 853.333333 362.666667 853.333333zM362.666667 768l213.333333 0c12.8 0 21.333333-8.533333 21.333333-21.333333 0-12.8-8.533333-21.333333-21.333333-21.333333L362.666667 725.333333c-12.8 0-21.333333 8.533333-21.333333 21.333333C341.333333 759.466667 349.866667 768 362.666667 768zM853.333333 298.666667l-42.666667 0L810.666667 85.333333c0-23.466667-19.2-42.666667-42.666667-42.666667L256 42.666667c-23.466667 0-42.666667 19.2-42.666667 42.666667l0 213.333333L170.666667 298.666667c-70.4 0-128 57.6-128 128l0 341.333333c0 70.4 57.6 128 128 128l42.666667 0 0 42.666667c0 23.466667 19.2 42.666667 42.666667 42.666667l512 0c23.466667 0 42.666667-19.2 42.666667-42.666667l0-42.666667 42.666667 0c70.4 0 128-57.6 128-128L981.333333 426.666667C981.333333 356.266667 923.733333 298.666667 853.333333 298.666667zM256 85.333333l512 0 0 213.333333L256 298.666667 256 85.333333zM768 896l0 42.666667L256 938.666667l0-42.666667L256 682.666667l512 0L768 896zM938.666667 768c0 46.933333-38.4 85.333333-85.333333 85.333333l-42.666667 0 0-170.666667c0-23.466667-19.2-42.666667-42.666667-42.666667L256 640c-23.466667 0-42.666667 19.2-42.666667 42.666667l0 170.666667L170.666667 853.333333c-46.933333 0-85.333333-38.4-85.333333-85.333333L85.333333 426.666667c0-46.933333 38.4-85.333333 85.333333-85.333333l682.666667 0c46.933333 0 85.333333 38.4 85.333333 85.333333L938.666667 768zM810.666667 426.666667c-23.466667 0-42.666667 19.2-42.666667 42.666667s19.2 42.666667 42.666667 42.666667 42.666667-19.2 42.666667-42.666667S834.133333 426.666667 810.666667 426.666667zM682.666667 426.666667c-23.466667 0-42.666667 19.2-42.666667 42.666667s19.2 42.666667 42.666667 42.666667 42.666667-19.2 42.666667-42.666667S706.133333 426.666667 682.666667 426.666667z" p-id="1990"></path></svg>
