<?xml version="1.0" standalone="no"?><!DOCTYPE svg PUBLIC "-//W3C//DTD SVG 1.1//EN" "http://www.w3.org/Graphics/SVG/1.1/DTD/svg11.dtd"><svg t="1536031320704" className="icon" style="" viewBox="0 0 1024 1024" version="1.1" xmlns="http://www.w3.org/2000/svg" p-id="1595" xmlns:xlink="http://www.w3.org/1999/xlink" width="200" height="200"><defs><style type="text/css"></style></defs><path d="M958.914 511.988c0-247.063-200.282-447.346-447.346-447.346S64.223 264.924 64.223 511.988s200.282 447.346 447.346 447.346c247.063-0.001 447.345-200.283 447.345-447.346zM308.419 651.486c-29.725 29.744-77.947 29.744-107.672 0-14.872-14.853-22.308-34.354-22.308-53.836s7.436-38.983 22.308-53.836l256.986-256.986c29.725-29.744 77.947-29.744 107.672 0l256.986 256.986c29.744 29.707 29.744 77.966 0 107.672-29.725 29.744-77.947 29.744-107.672 0l-203.15-203.131-203.15 203.131z" p-id="1596" fill="#0A6ECB"></path></svg>