<?xml version="1.0" standalone="no"?><!DOCTYPE svg PUBLIC "-//W3C//DTD SVG 1.1//EN" "http://www.w3.org/Graphics/SVG/1.1/DTD/svg11.dtd"><svg t="1541573143643" class="icon" style="" viewBox="0 0 1024 1024" version="1.1" xmlns="http://www.w3.org/2000/svg" p-id="6729" xmlns:xlink="http://www.w3.org/1999/xlink" width="200" height="200"><defs><style type="text/css"></style></defs><path d="M408.024615 524.209231v171.716923h72.861539v-171.716923l-36.627692-33.476923z" fill="#3485FB" p-id="6730"></path><path d="M286.72 695.926154h72.861538v-131.150769l-72.861538 63.803077z" fill="#46B7B9" p-id="6731"></path><path d="M650.633846 483.643077v212.283077h72.861539v-279.236923z" fill="#3485FB" p-id="6732"></path><path d="M529.329231 567.926154v128h72.861538V527.753846l-57.501538 53.563077z" fill="#46B7B9" p-id="6733"></path><path d="M772.332308 278.449231h-139.815385l57.895385 60.652307-148.873846 134.695385-97.28-90.978461-157.538462 137.846153v60.652308l157.538462-137.846154 100.430769 90.978462 178.806154-161.476923 48.836923 50.412307z" fill="#FFA348" p-id="6734"></path><path d="M529.329231 895.606154c-217.009231 0-393.846154-176.836923-393.846154-393.846154s176.836923-393.846154 393.846154-393.846154 393.846154 176.836923 393.846154 393.846154-176.443077 393.846154-393.846154 393.846154z m0-749.095385c-195.741538 0-355.249231 159.507692-355.249231 355.249231s159.507692 355.249231 355.249231 355.249231 355.249231-159.507692 355.249231-355.249231-159.113846-355.249231-355.249231-355.249231z" fill="#0A6ECB" p-id="6735"></path></svg>