<?xml version="1.0" standalone="no"?><!DOCTYPE svg PUBLIC "-//W3C//DTD SVG 1.1//EN" "http://www.w3.org/Graphics/SVG/1.1/DTD/svg11.dtd"><svg t="1539053517046" class="icon" style="" viewBox="0 0 1024 1024" version="1.1" xmlns="http://www.w3.org/2000/svg" p-id="9991" xmlns:xlink="http://www.w3.org/1999/xlink" width="200" height="200"><defs><style type="text/css"></style></defs><path d="M294.4 238.933333V157.866667H234.666667v81.066666c-38.4 12.8-68.266667 51.2-68.266667 93.866667s29.866667 81.066667 68.266667 89.6v418.133333h55.466666V422.4c38.4-12.8 68.266667-46.933333 68.266667-89.6 4.266667-42.666667-25.6-81.066667-64-93.866667z m-29.866667 149.333334c-34.133333 0-59.733333-25.6-59.733333-59.733334s25.6-59.733333 59.733333-59.733333 59.733333 29.866667 59.733334 64S298.666667 388.266667 264.533333 388.266667zM537.6 588.8V157.866667h-55.466667v430.933333c-38.4 12.8-68.266667 46.933333-68.266666 89.6s29.866667 81.066667 68.266666 89.6v68.266667h55.466667V768c38.4-12.8 68.266667-46.933333 68.266667-89.6s-29.866667-76.8-68.266667-89.6z m-29.866667 149.333333c-34.133333 0-59.733333-25.6-59.733333-59.733333s25.6-59.733333 59.733333-59.733333 59.733333 25.6 59.733334 59.733333-25.6 59.733333-59.733334 59.733333zM780.8 337.066667V157.866667H725.333333v179.2c-42.666667 12.8-68.266667 46.933333-68.266666 89.6s29.866667 81.066667 68.266666 89.6v320h55.466667v-320c38.4-12.8 68.266667-46.933333 68.266667-89.6s-29.866667-76.8-68.266667-89.6z m-29.866667 149.333333c-34.133333 0-59.733333-25.6-59.733333-59.733333s25.6-59.733333 59.733333-59.733334c34.133333 0 59.733333 25.6 59.733334 59.733334s-25.6 59.733333-59.733334 59.733333z" fill="" p-id="9992"></path></svg>