<?xml version="1.0" standalone="no"?><!DOCTYPE svg PUBLIC "-//W3C//DTD SVG 1.1//EN" "http://www.w3.org/Graphics/SVG/1.1/DTD/svg11.dtd"><svg t="1538143578080" className="icon" style="" viewBox="0 0 1098 1024" version="1.1" xmlns="http://www.w3.org/2000/svg" p-id="2472" xmlns:xlink="http://www.w3.org/1999/xlink" width="214.453125" height="200"><defs><style type="text/css"></style></defs><path d="M548.571429 384q68 0 116.285714 48.285714t48.285714 116.285714-48.285714 116.285714-116.285714 48.285714-116.285714-48.285714-48.285714-116.285714 48.285714-116.285714 116.285714-48.285714zM950.857143 146.285714q60.571429 0 103.428571 42.857143t42.857143 103.428571l0 512q0 60.571429-42.857143 103.428571t-103.428571 42.857143l-804.571429 0q-60.571429 0-103.428571-42.857143t-42.857143-103.428571l0-512q0-60.571429 42.857143-103.428571t103.428571-42.857143l128 0 29.142857-77.714286q10.857143-28 39.714286-48.285714t59.142857-20.285714l292.571429 0q30.285714 0 59.142857 20.285714t39.714286 48.285714l29.142857 77.714286 128 0zM548.571429 804.571429q105.714286 0 180.857143-75.142857t75.142857-180.857143-75.142857-180.857143-180.857143-75.142857-180.857143 75.142857-75.142857 180.857143 75.142857 180.857143 180.857143 75.142857z" p-id="2473" ></path></svg>
