<?xml version="1.0" standalone="no"?><!DOCTYPE svg PUBLIC "-//W3C//DTD SVG 1.1//EN" "http://www.w3.org/Graphics/SVG/1.1/DTD/svg11.dtd"><svg t="1538055968996" className="icon" style="" viewBox="0 0 1024 1024" version="1.1" xmlns="http://www.w3.org/2000/svg" p-id="1819" xmlns:xlink="http://www.w3.org/1999/xlink" width="200" height="200"><defs><style type="text/css"></style></defs><path d="M298.666667 221.866667h388.266666c29.866667 0 59.733333-21.333333 59.733334-46.933334V110.933333c0-25.6-25.6-46.933333-59.733334-46.933333H298.666667c-29.866667 0-55.466667 21.333333-55.466667 46.933333v68.266667c0 21.333333 25.6 42.666667 55.466667 42.666667z m0 0" fill="#91BEE2" p-id="1820"></path><path d="M849.066667 128H768v68.266667c0 25.6-25.6 46.933333-59.733333 46.933333H277.333333c-29.866667 0-59.733333-21.333333-59.733333-46.933333V128H145.066667c-29.866667 0-55.466667 21.333333-55.466667 46.933333v695.466667c0 25.6 25.6 46.933333 59.733333 46.933333h695.466667c29.866667 0 59.733333-21.333333 59.733333-46.933333V174.933333c-4.266667-25.6-25.6-42.666667-55.466666-46.933333z m-512 302.933333c0-12.8 12.8-21.333333 25.6-21.333333H469.333333V315.733333c0-12.8 12.8-21.333333 25.6-21.333333h4.266667c8.533333 0 12.8 4.266667 17.066667 4.266667 4.266667 4.266667 8.533333 8.533333 8.533333 17.066666v93.866667h106.666667c8.533333 0 12.8 4.266667 17.066666 4.266667 4.266667 4.266667 8.533333 8.533333 8.533334 17.066666v4.266667c0 12.8-12.8 21.333333-25.6 21.333333h-106.666667v93.866667c0 12.8-12.8 21.333333-25.6 21.333333h-4.266667c-8.533333 0-12.8-4.266667-17.066666-4.266666-4.266667-4.266667-8.533333-8.533333-8.533334-17.066667v-93.866667H358.4c-8.533333 0-12.8-4.266667-17.066667-4.266666-4.266667-8.533333-4.266667-12.8-4.266666-21.333334z m285.866666 401.066667H379.733333c-12.8 0-25.6-8.533333-25.6-21.333333s12.8-21.333333 25.6-21.333334h243.2c12.8 0 25.6 8.533333 25.6 21.333334 0 8.533333-12.8 17.066667-25.6 21.333333z m72.533334-128H302.933333c-12.8 0-25.6-8.533333-25.6-21.333333s12.8-21.333333 25.6-21.333334h392.533334c12.8 0 25.6 8.533333 25.6 21.333334s-8.533333 21.333333-25.6 21.333333z m0 0" fill="#91BEE2" p-id="1821"></path></svg>