<?xml version="1.0" standalone="no"?><!DOCTYPE svg PUBLIC "-//W3C//DTD SVG 1.1//EN" "http://www.w3.org/Graphics/SVG/1.1/DTD/svg11.dtd"><svg t="1538053308693" className="icon" style="" viewBox="0 0 1024 1024" version="1.1" xmlns="http://www.w3.org/2000/svg" p-id="1046" xmlns:xlink="http://www.w3.org/1999/xlink" width="200" height="200"><defs><style type="text/css"></style></defs><path d="M477.866667 298.666667h34.133333v302.933333h-34.133333z" fill="#91BEE2" p-id="1047"></path><path d="M512 21.333333C251.733333 21.333333 42.666667 230.4 42.666667 490.666667s209.066667 469.333333 469.333333 469.333333 469.333333-209.066667 469.333333-469.333333-209.066667-469.333333-469.333333-469.333334z m38.4 691.2l-46.933333 72.533334-46.933334-72.533334H320c-38.4 0-68.266667-29.866667-68.266667-68.266666V366.933333c0-29.866667 21.333333-55.466667 51.2-64V247.466667h392.533334v55.466666c25.6 8.533333 46.933333 34.133333 46.933333 64v119.466667c-17.066667-8.533333-38.4-12.8-55.466667-12.8-76.8 0-140.8 64-140.8 140.8 0 8.533333 0 17.066667 4.266667 25.6v8.533333c4.266667 25.6 17.066667 46.933333 34.133333 64h-34.133333z m268.8 29.866667l-51.2-42.666667c-21.333333 21.333333-51.2 34.133333-81.066667 34.133334-64 0-119.466667-51.2-119.466666-119.466667 0-64 51.2-119.466667 119.466666-119.466667 64 0 119.466667 51.2 119.466667 119.466667 0 17.066667-4.266667 34.133333-12.8 51.2l59.733333 46.933333c8.533333 8.533333 8.533333 17.066667 4.266667 25.6-12.8 12.8-29.866667 12.8-38.4 4.266667z" fill="#91BEE2" p-id="1048"></path><path d="M682.666667 614.4m-81.066667 0a81.066667 81.066667 0 1 0 162.133333 0 81.066667 81.066667 0 1 0-162.133333 0Z" fill="#91BEE2" p-id="1049"></path></svg>