<?xml version="1.0" standalone="no"?><!DOCTYPE svg PUBLIC "-//W3C//DTD SVG 1.1//EN" "http://www.w3.org/Graphics/SVG/1.1/DTD/svg11.dtd"><svg t="1538893710925" className="icon" style="" viewBox="0 0 1024 1024" version="1.1" xmlns="http://www.w3.org/2000/svg" p-id="2010" xmlns:xlink="http://www.w3.org/1999/xlink" width="200" height="200"><defs><style type="text/css"></style></defs><path d="M460.8 904.533333c-55.466667 0-106.666667-8.533333-153.6-29.866666-46.933333-21.333333-89.6-46.933333-128-85.333334-38.4-38.4-64-81.066667-85.333333-128-21.333333-51.2-29.866667-102.4-29.866667-153.6 0-55.466667 8.533333-106.666667 29.866667-153.6 21.333333-46.933333 46.933333-89.6 85.333333-128 38.4-38.4 76.8-64 128-85.333333 46.933333-21.333333 102.4-29.866667 153.6-29.866667h17.066667v388.266667h379.733333v17.066667c0 106.666667-42.666667 204.8-119.466667 277.333333-72.533333 68.266667-174.933333 110.933333-277.333333 110.933333z" fill="#91BEE2" p-id="2011"></path><path d="M516.266667 51.2v409.6h401.066666v-4.266667c0-226.133333-179.2-405.333333-401.066666-405.333333z m0 0" fill="#91BEE2" p-id="2012"></path></svg>
