<?xml version="1.0" standalone="no"?><!DOCTYPE svg PUBLIC "-//W3C//DTD SVG 1.1//EN" "http://www.w3.org/Graphics/SVG/1.1/DTD/svg11.dtd"><svg t="1538055980044" className="icon" style="" viewBox="0 0 1024 1024" version="1.1" xmlns="http://www.w3.org/2000/svg" p-id="1929" xmlns:xlink="http://www.w3.org/1999/xlink" width="200" height="200"><defs><style type="text/css"></style></defs><path d="M549.236364 679.563636l-107.054546 186.181819-186.181818-353.745455s-167.563636 13.963636-218.763636 251.345455c-9.309091 41.890909 9.309091 107.054545 46.545454 125.672727 55.854545 32.581818 162.909091 65.163636 363.054546 65.163636 93.090909 0 167.563636-4.654545 228.072727-18.618182-83.781818-69.818182-116.363636-176.872727-125.672727-256z m-260.654546 190.836364c-74.472727 0-139.636364-27.927273-144.290909-27.927273l13.963636-37.236363s93.090909 37.236364 172.218182 23.272727l9.309091 37.236364c-13.963636 4.654545-32.581818 4.654545-51.2 4.654545zM968.145455 567.854545c-55.854545-46.545455-55.854545-74.472727-55.854546-74.472727h-269.963636s0 23.272727-55.854546 74.472727c0 0-27.927273 265.309091 186.181818 335.127273 223.418182-69.818182 195.490909-335.127273 195.49091-335.127273z m-93.09091 158.254546h-65.163636V791.272727h-55.854545v-65.163636h-65.163637v-55.854546h65.163637V605.090909h55.854545v65.163636h65.163636v55.854546z" fill="#91BEE2" p-id="1930"></path><path d="M437.527273 605.090909c111.709091 0 200.145455-139.636364 200.145454-251.345454v-13.963637l-32.581818-32.581818c0-4.654545-55.854545-51.2-162.909091-51.2h-4.654545C325.818182 256 274.618182 307.2 274.618182 307.2l-37.236364 32.581818v9.309091C237.381818 465.454545 325.818182 605.090909 437.527273 605.090909z" fill="#91BEE2" p-id="1931"></path><path d="M642.327273 279.272727V88.436364s-204.8-144.290909-404.945455 0V279.272727s65.163636-60.509091 200.145455-60.509091S642.327273 279.272727 642.327273 279.272727z" fill="#91BEE2" p-id="1932"></path></svg>
