<?xml version="1.0" standalone="no"?><!DOCTYPE svg PUBLIC "-//W3C//DTD SVG 1.1//EN" "http://www.w3.org/Graphics/SVG/1.1/DTD/svg11.dtd"><svg t="1540956092533" class="icon" style="" viewBox="0 0 1024 1024" version="1.1" xmlns="http://www.w3.org/2000/svg" p-id="6263" xmlns:xlink="http://www.w3.org/1999/xlink" width="200" height="200"><defs><style type="text/css"></style></defs><path d="M279.272727 488.727273c0-9.309091-4.654545-18.618182-9.309091-27.927273-9.309091-4.654545-18.618182-9.309091-27.927272-9.309091H83.781818c-18.618182 0-37.236364 18.618182-37.236363 37.236364 0 23.272727 18.618182 37.236364 37.236363 37.236363h153.6c9.309091 0 18.618182-4.654545 27.927273-9.309091 9.309091-9.309091 13.963636-18.618182 13.963636-27.927272z m0 0" fill="#D5D5D5" p-id="6264"></path><path d="M977.454545 488.727273c0-9.309091-4.654545-18.618182-9.30909-27.927273-9.309091-9.309091-18.618182-9.309091-27.927273-9.309091h-153.6c-23.272727 0-37.236364 18.618182-37.236364 37.236364 0 23.272727 18.618182 37.236364 37.236364 37.236363h153.6c9.309091 0 18.618182-4.654545 27.927273-9.309091 4.654545-9.309091 9.309091-18.618182 9.30909-27.927272z m0 0" fill="#8C8C8C" p-id="6265"></path><path d="M512 256c9.309091 0 18.618182-4.654545 27.927273-9.309091 9.309091-9.309091 9.309091-18.618182 9.309091-27.927273V65.163636c0-23.272727-18.618182-37.236364-37.236364-37.236363-23.272727 0-37.236364 18.618182-37.236364 37.236363v153.6c0 9.309091 4.654545 18.618182 9.309091 27.927273 9.309091 4.654545 18.618182 9.309091 27.927273 9.309091z m0 0" fill="#B7B7B7" p-id="6266"></path><path d="M549.236364 916.945455v-153.6c0-23.272727-18.618182-37.236364-37.236364-37.236364-23.272727 0-37.236364 18.618182-37.236364 37.236364v153.6c0 23.272727 18.618182 37.236364 37.236364 37.236363s37.236364-18.618182 37.236364-37.236363z m0 0" fill="#E5E5E5" p-id="6267"></path><path d="M842.472727 214.109091c13.963636-13.963636 13.963636-41.890909 0-55.854546-13.963636-13.963636-41.890909-13.963636-55.854545 0l-111.709091 111.709091c-13.963636 13.963636-13.963636 41.890909 0 55.854546 13.963636 13.963636 41.890909 13.963636 55.854545 0l111.709091-111.709091z m0 0" fill="#9E9E9E" p-id="6268"></path><path d="M349.090909 707.490909c13.963636-13.963636 13.963636-41.890909 0-55.854545-13.963636-13.963636-41.890909-13.963636-55.854545 0l-111.709091 111.709091c-13.963636 13.963636-13.963636 41.890909 0 55.854545 13.963636 13.963636 41.890909 13.963636 55.854545 0l111.709091-111.709091z m0 0" fill="#DDDDDD" p-id="6269"></path><path d="M674.909091 707.490909l111.709091 111.709091c13.963636 13.963636 41.890909 13.963636 55.854545 0 13.963636-13.963636 13.963636-41.890909 0-55.854545L730.763636 651.636364c-13.963636-13.963636-41.890909-13.963636-55.854545 0-13.963636 18.618182-13.963636 41.890909 0 55.854545z m0 0" fill="#EEEEEE" p-id="6270"></path><path d="M349.090909 269.963636L237.381818 162.909091c-13.963636-13.963636-41.890909-13.963636-55.854545 0-13.963636 13.963636-13.963636 41.890909 0 55.854545L293.236364 325.818182c13.963636 13.963636 41.890909 13.963636 55.854545 0 13.963636-13.963636 13.963636-41.890909 0-55.854546z m0 0" fill="#C6C6C6" p-id="6271"></path></svg>