<?xml version="1.0" standalone="no"?><!DOCTYPE svg PUBLIC "-//W3C//DTD SVG 1.1//EN" "http://www.w3.org/Graphics/SVG/1.1/DTD/svg11.dtd"><svg t="1541057440813" class="icon" style="" viewBox="0 0 1024 1024" version="1.1" xmlns="http://www.w3.org/2000/svg" p-id="27840" xmlns:xlink="http://www.w3.org/1999/xlink" width="200" height="200"><defs><style type="text/css"></style></defs><path d="M572.509091 586.472727c0 18.618182-4.654545 37.236364-18.618182 51.2-9.309091 13.963636-27.927273 18.618182-41.890909 18.618182-13.963636 0-27.927273-9.309091-41.890909-18.618182-9.309091-13.963636-18.618182-32.581818-18.618182-51.2V97.745455c0-18.618182 4.654545-37.236364 18.618182-51.2 9.309091-13.963636 27.927273-18.618182 41.890909-18.618182 13.963636 0 27.927273 9.309091 41.890909 18.618182 9.309091 13.963636 18.618182 32.581818 18.618182 51.2v488.727272z m0 0" fill="#1F3F69" p-id="27841"></path><path d="M763.345455 190.836364h-13.963637c-9.309091 0-13.963636 4.654545-23.272727 9.309091-4.654545 4.654545-13.963636 9.309091-18.618182 13.963636-4.654545 4.654545-9.309091 9.309091-9.309091 13.963636-4.654545 13.963636-9.309091 27.927273-9.309091 37.236364 97.745455 60.509091 158.254545 167.563636 158.254546 288.581818 0 186.181818-153.6 339.781818-339.781818 339.781818s-339.781818-153.6-339.781819-339.781818c0-121.018182 65.163636-232.727273 162.909091-288.581818v-9.309091c0-9.309091-4.654545-13.963636-4.654545-23.272727s-4.654545-18.618182-9.309091-23.272728c-13.963636-13.963636-32.581818-18.618182-51.2-18.618181h-9.309091C139.636364 269.963636 65.163636 404.945455 65.163636 553.890909c0 242.036364 200.145455 442.181818 442.181819 442.181818s442.181818-200.145455 442.181818-442.181818c4.654545-153.6-69.818182-283.927273-186.181818-363.054545z m0 0" fill="#1F3F69" p-id="27842"></path></svg>