<?xml version="1.0" standalone="no"?><!DOCTYPE svg PUBLIC "-//W3C//DTD SVG 1.1//EN" "http://www.w3.org/Graphics/SVG/1.1/DTD/svg11.dtd"><svg t="1540803671426" class="icon" style="" viewBox="0 0 1024 1024" version="1.1" xmlns="http://www.w3.org/2000/svg" p-id="10677" xmlns:xlink="http://www.w3.org/1999/xlink" width="200" height="200"><defs><style type="text/css"></style></defs><path d="M399.36 808.96c-5.12-5.12-10.24-15.36-10.24-25.6v-512c0-10.24 5.12-15.36 10.24-25.6 5.12-5.12 15.36-10.24 25.6-10.24 56.32 0 107.52 25.6 148.48 66.56 30.72 30.72 51.2 66.56 66.56 107.52h204.8c25.6-40.96 61.44-66.56 97.28-81.92 10.24-5.12 20.48 0 30.72 5.12 10.24 5.12 15.36 15.36 15.36 25.6v332.8c0 10.24-5.12 20.48-15.36 25.6-10.24 5.12-20.48 10.24-30.72 5.12-40.96-10.24-76.8-40.96-97.28-81.92h-204.8c-35.84 102.4-122.88 168.96-215.04 168.96-10.24 5.12-20.48 5.12-25.6 0z" fill="#333333" p-id="10678"></path><path d="M414.72 783.36c0 5.12 5.12 5.12 5.12 5.12 81.92 0 158.72-61.44 194.56-163.84 0-5.12 5.12-10.24 15.36-10.24h220.16c5.12 0 10.24 5.12 10.24 5.12 20.48 35.84 51.2 61.44 87.04 71.68h5.12V353.28v-5.12h-5.12c-35.84 10.24-66.56 35.84-87.04 71.68 0 5.12-5.12 5.12-10.24 5.12h-220.16c-5.12 0-10.24-5.12-15.36-10.24-15.36-40.96-35.84-76.8-61.44-102.4C517.12 276.48 471.04 256 424.96 256h-5.12v5.12l-5.12 522.24z" fill="#DF5827" p-id="10679"></path><path d="M15.36 537.6c-5.12-5.12-5.12-5.12-5.12-10.24 0-10.24 5.12-15.36 15.36-15.36h378.88c10.24 0 15.36 5.12 15.36 15.36 0 10.24-5.12 15.36-15.36 15.36H25.6c-5.12 0-10.24-5.12-10.24-5.12z m0 0" fill="#333333" p-id="10680"></path></svg>