<?xml version="1.0" standalone="no"?><!DOCTYPE svg PUBLIC "-//W3C//DTD SVG 1.1//EN" "http://www.w3.org/Graphics/SVG/1.1/DTD/svg11.dtd"><svg t="1539772466328" class="icon" style="" viewBox="0 0 1024 1024" version="1.1" xmlns="http://www.w3.org/2000/svg" p-id="5112" xmlns:xlink="http://www.w3.org/1999/xlink" width="200" height="200"><defs><style type="text/css"></style></defs><path d="M578.56 839.68c-10.24 0-15.36-5.12-25.6-10.24l-358.4-358.4c-10.24-5.12-10.24-15.36-10.24-25.6s5.12-15.36 10.24-25.6c35.84-35.84 92.16-61.44 153.6-61.44 40.96 0 81.92 10.24 122.88 25.6L614.4 240.64c-10.24-46.08-5.12-92.16 15.36-128 0 0 10.24-10.24 20.48-10.24s20.48 0 30.72 10.24l235.52 235.52c5.12 5.12 5.12 15.36 5.12 25.6s-5.12 20.48-15.36 25.6c-35.84 20.48-81.92 25.6-128 15.36l-143.36 143.36c46.08 102.4 35.84 204.8-30.72 271.36-10.24 10.24-15.36 10.24-25.6 10.24z" fill="#333333" p-id="5113"></path><path d="M573.44 808.96h10.24c61.44-61.44 66.56-158.72 20.48-250.88-5.12-5.12 0-10.24 5.12-15.36L768 384c5.12-5.12 10.24-5.12 15.36-5.12 40.96 10.24 81.92 10.24 112.64-10.24l5.12-5.12V358.4L665.6 122.88h-5.12s-5.12 0-5.12 5.12c-20.48 30.72-20.48 71.68-10.24 112.64 0 5.12 0 10.24-5.12 15.36L476.16 414.72c0 5.12-10.24 5.12-15.36 5.12-35.84-20.48-76.8-30.72-117.76-30.72-51.2 0-97.28 20.48-133.12 51.2v10.24l363.52 358.4z" fill="#DF5827" p-id="5114"></path><path d="M117.76 921.6c-5.12 0-5.12 0-10.24-5.12s-5.12-15.36 0-20.48l266.24-266.24c5.12-5.12 15.36-5.12 20.48 0 5.12 5.12 5.12 15.36 0 20.48l-266.24 266.24c-5.12 5.12-10.24 5.12-10.24 5.12z m0 0" fill="#333333" p-id="5115"></path></svg>