<?xml version="1.0" standalone="no"?><!DOCTYPE svg PUBLIC "-//W3C//DTD SVG 1.1//EN" "http://www.w3.org/Graphics/SVG/1.1/DTD/svg11.dtd"><svg t="1536031114358" className="icon" style="" viewBox="0 0 1024 1024" version="1.1" xmlns="http://www.w3.org/2000/svg" p-id="1042" xmlns:xlink="http://www.w3.org/1999/xlink" width="200" height="200"><defs><style type="text/css"></style></defs><path d="M64.223 511.988c0 247.063 200.282 447.346 447.346 447.346s447.346-200.282 447.346-447.346S758.632 64.642 511.569 64.642 64.223 264.924 64.223 511.988zM714.718 372.49c29.725-29.744 77.947-29.744 107.672 0 14.872 14.853 22.308 34.354 22.308 53.836s-7.436 38.983-22.308 53.836L565.405 737.148c-29.725 29.744-77.947 29.744-107.672 0L200.747 480.162c-29.744-29.707-29.744-77.966 0-107.672 29.725-29.744 77.947-29.744 107.672 0l203.15 203.131L714.718 372.49z" p-id="1043" fill="#0A6ECB"></path></svg>