<?xml version="1.0" standalone="no"?><!DOCTYPE svg PUBLIC "-//W3C//DTD SVG 1.1//EN" "http://www.w3.org/Graphics/SVG/1.1/DTD/svg11.dtd"><svg t="1537869722233" className="icon" style="" viewBox="0 0 1024 1024" version="1.1" xmlns="http://www.w3.org/2000/svg" p-id="4067" xmlns:xlink="http://www.w3.org/1999/xlink" width="200" height="200"><defs><style type="text/css"></style></defs><path d="M781.274074 297.718519l-49.303704-49.303704-66.37037-66.370371-303.407407 299.614815c-3.792593 3.792593-7.585185 7.585185-9.481482 13.274074l-64.474074 216.177778c-3.792593 9.481481 0 18.962963 7.585185 26.548148 5.688889 5.688889 11.377778 7.585185 18.962963 7.585185 1.896296 0 5.688889 0 7.585185-1.896296l216.177778-62.577778c5.688889-1.896296 9.481481-3.792593 11.377778-7.585185l303.407407-301.511111-72.059259-73.955555zM390.637037 667.496296l-24.651852-24.651852 34.133334-115.674074 15.17037 15.170371 72.059259 5.688889 3.792593 70.162963 17.066666 17.066666-117.57037 32.237037zM692.148148 151.703704l191.525926 189.629629 43.614815-41.718518-191.525926-189.62963zM976.592593 147.911111L885.57037 56.888889c-24.651852-24.651852-66.37037-24.651852-91.022222 0l-28.444444 28.444444 182.044444 182.044445 28.444445-28.444445c24.651852-24.651852 24.651852-66.37037 0-91.022222z" fill="#1e79bc" p-id="4068"></path><path d="M906.42963 591.644444v293.925926c0 41.718519-34.133333 75.851852-77.748149 75.851852H151.703704c-43.614815 0-77.748148-34.133333-77.748148-75.851852V231.348148c0-41.718519 34.133333-75.851852 77.748148-75.851852h339.437037V132.740741H151.703704c-56.888889 0-104.296296 45.511111-104.296297 100.503703v654.222223C47.407407 940.562963 94.814815 986.074074 151.703704 986.074074h676.977777c56.888889 0 104.296296-45.511111 104.296297-100.503704V591.644444h-26.548148z" fill="#515151" p-id="4069"></path></svg>