<?xml version="1.0" standalone="no"?><!DOCTYPE svg PUBLIC "-//W3C//DTD SVG 1.1//EN" "http://www.w3.org/Graphics/SVG/1.1/DTD/svg11.dtd"><svg t="1541225839692" class="icon" style="" viewBox="0 0 1024 1024" version="1.1" xmlns="http://www.w3.org/2000/svg" p-id="6601" xmlns:xlink="http://www.w3.org/1999/xlink" width="200" height="200"><defs><style type="text/css"></style></defs><path d="M342.646154 275.692308c3.938462 3.938462 7.876923 7.876923 11.815384 7.876923 3.938462 0 7.876923 0 11.815385-3.938462 3.938462-7.876923 3.938462-15.753846 0-23.630769L303.261538 185.107692c-7.876923-7.876923-15.753846-3.938462-19.692307 0-7.876923 7.876923-7.876923 19.692308 0 23.63077L342.646154 275.692308z m326.892308 7.876923c3.938462 0 7.876923 0 11.815384-3.938462l59.076923-66.953846c3.938462-7.876923 3.938462-15.753846 0-23.630769-3.938462-7.876923-15.753846-7.876923-19.692307 0l-59.076924 66.953846c-3.938462 7.876923-3.938462 15.753846 0 23.630769 0 0 3.938462 3.938462 7.876924 3.938462z m-157.538462-23.630769c7.876923 0 15.753846-7.876923 15.753846-15.753847V137.846154c0-7.876923-7.876923-15.753846-15.753846-15.753846s-15.753846 7.876923-15.753846 15.753846v102.4c0 11.815385 7.876923 19.692308 15.753846 19.692308z m393.846154 319.015384l-122.092308-200.861538c-11.815385-19.692308-31.507692-31.507692-51.2-31.507693H291.446154c-19.692308 0-39.384615 11.815385-51.2 31.507693L118.153846 578.953846v228.430769c0 31.507692 23.630769 59.076923 55.138462 59.076923h677.415384c31.507692 0 55.138462-27.569231 55.138462-59.076923v-228.430769zM259.938462 397.784615c7.876923-11.815385 15.753846-15.753846 27.56923-15.753846h441.107693c11.815385 0 23.630769 7.876923 27.56923 15.753846l110.276923 181.169231h-256c-3.938462 0-7.876923 3.938462-7.876923 11.815385v7.876923c0 59.076923-43.323077 106.338462-94.523077 106.338461-51.2 0-94.523077-47.261538-94.523076-106.338461V590.769231c0-3.938462-3.938462-11.815385-7.876924-11.815385H149.661538l110.276924-181.169231z m622.276923 385.969231c0 43.323077-11.815385 59.076923-55.138462 59.076923H189.046154c-39.384615 0-47.261538-15.753846-47.261539-59.076923v-173.292308h240.246154c3.938462 0 7.876923 3.938462 7.876923 11.815385v7.876923c3.938462 51.2 51.2 102.4 118.153846 102.4s114.215385-47.261538 118.153847-102.4v-7.876923c0-3.938462 3.938462-11.815385 7.876923-11.815385h240.246154l7.876923 173.292308z m0 0" fill="#999999" p-id="6602"></path></svg>