<?xml version="1.0" standalone="no"?><!DOCTYPE svg PUBLIC "-//W3C//DTD SVG 1.1//EN" "http://www.w3.org/Graphics/SVG/1.1/DTD/svg11.dtd"><svg t="1540968130295" class="icon" style="" viewBox="0 0 1024 1024" version="1.1" xmlns="http://www.w3.org/2000/svg" p-id="12754" xmlns:xlink="http://www.w3.org/1999/xlink" width="200" height="200"><defs><style type="text/css"></style></defs><path d="M377.018182 484.072727h502.690909c13.963636 0 27.927273 13.963636 27.927273 27.927273 0 4.654545-4.654545 13.963636-9.309091 18.618182-4.654545 4.654545-13.963636 9.309091-18.618182 9.309091H377.018182l172.218182 162.909091c9.309091 9.309091 9.309091 27.927273 0 37.236363-9.309091 9.309091-27.927273 9.309091-37.236364 0l-204.8-200.145454c-9.309091-9.309091-13.963636-18.618182-13.963636-27.927273 0-13.963636 4.654545-18.618182 13.963636-27.927273L512 283.927273c9.309091-9.309091 27.927273-9.309091 37.236364 0 9.309091 13.963636 9.309091 27.927273-4.654546 41.890909l-167.563636 158.254545z m0 0" fill="#333333" p-id="12755"></path></svg>