<?xml version="1.0" standalone="no"?><!DOCTYPE svg PUBLIC "-//W3C//DTD SVG 1.1//EN" "http://www.w3.org/Graphics/SVG/1.1/DTD/svg11.dtd"><svg t="1538055854570" className="icon" style="" viewBox="0 0 1024 1024" version="1.1" xmlns="http://www.w3.org/2000/svg" p-id="1709" xmlns:xlink="http://www.w3.org/1999/xlink" width="200" height="200"><defs><style type="text/css"></style></defs><path d="M413.866667 315.733333c0 21.333333 12.8 42.666667 38.4 55.466667 21.333333 12.8 51.2 12.8 72.533333 0s38.4-34.133333 38.4-55.466667c0-34.133333-34.133333-64-72.533333-64-42.666667 0-76.8 29.866667-76.8 64" fill="#91BEE2" p-id="1710"></path><path d="M486.4 430.933333c-72.533333 0-128-51.2-128-110.933333-119.466667-17.066667-213.333333-51.2-277.333333-85.333333v622.933333c0 12.8 12.8 25.6 29.866666 25.6h746.666667c17.066667 0 29.866667-12.8 29.866667-25.6V230.4c-59.733333 29.866667-153.6 68.266667-273.066667 89.6 0 59.733333-55.466667 110.933333-128 110.933333z m34.133333 315.733334H230.4v-38.4h290.133333v38.4z m76.8-93.866667H230.4v-34.133333H597.333333v34.133333z m149.333334-98.133333H230.4v-38.4h516.266667v38.4zM861.866667 29.866667H110.933333c-12.8 0-29.866667 12.8-29.866666 25.6v123.733333c55.466667 29.866667 157.866667 76.8 285.866666 93.866667 21.333333-42.666667 64-72.533333 119.466667-72.533334 55.466667 0 98.133333 29.866667 119.466667 72.533334 136.533333-21.333333 234.666667-68.266667 285.866666-98.133334V55.466667c0-12.8-12.8-25.6-29.866666-25.6z m0 0" fill="#91BEE2" p-id="1711"></path></svg>