<?xml version="1.0" standalone="no"?><!DOCTYPE svg PUBLIC "-//W3C//DTD SVG 1.1//EN" "http://www.w3.org/Graphics/SVG/1.1/DTD/svg11.dtd"><svg t="1538044667254" className="icon" style="" viewBox="0 0 1024 1024" version="1.1" xmlns="http://www.w3.org/2000/svg" p-id="16410" xmlns:xlink="http://www.w3.org/1999/xlink" width="200" height="200"><defs><style type="text/css"></style></defs><path d="M550.4 85.333333c-25.6-25.6-64-25.6-93.866667 0L85.333333 439.466667c-12.8 12.8-12.8 34.133333-4.266666 46.933333 12.8 12.8 34.133333 17.066667 46.933333 4.266667l4.266667-4.266667V853.333333c0 17.066667 8.533333 34.133333 21.333333 46.933334 12.8 12.8 29.866667 21.333333 46.933333 21.333333h200.533334v-204.8c0-12.8 4.266667-25.6 12.8-34.133333 8.533333-8.533333 21.333333-12.8 34.133333-12.8h93.866667c12.8 0 25.6 4.266667 34.133333 12.8 8.533333 8.533333 12.8 21.333333 12.8 34.133333v204.8h204.8c17.066667 0 34.133333-8.533333 46.933333-21.333333 12.8-12.8 21.333333-29.866667 21.333334-46.933334v-362.666666c17.066667 12.8 38.4 12.8 51.2 0 4.266667-8.533333 8.533333-17.066667 8.533333-25.6 0-8.533333-4.266667-17.066667-12.8-25.6L550.4 85.333333z m0 0" fill="#91BEE2" p-id="16411"></path></svg>