<?xml version="1.0" standalone="no"?><!DOCTYPE svg PUBLIC "-//W3C//DTD SVG 1.1//EN" "http://www.w3.org/Graphics/SVG/1.1/DTD/svg11.dtd"><svg t="1538893678277" className="icon" style="" viewBox="0 0 1024 1024" version="1.1" xmlns="http://www.w3.org/2000/svg" p-id="1682" xmlns:xlink="http://www.w3.org/1999/xlink" width="200" height="200"><defs><style type="text/css"></style></defs><path d="M814.933333 72.533333H140.8c-25.6 0-46.933333 21.333333-46.933333 42.666667v256c0 25.6 21.333333 42.666667 46.933333 42.666667h221.866667c8.533333 0 12.8-4.266667 21.333333-8.533334l93.866667-89.6c4.266667-4.266667 12.8-4.266667 17.066666 0l93.866667 89.6c4.266667 4.266667 12.8 8.533333 21.333333 8.533334h209.066667c25.6 0 46.933333-21.333333 46.933333-42.666667v-256c-4.266667-21.333333-25.6-42.666667-51.2-42.666667zM230.4 264.533333c-17.066667 0-29.866667-12.8-29.866667-34.133333 0-17.066667 12.8-34.133333 29.866667-34.133333s34.133333 17.066667 34.133333 34.133333c0 21.333333-17.066667 34.133333-34.133333 34.133333z m251.733333 0c-17.066667 0-34.133333-17.066667-34.133333-34.133333s12.8-34.133333 34.133333-34.133333 34.133333 17.066667 34.133334 34.133333c0 21.333333-17.066667 34.133333-34.133334 34.133333z m251.733334 0c-17.066667 0-34.133333-17.066667-34.133334-34.133333s12.8-34.133333 34.133334-34.133333 34.133333 17.066667 34.133333 34.133333c0 21.333333-17.066667 34.133333-34.133333 34.133333z" fill="#91BEE2" p-id="1683"></path><path d="M456.533333 925.866667c-17.066667 0-29.866667-4.266667-34.133333-12.8-4.266667-8.533333-8.533333-21.333333-8.533333-38.4v-38.4-55.466667V725.333333v-42.666666c0-17.066667 0-25.6-4.266667-34.133334-4.266667-8.533333-8.533333-12.8-21.333333-12.8H328.533333c-12.8 0-25.6-4.266667-25.6-12.8-4.266667-8.533333 0-17.066667 8.533334-29.866666 8.533333-12.8 21.333333-25.6 34.133333-42.666667 12.8-17.066667 25.6-34.133333 42.666667-51.2 12.8-17.066667 29.866667-34.133333 42.666666-51.2 12.8-17.066667 25.6-29.866667 34.133334-42.666667 8.533333-12.8 17.066667-17.066667 25.6-17.066666 8.533333 0 17.066667 4.266667 29.866666 17.066666 8.533333 12.8 21.333333 25.6 34.133334 38.4 12.8 17.066667 25.6 29.866667 42.666666 46.933334 12.8 17.066667 29.866667 34.133333 42.666667 46.933333 12.8 17.066667 25.6 29.866667 38.4 42.666667 12.8 12.8 17.066667 25.6 12.8 34.133333-4.266667 8.533333-12.8 12.8-25.6 12.8H597.333333c-8.533333 0-17.066667 4.266667-21.333333 8.533333-4.266667 4.266667-4.266667 12.8-4.266667 25.6v230.4c0 4.266667-4.266667 8.533333-4.266666 17.066667l-12.8 12.8c-4.266667 4.266667-12.8 4.266667-21.333334 4.266667h-76.8z m0 0" fill="#91BEE2" p-id="1684"></path></svg>
