<?xml version="1.0" standalone="no"?><!DOCTYPE svg PUBLIC "-//W3C//DTD SVG 1.1//EN" "http://www.w3.org/Graphics/SVG/1.1/DTD/svg11.dtd"><svg t="1533014997323" class="icon" style="" viewBox="0 0 1024 1024" version="1.1" xmlns="http://www.w3.org/2000/svg" p-id="1069" xmlns:xlink="http://www.w3.org/1999/xlink" width="200" height="200"><defs><style type="text/css"></style></defs><path d="M365.714286 438.857143l292.571429 0 0-109.714286q0-60.571429-42.857143-103.428571t-103.428571-42.857143-103.428571 42.857143-42.857143 103.428571l0 109.714286zm475.428571 54.857143l0 329.142857q0 22.857143-16 38.857143t-38.857143 16l-548.571429 0q-22.857143 0-38.857143-16t-16-38.857143l0-329.142857q0-22.857143 16-38.857143t38.857143-16l18.285714 0 0-109.714286q0-105.142857 75.428571-180.571429t180.571429-75.428571 180.571429 75.428571 75.428571 180.571429l0 109.714286 18.285714 0q22.857143 0 38.857143 16t16 38.857143z" p-id="1070"></path></svg>