<?xml version="1.0" standalone="no"?><!DOCTYPE svg PUBLIC "-//W3C//DTD SVG 1.1//EN" "http://www.w3.org/Graphics/SVG/1.1/DTD/svg11.dtd"><svg t="1539848940032" class="icon" style="" viewBox="0 0 1024 1024" version="1.1" xmlns="http://www.w3.org/2000/svg" p-id="7131" xmlns:xlink="http://www.w3.org/1999/xlink" width="200" height="200"><defs><style type="text/css"></style></defs><path d="M883.2 140.8l-42.666667-42.666667c-17.066667-17.066667-46.933333-17.066667-64 0l-55.466666 55.466667 106.666666 110.933333 55.466667-55.466666c17.066667-17.066667 17.066667-46.933333 0-68.266667zM409.6 469.333333l106.666667 110.933334L810.666667 285.866667l-106.666667-110.933334L409.6 469.333333z m-85.333333 200.533334l170.666666-68.266667-106.666666-106.666667-64 174.933334z m0 0M128 307.2h93.866667V341.333333H128zM128 708.266667h93.866667v34.133333H128zM128 576h93.866667v34.133333H128zM128 439.466667h93.866667v34.133333H128z" fill="#91BEE2" p-id="7132"></path><path d="M785.066667 469.333333v388.266667c0 12.8-8.533333 21.333333-21.333334 21.333333H226.133333c-12.8 0-21.333333-8.533333-21.333333-21.333333v-115.2H149.333333v115.2c0 42.666667 38.4 81.066667 81.066667 81.066667h533.333333c42.666667 0 81.066667-34.133333 81.066667-81.066667V469.333333h-59.733333zM204.8 307.2V187.733333c0-12.8 8.533333-21.333333 21.333333-21.333333h320V110.933333H226.133333c-42.666667 0-81.066667 34.133333-81.066666 81.066667v115.2h59.733333z" fill="#91BEE2" p-id="7133"></path></svg>