<?xml version="1.0" standalone="no"?><!DOCTYPE svg PUBLIC "-//W3C//DTD SVG 1.1//EN" "http://www.w3.org/Graphics/SVG/1.1/DTD/svg11.dtd"><svg t="1539141146094" className="icon" style="" viewBox="0 0 1024 1024" version="1.1" xmlns="http://www.w3.org/2000/svg" p-id="10515" xmlns:xlink="http://www.w3.org/1999/xlink" width="200" height="200"><defs><style type="text/css"></style></defs><path d="M399.36 117.76C378.88 71.68 332.8 40.96 281.6 40.96s-97.28 30.72-117.76 76.8H46.08v97.28h122.88c15.36 40.96 61.44 76.8 112.64 76.8S378.88 256 399.36 215.04h568.32V117.76H399.36zM281.6 240.64C240.64 240.64 204.8 204.8 204.8 163.84s35.84-76.8 76.8-76.8c40.96 5.12 76.8 35.84 76.8 76.8s-35.84 76.8-76.8 76.8zM629.76 378.88c-51.2 0-97.28 30.72-117.76 76.8H46.08v97.28h471.04c20.48 46.08 61.44 76.8 117.76 76.8s97.28-30.72 117.76-76.8H972.8V455.68h-220.16c-25.6-46.08-71.68-76.8-122.88-76.8z m0 199.68c-40.96 0-76.8-35.84-76.8-76.8s35.84-76.8 76.8-76.8 76.8 35.84 76.8 76.8-35.84 76.8-76.8 76.8zM430.08 706.56c-56.32 0-102.4 35.84-117.76 87.04H46.08v97.28h276.48c20.48 40.96 61.44 66.56 112.64 66.56s92.16-25.6 112.64-66.56H972.8v-97.28h-414.72c-25.6-51.2-71.68-87.04-128-87.04z m0 204.8c-40.96 0-76.8-35.84-76.8-76.8s35.84-76.8 76.8-76.8c35.84 0 66.56 25.6 71.68 61.44v15.36c0 5.12 0 15.36-5.12 20.48-5.12 30.72-30.72 56.32-66.56 56.32z" fill="#333333" p-id="10516"></path></svg>