<?xml version="1.0" standalone="no"?><!DOCTYPE svg PUBLIC "-//W3C//DTD SVG 1.1//EN" "http://www.w3.org/Graphics/SVG/1.1/DTD/svg11.dtd"><svg t="1538898852811" className="icon" style="" viewBox="0 0 1024 1024" version="1.1" xmlns="http://www.w3.org/2000/svg" p-id="12114" xmlns:xlink="http://www.w3.org/1999/xlink" width="200" height="200"><defs><style type="text/css"></style></defs><path d="M694.044444 223.762963H329.955556c-37.925926 0-68.266667-26.548148-68.266667-60.681482V98.607407c0-34.133333 30.340741-60.681481 68.266667-60.681481h364.088888c37.925926 0 68.266667 26.548148 68.266667 60.681481v66.370371c0 32.237037-30.340741 58.785185-68.266667 58.785185zM329.955556 66.37037c-22.755556 0-39.822222 15.17037-39.822223 32.237037v66.370371c0 18.962963 18.962963 32.237037 39.822223 32.237037h364.088888c22.755556 0 39.822222-15.17037 39.822223-32.237037V98.607407c0-17.066667-18.962963-32.237037-39.822223-32.237037H329.955556z" fill="#666666" p-id="12115"></path><path d="M866.607407 986.074074H157.392593c-39.822222 0-72.059259-28.444444-72.05926-64.474074v-739.555556c0-17.066667 7.585185-34.133333 22.755556-45.511111 13.274074-11.377778 32.237037-18.962963 51.2-18.962963H246.518519v87.22963c0 20.859259 20.859259 36.02963 45.511111 36.02963h441.837037c24.651852 0 45.511111-17.066667 45.511111-36.02963V119.466667l13.274074-1.896297h85.333333c36.02963 3.792593 62.577778 32.237037 62.577778 62.577778v739.555556c-1.896296 37.925926-34.133333 66.37037-73.955556 66.37037zM157.392593 146.014815c-13.274074 0-24.651852 3.792593-32.237037 11.377778-7.585185 7.585185-11.377778 15.17037-11.377778 24.651851v739.555556c0 20.859259 20.859259 36.02963 45.511111 36.02963h709.214815c24.651852 0 45.511111-17.066667 45.511111-36.02963v-739.555556c0-17.066667-17.066667-34.133333-37.925926-36.029629h-68.266667v58.785185c0 36.02963-32.237037 64.474074-72.059259 64.474074H292.02963c-39.822222 0-72.059259-28.444444-72.05926-64.474074V146.014815H157.392593z" fill="#666666" p-id="12116"></path><path d="M644.740741 881.777778H396.325926c-15.17037 0-26.548148-11.377778-26.548148-24.651852 0-13.274074 11.377778-24.651852 26.548148-24.651852H644.740741c15.17037 0 26.548148 11.377778 26.548148 24.651852 0 13.274074-11.377778 24.651852-26.548148 24.651852zM720.592593 747.140741H318.577778c-15.17037 0-26.548148-11.377778-26.548148-24.651852s11.377778-22.755556 26.548148-24.651852H720.592593c15.17037 0 26.548148 11.377778 26.548148 24.651852s-13.274074 24.651852-26.548148 24.651852z" fill="#666666" p-id="12117"></path><path d="M392.533333 432.355556h96.711111v-96.711112c0-13.274074 9.481481-22.755556 22.755556-22.755555h1.896296c5.688889 0 11.377778 1.896296 15.170371 5.688889 3.792593 3.792593 5.688889 9.481481 5.688889 15.17037v96.711111h96.711111c5.688889 0 11.377778 1.896296 15.17037 5.688889 3.792593 3.792593 5.688889 9.481481 5.688889 15.170371v1.896296c0 13.274074-9.481481 22.755556-22.755556 22.755555h-96.711111v96.711111c0 11.377778-9.481481 22.755556-22.755555 22.755556h-1.896297c-5.688889 0-11.377778-1.896296-15.17037-5.688889-3.792593-3.792593-5.688889-9.481481-5.688889-15.17037v-96.711111h-96.711111c-5.688889 0-11.377778-1.896296-15.17037-5.688889-3.792593-3.792593-5.688889-9.481481-5.688889-15.170371V455.111111c0-13.274074 9.481481-22.755556 22.755555-22.755555z" fill="#248FF1" p-id="12118"></path></svg>