<?xml version="1.0" standalone="no"?><!DOCTYPE svg PUBLIC "-//W3C//DTD SVG 1.1//EN" "http://www.w3.org/Graphics/SVG/1.1/DTD/svg11.dtd"><svg t="1538899708231" className="icon" style="" viewBox="0 0 1024 1024" version="1.1" xmlns="http://www.w3.org/2000/svg" p-id="12877" xmlns:xlink="http://www.w3.org/1999/xlink" width="200" height="200"><defs><style type="text/css"></style></defs><path d="M512 1005.037037C240.82963 1005.037037 18.962963 783.17037 18.962963 512S240.82963 18.962963 512 18.962963s493.037037 221.866667 493.037037 493.037037-221.866667 493.037037-493.037037 493.037037z m0-957.62963C256 47.407407 47.407407 256 47.407407 512s208.592593 464.592593 464.592593 464.592593 464.592593-208.592593 464.592593-464.592593S768 47.407407 512 47.407407z" fill="#666666" p-id="12878"></path><path d="M504.414815 836.266667l-56.888889-85.333334h-130.844445c-45.511111 0-83.437037-37.925926-83.437037-83.437037V386.844444c0-32.237037 20.859259-62.577778 51.2-75.851851v-60.681482h426.666667v60.681482c28.444444 13.274074 47.407407 43.614815 47.407408 75.851851v142.222223l-18.962963-9.481482c-17.066667-7.585185-34.133333-11.377778-53.096297-11.377778-72.059259 0-130.844444 58.785185-130.844444 130.844445 0 7.585185 0 15.17037 1.896296 22.755555V667.496296c5.688889 22.755556 15.17037 43.614815 30.340741 58.785185l20.859259 22.755556h-51.2l-53.096296 87.22963zM310.992593 276.859259v53.096297l-9.481482 3.792592c-24.651852 7.585185-39.822222 28.444444-39.822222 53.096296v280.651852c0 30.340741 24.651852 56.888889 56.888889 56.888889h146.014815l41.718518 62.577778 41.718519-62.577778h5.688889c-9.481481-15.17037-15.17037-30.340741-20.85926-49.303704v-1.896296c0-1.896296-1.896296-3.792593-1.896296-5.688889-1.896296-9.481481-1.896296-18.962963-1.896296-28.444444 0-87.22963 70.162963-157.392593 157.392592-157.392593 15.17037 0 30.340741 1.896296 43.614815 5.688889v-100.503704c0-24.651852-15.17037-45.511111-37.925926-53.096296l-9.481481-3.792592v-53.096297H310.992593z" fill="#666666" p-id="12879"></path><path d="M477.866667 314.785185H512v309.096296h-34.133333zM822.992593 769.896296c-7.585185 0-15.17037-1.896296-22.755556-7.585185l-37.925926-30.340741c-20.859259 17.066667-45.511111 24.651852-72.059259 24.651852-64.474074 0-117.57037-53.096296-117.570371-117.57037 0-64.474074 53.096296-117.57037 117.570371-117.570371 64.474074 0 117.57037 53.096296 117.57037 117.570371 0 13.274074-1.896296 26.548148-7.585185 39.822222l43.614815 36.02963c5.688889 5.688889 9.481481 11.377778 11.377778 18.962963 1.896296 7.585185-1.896296 15.17037-5.688889 22.755555-5.688889 9.481481-17.066667 13.274074-26.548148 13.274074z m-60.681482-73.955555l54.992593 45.511111c3.792593 1.896296 9.481481 1.896296 11.377777 0v-3.792593l-60.681481-49.303703 3.792593-9.481482c5.688889-13.274074 9.481481-24.651852 9.481481-37.925926 0-49.303704-39.822222-91.022222-91.022222-91.022222-49.303704 0-91.022222 39.822222-91.022222 91.022222 0 49.303704 39.822222 91.022222 91.022222 91.022222 22.755556 0 45.511111-9.481481 62.577778-26.548148l9.481481-9.481481z" fill="#666666" p-id="12880"></path><path d="M690.251852 640.948148m-64.474074 0a64.474074 64.474074 0 1 0 128.948148 0 64.474074 64.474074 0 1 0-128.948148 0Z" fill="#248FF1" p-id="12881"></path></svg>