<?xml version="1.0" standalone="no"?><!DOCTYPE svg PUBLIC "-//W3C//DTD SVG 1.1//EN" "http://www.w3.org/Graphics/SVG/1.1/DTD/svg11.dtd"><svg t="1538899898327" className="icon" style="" viewBox="0 0 1024 1024" version="1.1" xmlns="http://www.w3.org/2000/svg" p-id="14361" xmlns:xlink="http://www.w3.org/1999/xlink" width="200" height="200"><defs><style type="text/css"></style></defs><path d="M479.762963 993.659259c-60.681481 0-119.466667-11.377778-174.459259-36.029629-53.096296-22.755556-100.503704-54.992593-142.222223-96.711111-41.718519-41.718519-73.955556-89.125926-96.711111-144.118519-22.755556-54.992593-36.02963-115.674074-36.029629-176.355556s11.377778-119.466667 36.029629-176.355555c22.755556-53.096296 54.992593-102.4 96.711111-144.118519 41.718519-41.718519 89.125926-73.955556 142.222223-96.711111 54.992593-22.755556 113.777778-36.02963 174.459259-36.029629h34.133333V512H929.185185v34.133333c-1.896296 119.466667-49.303704 231.348148-132.740741 314.785186-85.333333 85.333333-199.111111 132.740741-316.681481 132.74074z m0-876.088889c-56.888889 0-111.881481 11.377778-163.081482 34.133334-49.303704 20.859259-94.814815 51.2-134.637037 91.022222-37.925926 39.822222-68.266667 83.437037-91.022222 134.637037-22.755556 53.096296-32.237037 108.088889-32.237037 164.977778 0 56.888889 11.377778 111.881481 32.237037 164.977778 20.859259 51.2 51.2 96.711111 91.022222 134.637037 37.925926 39.822222 83.437037 70.162963 134.637037 91.022222 51.2 22.755556 106.192593 34.133333 163.081482 34.133333 111.881481 0 216.177778-43.614815 295.822222-121.362963 79.644444-79.644444 123.259259-183.940741 125.155556-295.822222v-5.688889H485.451852V117.57037h-5.688889z" fill="#666666" p-id="14362"></path><path d="M542.340741 45.511111V493.037037h438.044444v-5.688889C978.488889 242.725926 783.17037 45.511111 542.340741 45.511111z m0 0" fill="#248FF1" p-id="14363"></path></svg>