<?xml version="1.0" standalone="no"?><!DOCTYPE svg PUBLIC "-//W3C//DTD SVG 1.1//EN" "http://www.w3.org/Graphics/SVG/1.1/DTD/svg11.dtd"><svg t="1538899179887" className="icon" style="" viewBox="0 0 1024 1024" version="1.1" xmlns="http://www.w3.org/2000/svg" p-id="12499" xmlns:xlink="http://www.w3.org/1999/xlink" width="200" height="200"><defs><style type="text/css"></style></defs><path d="M290.133333 877.985185c-72.059259 0-140.325926-28.444444-142.222222-30.340741l15.17037-36.029629s94.814815 39.822222 170.666667 22.755555l9.481482 39.822223c-17.066667 1.896296-36.02963 3.792593-53.096297 3.792592zM445.62963 276.859259c94.814815 0 142.222222 43.614815 144.118518 45.511111l24.651852 24.651852v3.792593c0 98.607407-81.540741 225.659259-172.562963 225.659259s-172.562963-125.155556-172.562963-225.659259l28.444445-28.444445c1.896296-1.896296 47.407407-43.614815 146.014814-45.511111h1.896297m0-28.444444h-5.688889c-109.985185 1.896296-163.081481 51.2-164.977778 53.096296l-36.02963 36.02963v11.377778c0 111.881481 91.022222 254.103704 201.007408 254.103703 111.881481 0 201.007407-140.325926 201.007407-254.103703v-15.170371l-32.237037-32.237037c-1.896296-1.896296-56.888889-53.096296-163.081481-53.096296z" fill="#666666" p-id="12500"></path><path d="M432.355556 41.718519c85.333333 0 155.496296 36.02963 182.044444 53.096296v127.051852c-36.02963-18.962963-94.814815-37.925926-170.666667-37.925926H436.148148c-79.644444 1.896296-136.533333 20.859259-172.562963 39.822222V94.814815c53.096296-34.133333 108.088889-53.096296 168.770371-53.096296m0-28.444445c-60.681481 0-128.948148 17.066667-195.318519 66.37037v195.318519s64.474074-60.681481 201.007407-62.577778h5.688889c132.740741 0 199.111111 62.577778 199.111111 62.577778V79.644444S551.822222 13.274074 432.355556 13.274074zM242.725926 542.340741l176.355555 339.437037 24.651852 45.511111 26.548148-45.511111 70.162963-121.362963c15.17037 54.992593 39.822222 113.777778 83.437037 163.081481-45.511111 5.688889-96.711111 9.481481-151.703703 9.481482h-30.340741c-189.62963 0-288.237037-32.237037-337.540741-60.681482-24.651852-13.274074-41.718519-64.474074-34.133333-100.503703 32.237037-172.562963 130.844444-218.074074 172.562963-229.451852m15.17037-32.237037s-170.666667 15.17037-218.074074 256c-9.481481 43.614815 11.377778 109.985185 49.303704 130.844444 54.992593 30.340741 159.288889 64.474074 350.814815 64.474074h30.34074c89.125926 0 157.392593-7.585185 212.385186-17.066666-89.125926-72.059259-119.466667-182.044444-128.948148-263.585186l-108.088889 189.62963-187.733334-360.296296z" fill="#666666" p-id="12501"></path><path d="M883.674074 722.488889H815.407407v68.266667h-54.992592v-68.266667h-66.370371v-54.992593h66.370371v-66.37037H815.407407v66.37037h68.266667z" fill="#248FF1" p-id="12502"></path><path d="M675.081481 532.859259l117.570371 1.896297 117.57037 1.896296c7.585185 15.17037 20.859259 34.133333 47.407408 58.785185 1.896296 47.407407-1.896296 237.037037-168.770371 297.718519-164.977778-64.474074-164.977778-256-161.185185-303.407408 24.651852-22.755556 39.822222-41.718519 47.407407-56.888889m-18.962962-28.444444s0 24.651852-56.888889 72.059259c0 0-32.237037 269.274074 187.733333 347.022222C1008.82963 853.333333 986.074074 584.059259 986.074074 584.059259c-54.992593-49.303704-54.992593-73.955556-54.992593-73.955555l-138.429629-1.896297-136.533333-3.792592z" fill="#666666" p-id="12503"></path></svg>