<?xml version="1.0" standalone="no"?><!DOCTYPE svg PUBLIC "-//W3C//DTD SVG 1.1//EN" "http://www.w3.org/Graphics/SVG/1.1/DTD/svg11.dtd"><svg t="1538898583535" className="icon" style="" viewBox="0 0 1024 1024" version="1.1" xmlns="http://www.w3.org/2000/svg" p-id="11860" xmlns:xlink="http://www.w3.org/1999/xlink" width="200" height="200"><defs><style type="text/css"></style></defs><path d="M392.533333 961.422222H166.874074c-28.444444 0-51.2-22.755556-51.2-51.2v-96.711111h276.859259v147.911111zM612.503704 961.422222h244.622222c28.444444 0 51.2-22.755556 51.2-51.2v-96.711111H612.503704v147.911111z" fill="#248FF1" p-id="11861"></path><path d="M834.37037 986.074074H595.437037V743.348148c0-11.377778-3.792593-20.859259-11.377778-28.444444-7.585185-7.585185-17.066667-11.377778-26.548148-11.377778H455.111111c-9.481481 0-18.962963 3.792593-26.548148 11.377778-7.585185 7.585185-11.377778 17.066667-11.377778 28.444444V986.074074H193.422222c-22.755556 0-45.511111-9.481481-62.577778-26.548148-17.066667-17.066667-24.651852-39.822222-24.651851-62.577778V527.17037c-18.962963 7.585185-39.822222 1.896296-54.992593-13.274074-18.962963-20.859259-17.066667-53.096296 3.792593-72.059259l398.222222-381.155556c34.133333-30.340741 83.437037-30.340741 117.57037 0l398.222222 381.155556c9.481481 9.481481 15.17037 20.859259 17.066667 34.133333 0 13.274074-3.792593 26.548148-13.274074 36.02963-13.274074 15.17037-32.237037 18.962963-49.303704 15.17037v369.777778c0 22.755556-9.481481 45.511111-26.548148 62.577778-17.066667 17.066667-39.822222 26.548148-62.577778 26.548148z m-212.385185-28.444444H834.37037c15.17037 0 32.237037-5.688889 43.614815-17.066667 11.377778-11.377778 17.066667-26.548148 17.066667-41.718519V474.074074l22.755555 20.859259c11.377778 9.481481 24.651852 9.481481 34.133334 0 3.792593-3.792593 5.688889-11.377778 5.688889-17.066666 0-5.688889-3.792593-11.377778-7.585186-15.170371l-398.222222-381.155555c-22.755556-20.859259-56.888889-20.859259-79.644444 0l-398.222222 381.155555c-9.481481 9.481481-9.481481 22.755556-1.896297 32.237037s22.755556 9.481481 32.237037 1.896297L132.740741 468.385185v430.459259c0 15.17037 5.688889 32.237037 17.066666 41.718519 11.377778 11.377778 26.548148 17.066667 41.718519 17.066667h197.214815V743.348148c0-17.066667 7.585185-34.133333 18.962963-47.407407s28.444444-18.962963 47.407407-18.962963h100.503704c17.066667 0 34.133333 7.585185 47.407407 18.962963 11.377778 13.274074 18.962963 30.340741 18.962963 47.407407v214.281482z" fill="#666666" p-id="11862"></path></svg>
