<?xml version="1.0" standalone="no"?><!DOCTYPE svg PUBLIC "-//W3C//DTD SVG 1.1//EN" "http://www.w3.org/Graphics/SVG/1.1/DTD/svg11.dtd"><svg t="1539821189683" className="icon" style="" viewBox="0 0 1024 1024" version="1.1" xmlns="http://www.w3.org/2000/svg" p-id="6235" xmlns:xlink="http://www.w3.org/1999/xlink" width="200" height="200"><defs><style type="text/css"></style></defs><path d="M221.866667 170.666667C196.266667 170.666667 170.666667 196.266667 170.666667 221.866667s25.6 46.933333 51.2 46.933333 46.933333-21.333333 46.933333-46.933333c0-25.6-21.333333-51.2-46.933333-51.2zM221.866667 465.066667c-25.6 0-51.2 21.333333-51.2 46.933333 0 25.6 25.6 46.933333 51.2 46.933333s46.933333-21.333333 46.933333-46.933333c0-25.6-21.333333-46.933333-46.933333-46.933333zM221.866667 755.2c-25.6 0-51.2 25.6-51.2 51.2S196.266667 853.333333 221.866667 853.333333s46.933333-21.333333 46.933333-46.933333c0-29.866667-21.333333-51.2-46.933333-51.2zM853.333333 221.866667c0 25.6-12.8 46.933333-29.866666 46.933333H371.2c-17.066667 0-29.866667-21.333333-29.866667-46.933333 0-25.6 12.8-46.933333 29.866667-46.933334h452.266667c17.066667 0 29.866667 21.333333 29.866666 46.933334zM853.333333 512c0 25.6-12.8 46.933333-29.866666 46.933333H371.2c-17.066667 0-29.866667-21.333333-29.866667-46.933333 0-25.6 12.8-46.933333 29.866667-46.933333h452.266667c17.066667 0 29.866667 21.333333 29.866666 46.933333zM853.333333 802.133333c0 25.6-12.8 46.933333-29.866666 46.933334H371.2c-17.066667 0-29.866667-21.333333-29.866667-46.933334 0-25.6 12.8-46.933333 29.866667-46.933333h452.266667c17.066667 0 29.866667 21.333333 29.866666 46.933333z" fill="#999999" p-id="6236"></path></svg>