<?xml version="1.0" standalone="no"?><!DOCTYPE svg PUBLIC "-//W3C//DTD SVG 1.1//EN" "http://www.w3.org/Graphics/SVG/1.1/DTD/svg11.dtd"><svg t="1538904618157" className="icon" style="" viewBox="0 0 1024 1024" version="1.1" xmlns="http://www.w3.org/2000/svg" p-id="15358" xmlns:xlink="http://www.w3.org/1999/xlink" width="200" height="200"><defs><style type="text/css"></style></defs><path d="M115.674074 252.207407V98.607407c0-18.962963 15.17037-34.133333 34.133333-34.133333h388.740741V36.02963H151.703704c-36.02963 0-64.474074 28.444444-64.474074 62.577777v153.6h28.444444zM881.777778 491.140741v430.459259c0 18.962963-15.17037 34.133333-34.133334 34.133333H151.703704c-18.962963 0-34.133333-15.17037-34.133334-34.133333v-153.6H87.22963v153.6c0 34.133333 28.444444 62.577778 64.474074 62.577778h695.94074c36.02963 0 64.474074-28.444444 64.474075-62.577778V491.140741h-30.340741zM39.822222 252.207407h125.155556v30.340741H39.822222zM39.822222 415.288889h125.155556v30.340741H39.822222z" fill="#666666" p-id="15359"></path><path d="M39.822222 739.555556h125.155556v30.34074H39.822222zM39.822222 576.474074h125.155556V606.814815H39.822222z" fill="#666666" p-id="15360"></path><path d="M932.977778 153.6l-51.2-49.303704c-20.859259-20.859259-54.992593-20.859259-75.851852 0l-62.577778 60.681482 127.051852 121.362963 62.577778-60.681482c22.755556-18.962963 22.755556-53.096296 0-72.059259zM377.362963 517.688889l127.051852 121.362963 343.229629-328.059259L720.592593 189.62963 377.362963 517.688889zM274.962963 739.555556l202.903704-77.748149-125.155556-121.362963L274.962963 739.555556z m0 0" fill="#248FF1" p-id="15361"></path></svg>