<?xml version="1.0" standalone="no"?><!DOCTYPE svg PUBLIC "-//W3C//DTD SVG 1.1//EN" "http://www.w3.org/Graphics/SVG/1.1/DTD/svg11.dtd"><svg t="1538899765231" className="icon" style="" viewBox="0 0 1024 1024" version="1.1" xmlns="http://www.w3.org/2000/svg" p-id="13131" xmlns:xlink="http://www.w3.org/1999/xlink" width="200" height="200"><defs><style type="text/css"></style></defs><path d="M934.874074 307.2H658.014815c-17.066667 0-34.133333-7.585185-47.407408-20.859259-11.377778-13.274074-18.962963-30.340741-18.962963-49.303704V94.814815c0-18.962963 7.585185-36.02963 18.962963-49.303704 11.377778-13.274074 28.444444-20.859259 47.407408-20.859259h276.859259c17.066667 0 34.133333 7.585185 47.407407 20.859259 11.377778 13.274074 18.962963 30.340741 18.962963 49.303704v142.222222c-1.896296 37.925926-30.340741 70.162963-66.37037 70.162963zM658.014815 53.096296c-9.481481 0-18.962963 3.792593-26.548148 11.377778-7.585185 7.585185-11.377778 18.962963-11.377778 30.340741v142.222222c0 11.377778 3.792593 22.755556 11.377778 30.340741 7.585185 7.585185 15.17037 11.377778 26.548148 11.377778h276.859259c20.859259 0 37.925926-18.962963 37.925926-41.718519V94.814815c0-11.377778-3.792593-22.755556-11.377778-30.340741-7.585185-7.585185-15.17037-11.377778-26.548148-11.377778H658.014815zM938.666667 1001.244444h-853.333334c-34.133333 0-62.577778-30.340741-62.577777-66.37037v-125.155555c0-17.066667 5.688889-34.133333 17.066666-45.511112 11.377778-13.274074 28.444444-18.962963 43.614815-18.962963h851.437037c34.133333 0 62.577778 30.340741 62.577778 66.370371v125.155555c0 17.066667-5.688889 34.133333-17.066667 45.511111-9.481481 11.377778-26.548148 18.962963-41.718518 18.962963z m-853.333334-229.451851c-9.481481 0-17.066667 3.792593-22.755555 11.377777-5.688889 7.585185-9.481481 17.066667-9.481482 26.548149v125.155555c0 20.859259 15.17037 37.925926 34.133334 37.925926h851.437037c9.481481 0 17.066667-3.792593 22.755555-11.377778 5.688889-7.585185 9.481481-17.066667 9.481482-26.548148v-125.155555c0-20.859259-15.17037-37.925926-34.133334-37.925926H85.333333zM462.696296 646.637037H85.333333c-34.133333 0-60.681481-28.444444-60.681481-64.474074v-493.037037c0-17.066667 5.688889-32.237037 17.066667-45.511111 11.377778-11.377778 26.548148-18.962963 43.614814-18.962963h377.362963c17.066667 0 32.237037 7.585185 43.614815 18.962963 11.377778 11.377778 17.066667 28.444444 17.066667 45.511111v493.037037c0 36.02963-28.444444 64.474074-60.681482 64.474074zM85.333333 53.096296c-9.481481 0-17.066667 3.792593-22.755555 11.377778-7.585185 5.688889-9.481481 15.17037-9.481482 24.651852v493.037037c0 18.962963 15.17037 36.02963 32.237037 36.02963h377.362963c17.066667 0 32.237037-15.17037 32.237037-36.02963v-493.037037c0-9.481481-3.792593-18.962963-9.481481-26.548148-5.688889-5.688889-13.274074-9.481481-22.755556-9.481482H85.333333z" fill="#666666" p-id="13132"></path><path d="M648.533333 646.637037h297.718519c30.340741 0 54.992593-26.548148 54.992592-60.681481v-151.703704c0-15.17037-5.688889-30.340741-17.066666-41.718519-9.481481-11.377778-24.651852-17.066667-39.822222-17.066666H648.533333c-15.17037 0-28.444444 5.688889-39.822222 17.066666-9.481481 11.377778-17.066667 26.548148-17.066667 41.718519v151.703704c1.896296 34.133333 26.548148 60.681481 56.888889 60.681481z" fill="#248FF1" p-id="13133"></path></svg>