<?xml version="1.0" standalone="no"?><!DOCTYPE svg PUBLIC "-//W3C//DTD SVG 1.1//EN" "http://www.w3.org/Graphics/SVG/1.1/DTD/svg11.dtd"><svg t="1538898398115" className="icon" style="" viewBox="0 0 1024 1024" version="1.1" xmlns="http://www.w3.org/2000/svg" p-id="11734" xmlns:xlink="http://www.w3.org/1999/xlink" width="200" height="200"><defs><style type="text/css"></style></defs><path d="M424.77037 515.792593c-128.948148 0-233.244444-108.088889-233.244444-238.933334 0-132.740741 104.296296-238.933333 233.244444-238.933333 128.948148 0 233.244444 108.088889 233.244445 238.933333 0 132.740741-106.192593 238.933333-233.244445 238.933334z m0-449.422223c-113.777778 0-204.8 94.814815-204.8 212.385186 0 117.57037 91.022222 212.385185 204.8 212.385185 113.777778 0 204.8-94.814815 204.8-212.385185 0-117.57037-92.918519-212.385185-204.8-212.385186z" fill="#666666" p-id="11735"></path><path d="M419.081481 986.074074c-132.740741 0-292.02963-20.859259-350.814814-77.748148-15.17037-15.17037-22.755556-32.237037-22.755556-49.303704 0-153.6 81.540741-290.133333 208.592593-348.918518l5.688889-3.792593 15.17037 7.585185c43.614815 22.755556 94.814815 49.303704 147.911111 49.303704 49.303704 0 100.503704-17.066667 157.392593-54.992593l5.688889-3.792592 7.585185 3.792592c26.548148 11.377778 49.303704 26.548148 72.059259 45.511112l11.377778 9.481481-170.666667 176.355556c-3.792593 3.792593-5.688889 5.688889-5.688889 7.585185l-62.577778 221.866666V986.074074h-18.962963z m-159.288888-449.422222c-113.777778 56.888889-185.837037 182.044444-185.837037 322.37037 0 9.481481 5.688889 20.859259 15.17037 30.340741 41.718519 41.718519 172.562963 70.162963 324.266667 70.162963L474.074074 739.555556c1.896296-7.585185 7.585185-15.17037 13.274074-20.85926l149.807408-153.6c-15.17037-11.377778-30.340741-20.859259-47.407408-30.34074-58.785185 36.02963-111.881481 54.992593-164.977778 54.992592-60.681481 0-113.777778-28.444444-161.185185-53.096296h-3.792592z" fill="#666666" p-id="11736"></path><path d="M836.266667 620.088889l-36.02963-36.02963-49.303704-49.303703L530.962963 756.622222c-3.792593 1.896296-5.688889 5.688889-7.585185 9.481482L477.866667 929.185185c-1.896296 7.585185 0 15.17037 5.688889 18.962963 3.792593 3.792593 9.481481 5.688889 13.274074 5.688889h5.688889l157.392592-47.407407c3.792593-1.896296 7.585185-3.792593 9.481482-5.688889L891.259259 675.081481l-54.992592-54.992592z m-284.444445 276.859259l-18.962963-18.962963 24.651852-87.229629 11.377778 11.377777 53.096296 3.792593 1.896296 51.2 13.274075 13.274074-85.333334 26.548148zM771.792593 510.103704l138.429629 142.222222 32.237037-30.340741-138.429629-142.222222zM978.488889 508.207407l-66.37037-68.266666c-18.962963-18.962963-47.407407-18.962963-66.370371 0l-20.859259 20.859259 132.740741 136.533333 20.859259-20.859259c18.962963-18.962963 18.962963-49.303704 0-68.266667z" fill="#248FF1" p-id="11737"></path></svg>