<?xml version="1.0" standalone="no"?><!DOCTYPE svg PUBLIC "-//W3C//DTD SVG 1.1//EN" "http://www.w3.org/Graphics/SVG/1.1/DTD/svg11.dtd"><svg t="1538963141026" className="icon" style="" viewBox="0 0 1024 1024" version="1.1" xmlns="http://www.w3.org/2000/svg" p-id="4347" xmlns:xlink="http://www.w3.org/1999/xlink" width="200" height="200"><defs><style type="text/css"></style></defs><path d="M893.155556 972.8H130.844444c-24.651852 0-45.511111-18.962963-45.511111-43.614815V235.140741l20.85926 11.377778c60.681481 30.340741 157.392593 72.059259 278.755555 89.125925l11.377778 1.896297v11.377778c1.896296 58.785185 54.992593 108.088889 117.57037 108.088888 64.474074 0 115.674074-47.407407 117.570371-106.192592v-11.377778l11.377777-1.896296c121.362963-18.962963 216.177778-62.577778 274.962963-92.918519l20.85926-11.377778V929.185185c0 24.651852-20.859259 43.614815-45.511111 43.614815zM113.777778 280.651852V929.185185c0 7.585185 7.585185 15.17037 17.066666 15.170371h762.311112c9.481481 0 17.066667-5.688889 17.066666-15.170371V276.859259c-58.785185 30.340741-146.014815 64.474074-252.207407 83.437037-7.585185 70.162963-68.266667 121.362963-144.118519 121.362963-73.955556 0-136.533333-54.992593-146.014815-123.259259-106.192593-15.17037-193.422222-49.303704-254.103703-77.748148z" fill="#666666" p-id="4348"></path><path d="M625.777778 316.681481l-3.792593-9.481481c-18.962963-41.718519-60.681481-68.266667-109.985185-68.266667-49.303704 0-91.022222 26.548148-109.985185 68.266667l-3.792593 9.481481-11.377778-1.896296c-127.051852-18.962963-231.348148-66.37037-295.822222-100.503704l-7.585185-3.792592V68.266667c0-24.651852 20.859259-43.614815 45.511111-43.614815H891.259259c13.274074 0 24.651852 5.688889 34.133334 15.17037 7.585185 7.585185 11.377778 18.962963 11.377777 30.340741v136.533333l-5.688889 1.896297c-89.125926 53.096296-189.62963 89.125926-293.925925 106.192592l-11.377778 1.896296zM113.777778 193.422222c60.681481 32.237037 155.496296 73.955556 269.274074 92.918519 24.651852-45.511111 73.955556-75.851852 130.844444-75.851852 54.992593 0 104.296296 28.444444 128.948148 73.955555 117.57037-20.859259 208.592593-62.577778 267.377778-96.711111V68.266667c0-5.688889-1.896296-7.585185-3.792592-9.481482-3.792593-3.792593-7.585185-5.688889-13.274074-5.688889H130.844444c-9.481481 0-17.066667 5.688889-17.066666 15.170371v125.155555z" fill="#666666" p-id="4349"></path><path d="M438.044444 347.022222c0 26.548148 15.17037 51.2 37.925926 66.370371 22.755556 13.274074 53.096296 13.274074 75.851852 0 22.755556-13.274074 37.925926-37.925926 37.925926-66.370371 0-41.718519-34.133333-75.851852-75.851852-75.851852s-75.851852 34.133333-75.851852 75.851852" fill="#248FF1" p-id="4350"></path><path d="M741.451852 612.503704H257.896296c-9.481481 0-18.962963-7.585185-18.962963-18.962963 0-9.481481 7.585185-18.962963 18.962963-18.962963h483.555556c9.481481 0 18.962963 7.585185 18.962963 18.962963s-7.585185 18.962963-18.962963 18.962963zM616.296296 731.97037H257.896296c-9.481481 0-18.962963-7.585185-18.962963-18.962963 0-9.481481 7.585185-18.962963 18.962963-18.962963h358.4c9.481481 0 18.962963 7.585185 18.962963 18.962963s-9.481481 18.962963-18.962963 18.962963zM544.237037 851.437037H257.896296c-9.481481 0-18.962963-7.585185-18.962963-18.962963 0-9.481481 7.585185-18.962963 18.962963-18.962963h286.340741c9.481481 0 18.962963 7.585185 18.962963 18.962963s-9.481481 18.962963-18.962963 18.962963z" fill="#666666" p-id="4351"></path></svg>