<?xml version="1.0" standalone="no"?><!DOCTYPE svg PUBLIC "-//W3C//DTD SVG 1.1//EN" "http://www.w3.org/Graphics/SVG/1.1/DTD/svg11.dtd"><svg t="1538899911726" className="icon" style="" viewBox="0 0 1024 1024" version="1.1" xmlns="http://www.w3.org/2000/svg" p-id="14486" xmlns:xlink="http://www.w3.org/1999/xlink" width="200" height="200"><defs><style type="text/css"></style></defs><path d="M419.081481 506.311111c-130.844444 0-237.037037-106.192593-237.037037-237.037037S288.237037 32.237037 419.081481 32.237037s237.037037 106.192593 237.037038 237.037037S549.925926 506.311111 419.081481 506.311111z m0-447.525926C303.407407 58.785185 208.592593 153.6 208.592593 269.274074s94.814815 210.488889 210.488888 210.488889 210.488889-94.814815 210.488889-210.488889-94.814815-210.488889-210.488889-210.488889z" fill="#666666" p-id="14487"></path><path d="M409.6 980.385185c-153.6 0-305.303704-22.755556-369.777778-72.059259C18.962963 891.259259 7.585185 872.296296 7.585185 851.437037c0-153.6 89.125926-290.133333 225.659259-350.814815l5.688889-1.896296 15.170371 7.585185c49.303704 22.755556 104.296296 51.2 163.081481 51.2 54.992593 0 109.985185-17.066667 170.666667-54.992592l5.688889-3.792593 7.585185 3.792593c20.859259 9.481481 41.718519 20.859259 64.474074 36.029629l22.755556 15.170371-24.651852 7.585185c-77.748148 28.444444-128.948148 98.607407-128.948148 176.355555 0 87.22963 62.577778 163.081481 153.6 183.940741l54.992592 13.274074-54.992592 13.274074c-77.748148 20.859259-178.251852 32.237037-278.755556 32.237037z m-170.666667-451.318518c-123.259259 56.888889-204.8 182.044444-204.8 322.37037 0 11.377778 7.585185 22.755556 20.85926 34.133333 83.437037 64.474074 373.57037 85.333333 576.474074 47.407408-75.851852-36.02963-127.051852-109.985185-127.051852-195.318519 0-81.540741 49.303704-155.496296 123.259259-193.422222-11.377778-7.585185-20.859259-11.377778-32.237037-17.066667-62.577778 36.02963-121.362963 54.992593-180.148148 54.992593-64.474074 0-123.259259-28.444444-174.459259-53.096296h-1.896297z" fill="#666666" p-id="14488"></path><path d="M923.496296 737.659259c0 18.962963 15.17037 34.133333 32.237037 34.133334-5.688889 22.755556-15.17037 43.614815-26.548148 62.577777-13.274074-11.377778-34.133333-11.377778-47.407407 1.896297s-13.274074 32.237037-1.896297 45.511111c-18.962963 11.377778-39.822222 20.859259-62.577777 24.651852-1.896296-17.066667-17.066667-30.340741-34.133334-30.340741s-32.237037 13.274074-34.133333 30.340741c-22.755556-3.792593-43.614815-13.274074-60.681481-26.548149 11.377778-13.274074 9.481481-32.237037-1.896297-45.511111-13.274074-13.274074-32.237037-13.274074-45.511111-1.896296-13.274074-18.962963-20.859259-39.822222-26.548148-62.577778 17.066667-1.896296 30.340741-17.066667 30.340741-34.133333s-13.274074-32.237037-30.340741-34.133333c3.792593-22.755556 13.274074-43.614815 24.651852-62.577778 13.274074 11.377778 34.133333 11.377778 47.407407-1.896296s13.274074-34.133333 1.896297-47.407408c18.962963-13.274074 39.822222-22.755556 62.577777-26.548148 0 18.962963 15.17037 32.237037 34.133334 32.237037s34.133333-15.17037 34.133333-34.133333c22.755556 3.792593 45.511111 13.274074 64.474074 26.548148-13.274074 13.274074-13.274074 34.133333 0 47.407407s34.133333 13.274074 47.407407 0c13.274074 18.962963 20.859259 39.822222 26.548149 64.474074-20.859259 3.792593-34.133333 18.962963-34.133334 37.925926z m-140.325926-77.748148c-39.822222 0-73.955556 32.237037-73.955555 73.955556 0 39.822222 32.237037 73.955556 73.955555 73.955555 39.822222 0 73.955556-32.237037 73.955556-73.955555 0-39.822222-32.237037-73.955556-73.955556-73.955556z m0 0" fill="#248FF1" p-id="14489"></path></svg>