<?xml version="1.0" standalone="no"?><!DOCTYPE svg PUBLIC "-//W3C//DTD SVG 1.1//EN" "http://www.w3.org/Graphics/SVG/1.1/DTD/svg11.dtd"><svg t="1538899836088" className="icon" style="" viewBox="0 0 1024 1024" version="1.1" xmlns="http://www.w3.org/2000/svg" p-id="13501" xmlns:xlink="http://www.w3.org/1999/xlink" width="200" height="200"><defs><style type="text/css"></style></defs><path d="M741.451852 995.555556H284.444444v-134.637037h161.185186v-115.674075H138.42963c-43.614815 0-79.644444-36.02963-79.644445-81.54074V128.948148c0-45.511111 36.02963-81.540741 79.644445-81.540741h750.933333c43.614815 0 79.644444 36.02963 79.644444 81.540741v532.859259c0 45.511111-36.02963 81.540741-79.644444 81.540741H580.266667v115.674074h161.185185v136.533334zM312.888889 967.111111h402.014815v-79.644444h-161.185185v-170.666667h335.644444c28.444444 0 51.2-24.651852 51.2-54.992593V128.948148c0-30.340741-22.755556-54.992593-51.2-54.992592H138.42963C108.088889 75.851852 85.333333 98.607407 85.333333 128.948148v532.859259c0 30.340741 22.755556 54.992593 51.2 54.992593h335.644445v170.666667h-161.185185V967.111111z" fill="#666666" p-id="13502"></path><path d="M821.096296 584.059259h-155.496296V530.962963h-417.185185v-163.081482h-51.2v-163.081481h155.496296v163.081481h-51.2v108.088889h364.088889v-53.096296h155.496296zM534.755556 233.244444h286.34074v54.992593H534.755556z" fill="#248FF1" p-id="13503"></path></svg>