<?xml version="1.0" standalone="no"?><!DOCTYPE svg PUBLIC "-//W3C//DTD SVG 1.1//EN" "http://www.w3.org/Graphics/SVG/1.1/DTD/svg11.dtd"><svg t="1538899188327" className="icon" style="" viewBox="0 0 1024 1024" version="1.1" xmlns="http://www.w3.org/2000/svg" p-id="12751" xmlns:xlink="http://www.w3.org/1999/xlink" width="200" height="200"><defs><style type="text/css"></style></defs><path d="M739.555556 986.074074H282.548148v-134.637037h161.185185v-115.674074H136.533333c-20.859259 0-41.718519-9.481481-56.888889-24.651852-15.17037-17.066667-22.755556-37.925926-22.755555-58.785185V119.466667C56.888889 73.955556 92.918519 37.925926 136.533333 37.925926l750.933334 1.896296C931.081481 39.822222 967.111111 75.851852 967.111111 121.362963v532.859259c0 20.859259-7.585185 41.718519-22.755555 56.888889-15.17037 15.17037-34.133333 24.651852-56.888889 24.651852H580.266667v115.674074h161.185185L739.555556 986.074074z m-428.562963-28.444444h402.014814v-79.644445h-161.185185v-170.666666h335.644445c13.274074 0 26.548148-5.688889 36.029629-15.170371s15.17037-24.651852 15.170371-37.925926V121.362963c0-30.340741-22.755556-54.992593-51.2-54.992593H136.533333c-28.444444 0-51.2 24.651852-51.2 54.992593v532.859259c0 15.17037 5.688889 28.444444 15.170371 37.925926s22.755556 15.17037 36.029629 15.170371h335.644445v170.666666h-161.185185v79.644445z" fill="#666666" p-id="12752"></path><path d="M680.77037 481.659259c0 7.585185-5.688889 17.066667-13.274074 24.651852-94.814815 60.681481-210.488889 60.681481-295.822222 5.688889-5.688889-1.896296-7.585185-9.481481-9.481481-15.17037 5.688889-7.585185 9.481481-18.962963 9.481481-30.340741 0-13.274074-3.792593-24.651852-11.377778-34.133333v-43.614815l146.014815 58.785185c15.17037 5.688889 11.377778 5.688889 26.548148 0l149.807408-60.681482-1.896297 94.814815z" fill="#248FF1" p-id="12753"></path><path d="M762.311111 314.785185l-229.451852 92.918519c-15.17037 5.688889-11.377778 5.688889-26.548148 0L386.844444 360.296296l134.637037-62.577777c5.688889-1.896296 9.481481-11.377778 5.688889-17.066667-1.896296-7.585185-9.481481-9.481481-15.17037-7.585185l-159.288889 75.851852s-1.896296 0-1.896296 1.896296c-20.859259 18.962963-26.548148 49.303704-28.444445 81.540741 7.585185 5.688889 11.377778 15.17037 11.377778 24.651851s-3.792593 18.962963-11.377778 24.651852c3.792593 62.577778 9.481481 125.155556-37.925926 147.911111-13.274074-5.688889-20.859259-9.481481-37.925925-24.651851 32.237037-47.407407 43.614815-85.333333 47.407407-121.362963-7.585185-5.688889-13.274074-15.17037-13.274074-26.548149 0-13.274074 7.585185-22.755556 17.066667-28.444444 0-34.133333 1.896296-62.577778 26.548148-91.022222l-54.992593-22.755556c-15.17037-5.688889-15.17037-17.066667 0-22.755555l233.244445-92.918519c15.17037-5.688889 11.377778-5.688889 26.548148 0l231.348148 94.814815c15.17037 5.688889 15.17037 15.17037 1.896296 20.859259z" fill="#248FF1" p-id="12754"></path></svg>