<?xml version="1.0" standalone="no"?><!DOCTYPE svg PUBLIC "-//W3C//DTD SVG 1.1//EN" "http://www.w3.org/Graphics/SVG/1.1/DTD/svg11.dtd"><svg t="1539821883705" className="icon" style="" viewBox="0 0 1024 1024" version="1.1" xmlns="http://www.w3.org/2000/svg" p-id="6454" xmlns:xlink="http://www.w3.org/1999/xlink" width="200" height="200"><defs><style type="text/css"></style></defs><path d="M640 209.066667H349.866667c-46.933333 0-89.6 42.666667-89.6 93.866666v328.533334C260.266667 682.666667 298.666667 725.333333 349.866667 725.333333H640v25.6c0 38.4-29.866667 72.533333-68.266667 72.533334H217.6c-38.4 0-68.266667-29.866667-68.266667-72.533334V209.066667c0-38.4 29.866667-72.533333 68.266667-72.533334h354.133333c38.4 4.266667 68.266667 34.133333 68.266667 72.533334z m0 0" fill="#0A6ECB" p-id="6455"></path><path d="M366.933333 256h422.4c25.6 0 42.666667 21.333333 42.666667 46.933333v328.533334c0 25.6-21.333333 46.933333-42.666667 46.933333H366.933333c-25.6 0-42.666667-21.333333-42.666666-46.933333V302.933333c0-25.6 17.066667-46.933333 42.666666-46.933333z m0 0" fill="#0A6ECB" p-id="6456"></path></svg>
