<?xml version="1.0" standalone="no"?><!DOCTYPE svg PUBLIC "-//W3C//DTD SVG 1.1//EN" "http://www.w3.org/Graphics/SVG/1.1/DTD/svg11.dtd"><svg t="1538899160994" className="icon" style="" viewBox="0 0 1024 1024" version="1.1" xmlns="http://www.w3.org/2000/svg" p-id="12370" xmlns:xlink="http://www.w3.org/1999/xlink" width="200" height="200"><defs><style type="text/css"></style></defs><path d="M585.955556 91.022222h-32.237037v39.822222H512v32.237037h41.718519v41.718519h32.237037V163.081481H625.777778V130.844444h-39.822222V91.022222z" fill="#666666" p-id="12371"></path><path d="M642.844444 47.407407c47.407407 0 106.192593 47.407407 106.192593 104.296297v96.711111H390.637037V149.807407c0-54.992593 58.785185-104.296296 106.192593-104.296296h146.014814m0-26.548148h-146.014814c-60.681481 0-134.637037 58.785185-134.637037 132.740741v125.155555H777.481481V149.807407C777.481481 77.748148 703.525926 18.962963 642.844444 18.962963zM749.037037 331.851852C739.555556 398.222222 720.592593 453.214815 686.459259 493.037037c-15.17037 18.962963-34.133333 34.133333-54.992592 43.614815-1.896296-79.644444-36.02963-153.6-89.125926-204.8h206.696296m30.340741-28.444445H445.62963c92.918519 34.133333 159.288889 128.948148 159.288889 242.725926 0 9.481481 0 18.962963-1.896297 28.444445 39.822222-7.585185 77.748148-28.444444 106.192593-64.474074 34.133333-41.718519 64.474074-106.192593 70.162963-206.696297zM352.711111 365.985185c98.607407 0 180.148148 81.540741 180.148148 180.148148s-81.540741 180.148148-180.148148 180.148148-180.148148-81.540741-180.148148-180.148148 79.644444-180.148148 180.148148-180.148148m0-28.444444c-115.674074 0-208.592593 92.918519-208.592592 208.592592s92.918519 208.592593 208.592592 208.592593 208.592593-92.918519 208.592593-208.592593-92.918519-208.592593-208.592593-208.592592z" fill="#666666" p-id="12372"></path><path d="M352.711111 697.837037c-83.437037 0-151.703704-68.266667-151.703704-151.703704s68.266667-151.703704 151.703704-151.703703 151.703704 68.266667 151.703704 151.703703-68.266667 151.703704-151.703704 151.703704z" fill="#248FF1" p-id="12373"></path><path d="M623.881481 627.674074h3.792593c98.607407 13.274074 343.22963 92.918519 343.22963 204.8v18.962963c0 26.548148 1.896296 75.851852-17.066667 77.748148-58.785185 5.688889-164.977778 9.481481-307.2 9.481482-172.562963 0-369.777778-3.792593-464.592593-9.481482-9.481481 0-13.274074-13.274074-15.17037-37.925926l83.437037-91.022222c3.792593 1.896296 5.688889 1.896296 9.481482 3.792593 36.02963 18.962963 73.955556 28.444444 113.777777 28.444444 115.674074-1.896296 218.074074-85.333333 250.311111-204.8m-22.755555-30.340741c-20.859259 117.57037-115.674074 204.8-227.555556 204.8-36.02963 0-72.059259-9.481481-102.4-26.548148-9.481481-3.792593-18.962963-7.585185-26.548148-11.377778l-106.192592 115.674074c0 36.02963 7.585185 75.851852 43.614814 77.748149 92.918519 3.792593 288.237037 9.481481 466.488889 9.481481 127.051852 0 244.622222-1.896296 310.992593-9.481481 45.511111-3.792593 43.614815-66.37037 41.718518-106.192593V834.37037c0-138.42963-274.962963-219.97037-367.881481-233.244444-9.481481-3.792593-20.859259-3.792593-32.237037-3.792593z" fill="#666666" p-id="12374"></path><path d="M348.918519 430.459259c-41.718519-11.377778-85.333333 15.17037-96.711112 56.888889 0 3.792593 1.896296 5.688889 3.792593 7.585185 3.792593 0 5.688889-1.896296 7.585185-3.792592 9.481481-36.02963 47.407407-58.785185 83.437037-49.303704 3.792593 0 5.688889-1.896296 7.585185-3.792593 0-3.792593-1.896296-5.688889-5.688888-7.585185z m0 0" fill="#FFFFFF" p-id="12375"></path><path d="M149.807407 720.592593l26.548149 26.548148L72.059259 853.333333c-3.792593 0-11.377778-3.792593-18.962963-9.481481-7.585185-9.481481-9.481481-17.066667-9.481481-18.962963L149.807407 720.592593m1.896297-39.822223l-127.051852 123.25926c-13.274074 13.274074-9.481481 39.822222 9.481481 58.785185 11.377778 11.377778 26.548148 18.962963 37.925926 18.962963 7.585185 0 15.17037-1.896296 20.85926-7.585185l125.155555-127.051852L151.703704 680.77037z" fill="#666666" p-id="12376"></path></svg>