<?xml version="1.0" standalone="no"?><!DOCTYPE svg PUBLIC "-//W3C//DTD SVG 1.1//EN" "http://www.w3.org/Graphics/SVG/1.1/DTD/svg11.dtd"><svg t="1540967469228" class="icon" style="" viewBox="0 0 1024 1024" version="1.1" xmlns="http://www.w3.org/2000/svg" p-id="12417" xmlns:xlink="http://www.w3.org/1999/xlink" width="200" height="200"><defs><style type="text/css"></style></defs><path d="M948.148148 915.911111L877.985185 967.111111c-13.274074 13.274074-32.237037 13.274074-45.511111 0L542.340741 678.874074l83.437037-83.437037 322.37037 320.474074z" fill="#248FF1" p-id="12418"></path><path d="M851.437037 980.385185c-26.548148 0-53.096296-11.377778-73.955556-30.340741L538.548148 711.111111c-134.637037 58.785185-292.02963 30.340741-396.325926-73.955555C36.02963 530.962963 7.585185 369.777778 72.059259 233.244444l7.585185-17.066666 271.170371 271.17037 140.325926-140.325926L221.866667 75.851852l17.066666-9.481482C375.466667 1.896296 538.548148 30.340741 644.740741 136.533333c104.296296 104.296296 132.740741 261.688889 73.955555 394.42963L948.148148 758.518519c32.237037 32.237037 45.511111 81.540741 32.237037 127.051851-13.274074 47.407407-53.096296 81.540741-108.088889 92.918519-5.688889 1.896296-13.274074 1.896296-20.859259 1.896296z m-307.2-303.407407L798.340741 929.185185c18.962963 18.962963 45.511111 26.548148 70.162963 20.859259 43.614815-9.481481 75.851852-36.02963 87.229629-73.955555 9.481481-34.133333 0-72.059259-24.651852-98.607408l-246.518518-240.829629 3.792593-9.481482c58.785185-125.155556 34.133333-273.066667-64.474075-371.674074C530.962963 62.577778 390.637037 34.133333 267.377778 83.437037L530.962963 345.125926l-180.148148 180.148148L89.125926 263.585185c-49.303704 121.362963-20.859259 259.792593 72.059259 352.711111 98.607407 98.607407 248.414815 123.259259 373.570371 64.474074l9.481481-3.792592z" fill="#666666" p-id="12419"></path></svg>