<?xml version="1.0" standalone="no"?><!DOCTYPE svg PUBLIC "-//W3C//DTD SVG 1.1//EN" "http://www.w3.org/Graphics/SVG/1.1/DTD/svg11.dtd"><svg t="1540967225126" class="icon" style="" viewBox="0 0 1024 1024" version="1.1" xmlns="http://www.w3.org/2000/svg" p-id="12298" xmlns:xlink="http://www.w3.org/1999/xlink" width="200" height="200"><defs><style type="text/css"></style></defs><path d="M585.955556 986.074074l-1.896297-15.17037c-3.792593-39.822222-36.02963-70.162963-77.748148-70.162963-39.822222 0-72.059259 30.340741-77.748148 70.162963l-1.896296 15.17037-15.170371-3.792593c-60.681481-13.274074-117.57037-36.02963-168.77037-70.162962l-13.274074-7.585186 9.481481-11.377777c24.651852-30.340741 20.859259-73.955556-5.688889-102.4-24.651852-30.340741-68.266667-32.237037-98.607407-7.585186l-11.377778 9.481482-9.481481-13.274074c-34.133333-51.2-58.785185-109.985185-72.059259-170.666667l-3.792593-15.17037 15.17037-1.896297c39.822222-3.792593 70.162963-37.925926 70.162963-77.748148 0-39.822222-30.340741-73.955556-70.162963-77.748148l-15.17037 1.896296 1.896296-15.17037C53.096296 360.296296 75.851852 303.407407 109.985185 250.311111l9.481482-13.274074 11.377777 9.481482c30.340741 26.548148 77.748148 24.651852 106.192593-3.792593s30.340741-75.851852 1.896296-106.192593l-11.377777-11.377777 13.274074-9.481482c53.096296-36.02963 109.985185-60.681481 172.562963-73.955555l15.17037-3.792593v17.066667c1.896296 41.718519 36.02963 73.955556 77.748148 73.955555 41.718519 0 75.851852-34.133333 77.748148-75.851852v-17.066666l15.170371 3.792592c62.577778 11.377778 123.259259 36.02963 176.355555 72.059259l13.274074 9.481482-11.377778 11.377778c-30.340741 30.340741-30.340741 79.644444 0 109.985185 30.340741 30.340741 79.644444 30.340741 108.088889 0l11.377778-11.377778 9.481482 13.274074c36.02963 53.096296 60.681481 111.881481 72.059259 176.355556l3.792592 15.17037h-17.066666c-41.718519 0-75.851852 36.02963-75.851852 77.748148 0 41.718519 32.237037 75.851852 73.955556 77.748148h17.066666l-3.792592 15.170371c-13.274074 62.577778-37.925926 119.466667-73.955556 172.562963l-9.481481 13.274074-11.377778-9.481482c-30.340741-26.548148-77.748148-26.548148-106.192593 3.792593-28.444444 28.444444-30.340741 73.955556-3.792592 104.296296l9.481481 11.377778-13.274074 9.481482c-53.096296 34.133333-109.985185 58.785185-172.562963 70.162962l-9.481481 3.792593z m-77.748149-113.777778c49.303704 0 91.022222 34.133333 102.4 79.644445 49.303704-11.377778 94.814815-28.444444 136.533334-54.992593-24.651852-39.822222-18.962963-94.814815 15.17037-128.948148 36.02963-36.02963 91.022222-39.822222 130.844445-13.274074 26.548148-41.718519 47.407407-87.22963 58.785185-136.533333-49.303704-9.481481-85.333333-51.2-85.333334-102.4s37.925926-94.814815 85.333334-102.4c-11.377778-49.303704-30.340741-94.814815-56.888889-138.42963-41.718519 28.444444-98.607407 24.651852-134.637037-11.377778-36.02963-36.02963-39.822222-94.814815-11.377778-134.637037-43.614815-26.548148-89.125926-45.511111-138.42963-56.888889-9.481481 49.303704-51.2 87.22963-102.4 87.22963s-92.918519-36.02963-102.4-85.333333c-47.407407 11.377778-94.814815 30.340741-136.533333 58.785185 26.548148 41.718519 22.755556 96.711111-13.274074 132.74074-34.133333 34.133333-89.125926 39.822222-130.844444 15.170371C98.607407 322.37037 81.540741 369.777778 70.162963 417.185185c47.407407 7.585185 81.540741 49.303704 81.540741 98.607408s-32.237037 89.125926-79.644445 102.4c11.377778 47.407407 30.340741 92.918519 56.888889 134.637037 39.822222-22.755556 92.918519-17.066667 127.051852 17.066666 34.133333 34.133333 39.822222 85.333333 17.066667 127.051852 41.718519 26.548148 87.22963 45.511111 134.637037 56.888889 11.377778-47.407407 51.2-81.540741 100.503703-81.540741z" fill="#666666" p-id="12299"></path><path d="M510.103704 506.311111m-191.525926 0a191.525926 191.525926 0 1 0 383.051852 0 191.525926 191.525926 0 1 0-383.051852 0Z" fill="#248FF1" p-id="12300"></path></svg>