<?xml version="1.0" standalone="no"?><!DOCTYPE svg PUBLIC "-//W3C//DTD SVG 1.1//EN" "http://www.w3.org/Graphics/SVG/1.1/DTD/svg11.dtd"><svg t="1538898712327" className="icon" style="" viewBox="0 0 1024 1024" version="1.1" xmlns="http://www.w3.org/2000/svg" p-id="11985" xmlns:xlink="http://www.w3.org/1999/xlink" width="200" height="200"><defs><style type="text/css"></style></defs><path d="M568.888889 500.622222c-62.577778 0-117.57037-22.755556-161.185185-68.266666-43.614815-45.511111-66.37037-100.503704-66.370371-163.081482s22.755556-119.466667 66.370371-163.081481C453.214815 60.681481 506.311111 37.925926 568.888889 37.925926s117.57037 22.755556 161.185185 68.266667C773.688889 151.703704 796.444444 206.696296 796.444444 269.274074c0 64.474074-22.755556 119.466667-66.37037 163.081482-43.614815 45.511111-96.711111 68.266667-161.185185 68.266666z m0-434.251852c-54.992593 0-102.4 18.962963-142.222222 58.785186-39.822222 39.822222-58.785185 87.22963-58.785186 144.118518s18.962963 104.296296 58.785186 144.118519c39.822222 39.822222 85.333333 58.785185 142.222222 58.785185 54.992593 0 102.4-18.962963 142.222222-58.785185 39.822222-39.822222 58.785185-87.22963 58.785185-144.118519s-18.962963-104.296296-58.785185-144.118518C671.288889 85.333333 625.777778 66.37037 568.888889 66.37037zM337.540741 561.303704l-13.274074-5.688889c-22.755556-9.481481-47.407407-13.274074-70.162963-13.274074h-22.755556l9.481482-15.170371c7.585185-11.377778 17.066667-22.755556 26.548148-32.237037 18.962963-18.962963 43.614815-32.237037 68.266666-37.925926l17.066667-3.792592-5.688889 17.066666c-7.585185 18.962963-11.377778 43.614815-11.377778 68.266667v22.755556z m-68.266667-37.925926c17.066667 1.896296 34.133333 3.792593 51.2 9.481481 0-18.962963 1.896296-37.925926 7.585185-53.096296-15.17037 5.688889-30.340741 15.17037-43.614815 28.444444-7.585185 5.688889-11.377778 11.377778-15.17037 15.170371z" fill="#666666" p-id="11986"></path><path d="M805.925926 974.696296H383.051852l20.859259-22.755555c39.822222-45.511111 60.681481-104.296296 60.681482-166.874074 0-70.162963-26.548148-136.533333-75.851852-182.044445l-3.792593-3.792592v-58.785186c0-28.444444 5.688889-49.303704 17.066667-64.474074l9.481481-13.274074 11.377778 9.481482c43.614815 39.822222 94.814815 58.785185 149.807407 58.785185 54.992593 0 104.296296-18.962963 149.807408-58.785185l11.377778-9.481482 5.688889 11.377778c11.377778 15.17037 17.066667 36.02963 17.066666 64.474074v53.096296h-13.274074c-34.133333 0-62.577778 13.274074-87.229629 39.822223-24.651852 28.444444-36.02963 60.681481-36.02963 98.607407v58.785185l-3.792593 3.792593c-9.481481 9.481481-13.274074 18.962963-13.274074 32.237037s3.792593 22.755556 11.377778 32.237037c7.585185 7.585185 15.17037 11.377778 26.548148 11.377778 11.377778 0 18.962963-3.792593 26.548148-11.377778 7.585185-9.481481 11.377778-18.962963 11.377778-32.237037s-3.792593-24.651852-13.274074-32.237037l-3.792593-3.792593v-58.785185c0-24.651852 7.585185-45.511111 24.651852-62.577778 17.066667-18.962963 36.02963-26.548148 58.785185-26.548148 22.755556 0 41.718519 9.481481 58.785186 26.548148 15.17037 17.066667 24.651852 39.822222 24.651851 62.577778v58.785185l-3.792592 3.792593c-9.481481 9.481481-13.274074 18.962963-13.274074 32.237037s3.792593 22.755556 11.377778 32.237037c7.585185 7.585185 15.17037 11.377778 26.548148 11.377778s18.962963-3.792593 26.548148-11.377778c7.585185-9.481481 11.377778-18.962963 11.377778-32.237037s-3.792593-24.651852-13.274074-32.237037l-3.792593-3.792593v-58.785185c0-24.651852-5.688889-47.407407-17.066667-70.162963-11.377778-20.859259-26.548148-37.925926-45.511111-51.2l-11.377778-3.792592v-7.585186-26.548148-28.444444c0-5.688889 0-13.274074-1.896296-24.651852 0-9.481481-1.896296-18.962963-3.792592-26.548148l-5.688889-22.755556-7.585186-22.755555 26.548149 5.688889c26.548148 5.688889 51.2 20.859259 70.162963 39.822222s36.02963 41.718519 47.407407 66.37037c11.377778 24.651852 18.962963 51.2 26.548148 81.540741 7.585185 30.340741 11.377778 58.785185 13.274074 85.333333 1.896296 24.651852 3.792593 53.096296 3.792593 79.644445 0 51.2-15.17037 92.918519-43.614815 123.259259-30.340741 30.340741-70.162963 47.407407-115.674074 47.407407z m-364.088889-28.444444h364.088889c39.822222 0 70.162963-11.377778 94.814815-36.02963 22.755556-24.651852 36.02963-60.681481 36.029629-104.296296 0-26.548148-1.896296-53.096296-3.792592-77.748148-1.896296-24.651852-5.688889-51.2-13.274074-81.540741-5.688889-28.444444-15.17037-54.992593-24.651852-75.851852s-22.755556-39.822222-39.822222-56.888889c-9.481481-9.481481-20.859259-17.066667-34.133334-24.651852 1.896296 9.481481 3.792593 18.962963 3.792593 28.444445 0 11.377778 1.896296 18.962963 1.896296 24.651852V587.851852c20.859259 15.17037 36.02963 34.133333 49.303704 56.888889 13.274074 26.548148 20.859259 53.096296 20.859259 83.437037V777.481481c11.377778 13.274074 17.066667 30.340741 17.066667 47.407408 0 18.962963-5.688889 36.02963-18.962963 49.303704-13.274074 13.274074-28.444444 20.859259-47.407408 20.859259s-34.133333-7.585185-47.407407-20.859259c-13.274074-13.274074-18.962963-30.340741-18.962963-49.303704s5.688889-34.133333 17.066667-47.407408v-47.407407c0-17.066667-5.688889-32.237037-17.066667-43.614815-11.377778-11.377778-22.755556-18.962963-37.925926-18.962963s-26.548148 5.688889-37.925926 18.962963c-11.377778 13.274074-17.066667 26.548148-17.066666 43.614815V777.481481c11.377778 13.274074 17.066667 30.340741 17.066666 47.407408 0 18.962963-5.688889 36.02963-18.962963 49.303704-13.274074 13.274074-28.444444 20.859259-47.407407 20.859259s-34.133333-7.585185-47.407408-20.859259c-13.274074-13.274074-18.962963-30.340741-18.962963-49.303704s5.688889-34.133333 17.066667-47.407408v-47.407407c0-45.511111 15.17037-85.333333 43.614815-117.57037 26.548148-28.444444 56.888889-45.511111 94.814815-49.303704v-24.651852c0-13.274074-1.896296-24.651852-3.792593-34.133333-45.511111 36.02963-98.607407 54.992593-153.6 54.992592s-108.088889-18.962963-153.6-54.992592c-1.896296 9.481481-3.792593 20.859259-3.792592 34.133333v47.407408c51.2 51.2 79.644444 121.362963 79.644444 199.111111-1.896296 58.785185-18.962963 113.777778-51.2 161.185185z" fill="#666666" p-id="11987"></path><path d="M948.148148 804.02963z" fill="#318CCF" p-id="11988"></path><path d="M193.422222 667.496296c-1.896296 0-5.688889-1.896296-5.688889-5.688889l-26.548148-98.607407c-5.688889-20.859259 3.792593-43.614815 22.755556-49.303704 3.792593-1.896296 7.585185-1.896296 9.481481-1.896296 18.962963 0 34.133333 17.066667 34.133334 39.822222 0 3.792593 0 7.585185-1.896297 11.377778l-26.548148 98.607407c0 3.792593-1.896296 5.688889-5.688889 5.688889z m0-140.325926c-1.896296 0-3.792593 0-5.688889 1.896297-11.377778 3.792593-18.962963 18.962963-15.17037 30.34074l20.859259 77.748149 20.859259-77.748149c0-1.896296 1.896296-5.688889 1.896297-7.585185 0-13.274074-9.481481-24.651852-22.755556-24.651852z m0 0" fill="#248FF1" p-id="11989"></path><path d="M193.422222 669.392593c-22.755556 0-45.511111-5.688889-64.474074-17.066667-18.962963-11.377778-34.133333-26.548148-43.614815-43.614815-1.896296-3.792593 0-9.481481 5.688889-13.274074 5.688889-1.896296 11.377778 0 13.274074 3.792593 15.17037 30.340741 49.303704 49.303704 87.22963 49.303703s72.059259-18.962963 87.22963-49.303703c1.896296-3.792593 9.481481-7.585185 13.274074-3.792593 5.688889 1.896296 7.585185 7.585185 5.688889 13.274074-9.481481 17.066667-24.651852 32.237037-43.614815 43.614815-15.17037 11.377778-36.02963 17.066667-60.681482 17.066667z m0 0" fill="#248FF1" p-id="11990"></path><path d="M60.681481 809.718519c1.896296 0 3.792593-1.896296 5.688889-1.896297h117.570371v-136.533333c0-7.585185 3.792593-15.17037 9.481481-15.17037s9.481481 7.585185 9.481482 15.17037v136.533333h117.57037c1.896296 0 3.792593 0 5.688889 1.896297 26.548148-13.274074 47.407407-41.718519 47.407407-75.851852 0-45.511111-37.925926-83.437037-83.437037-83.437037H96.711111c-45.511111 0-83.437037 37.925926-83.437037 83.437037 1.896296 34.133333 20.859259 62.577778 47.407407 75.851852zM326.162963 826.785185c-1.896296 0-3.792593 1.896296-5.688889 1.896296h-117.57037v142.222223c0 7.585185-3.792593 15.17037-9.481482 15.17037h96.711111c45.511111 0 83.437037-37.925926 83.437037-83.437037 0-34.133333-18.962963-62.577778-47.407407-75.851852zM185.837037 970.903704v-142.222223H66.37037c-1.896296 0-3.792593 0-5.688889-1.896296-26.548148 13.274074-47.407407 41.718519-47.407407 75.851852 0 45.511111 37.925926 83.437037 83.437037 83.437037h96.711111c-3.792593 0-7.585185-7.585185-7.585185-15.17037z" fill="#248FF1" p-id="11991"></path></svg>