<?xml version="1.0" standalone="no"?><!DOCTYPE svg PUBLIC "-//W3C//DTD SVG 1.1//EN" "http://www.w3.org/Graphics/SVG/1.1/DTD/svg11.dtd"><svg t="1538899999630" className="icon" style="" viewBox="0 0 1024 1024" version="1.1" xmlns="http://www.w3.org/2000/svg" p-id="15118" xmlns:xlink="http://www.w3.org/1999/xlink" width="200" height="200"><defs><style type="text/css"></style></defs><path d="M731.97037 229.451852c-32.237037 0-58.785185-26.548148-58.785185-58.785185V81.540741c0-32.237037 26.548148-58.785185 58.785185-58.785185 32.237037 0 58.785185 26.548148 58.785186 58.785185V170.666667c0 32.237037-26.548148 58.785185-58.785186 58.785185z m0-176.355556c-17.066667 0-30.340741 13.274074-30.34074 30.340741V170.666667c0 17.066667 13.274074 30.340741 30.34074 30.34074s30.340741-13.274074 30.340741-30.34074V81.540741c0-15.17037-13.274074-28.444444-30.340741-28.444445zM512 229.451852c-32.237037 0-58.785185-26.548148-58.785185-58.785185V81.540741c0-32.237037 26.548148-58.785185 58.785185-58.785185 32.237037 0 58.785185 26.548148 58.785185 58.785185V170.666667c0 32.237037-26.548148 58.785185-58.785185 58.785185z m0-176.355556c-17.066667 0-30.340741 13.274074-30.340741 30.340741V170.666667c0 17.066667 13.274074 30.340741 30.340741 30.34074s30.340741-13.274074 30.340741-30.34074V81.540741c0-15.17037-13.274074-28.444444-30.340741-28.444445zM292.02963 229.451852c-32.237037 0-58.785185-26.548148-58.785186-58.785185V81.540741c0-32.237037 26.548148-58.785185 58.785186-58.785185s58.785185 26.548148 58.785185 58.785185V170.666667c-1.896296 32.237037-26.548148 58.785185-58.785185 58.785185z m0-176.355556c-17.066667 0-30.340741 13.274074-30.340741 30.340741V170.666667c0 17.066667 13.274074 30.340741 30.340741 30.34074S322.37037 187.733333 322.37037 170.666667V81.540741c-1.896296-15.17037-15.17037-28.444444-30.34074-28.444445z" fill="#666666" p-id="15119"></path><path d="M895.051852 1001.244444H128.948148c-32.237037 0-58.785185-26.548148-58.785185-58.785185V170.666667c0-32.237037 26.548148-58.785185 58.785185-58.785186h87.22963V170.666667c0 41.718519 34.133333 73.955556 73.955555 73.955555 41.718519 0 73.955556-34.133333 73.955556-73.955555V111.881481H436.148148V170.666667c0 41.718519 34.133333 73.955556 73.955556 73.955555 41.718519 0 73.955556-34.133333 73.955555-73.955555V111.881481h72.05926V170.666667c0 41.718519 34.133333 73.955556 73.955555 73.955555s73.955556-34.133333 73.955556-73.955555V111.881481H891.259259c32.237037 0 58.785185 26.548148 58.785185 58.785186v769.896296c3.792593 34.133333-22.755556 60.681481-54.992592 60.681481zM128.948148 140.325926c-15.17037 0-28.444444 15.17037-28.444444 30.340741v769.896296c0 17.066667 13.274074 30.340741 30.34074 30.340741h764.207408c17.066667 0 30.340741-13.274074 30.340741-30.340741V170.666667c0-17.066667-13.274074-30.340741-30.340741-30.340741H834.37037V170.666667c0 56.888889-45.511111 102.4-102.4 102.4S629.57037 227.555556 629.57037 170.666667V140.325926h-15.17037V170.666667c0 56.888889-45.511111 102.4-102.4 102.4-56.888889 0-102.4-45.511111-102.4-102.4V140.325926h-15.17037V170.666667c0 56.888889-45.511111 102.4-102.4 102.4-56.888889 0-102.4-45.511111-102.4-102.4V140.325926H128.948148z" fill="#666666" p-id="15120"></path><path d="M164.977778 403.911111v-3.792592c0-7.585185 5.688889-13.274074 13.274074-13.274075h462.696296c7.585185 0 13.274074 5.688889 13.274074 13.274075v3.792592c0 7.585185-5.688889 13.274074-13.274074 13.274074H178.251852c-7.585185 0-13.274074-5.688889-13.274074-13.274074zM227.555556 513.896296v-3.792592c0-7.585185 5.688889-13.274074 13.274074-13.274074h335.644444c7.585185 0 13.274074 5.688889 13.274074 13.274074v3.792592c0 7.585185-5.688889 13.274074-13.274074 13.274074H240.82963c-7.585185 0-13.274074-5.688889-13.274074-13.274074z" fill="#666666" p-id="15121"></path><path d="M616.296296 887.466667h-1.896296c-5.688889-1.896296-11.377778-5.688889-11.377778-13.274074L587.851852 678.874074 527.17037 796.444444c-3.792593 5.688889-9.481481 9.481481-15.17037 7.585186-5.688889-1.896296-11.377778-7.585185-11.377778-13.274074v-47.407408l-11.377778 15.170371c-1.896296 3.792593-7.585185 5.688889-11.377777 5.688888h-166.874074c-7.585185 0-15.17037-5.688889-15.170371-15.17037s5.688889-15.17037 15.170371-15.17037h159.288888l32.237038-51.2c3.792593-5.688889 9.481481-7.585185 15.17037-5.688889 5.688889 1.896296 9.481481 7.585185 9.481481 13.274074v36.029629l56.888889-109.985185c3.792593-5.688889 9.481481-9.481481 15.170371-7.585185 5.688889 1.896296 11.377778 5.688889 11.377777 13.274074l13.274074 183.940741 51.2-130.844445c1.896296-5.688889 9.481481-9.481481 15.170371-9.481481 7.585185 1.896296 11.377778 7.585185 11.377778 13.274074v115.674074l47.407407-85.333333c1.896296-3.792593 7.585185-7.585185 13.274074-7.585185 5.688889 0 9.481481 3.792593 13.274074 7.585185l15.170371 30.340741h64.474074c7.585185 0 15.17037 5.688889 15.17037 15.17037s-5.688889 15.17037-15.17037 15.17037h-73.955556c-5.688889 0-9.481481-3.792593-13.274074-7.585185l-5.688889-13.274074-60.681481 109.985185c-3.792593 5.688889-9.481481 7.585185-15.170371 7.585185-5.688889-1.896296-11.377778-7.585185-11.377778-13.274074v-94.814814l-47.407407 119.466666c0 5.688889-5.688889 9.481481-11.377778 9.481482z" fill="#248FF1" p-id="15122"></path></svg>