<?xml version="1.0" standalone="no"?><!DOCTYPE svg PUBLIC "-//W3C//DTD SVG 1.1//EN" "http://www.w3.org/Graphics/SVG/1.1/DTD/svg11.dtd"><svg t="1538904590573" className="icon" style="" viewBox="0 0 1024 1024" version="1.1" xmlns="http://www.w3.org/2000/svg" p-id="15239" xmlns:xlink="http://www.w3.org/1999/xlink" width="200" height="200"><defs><style type="text/css"></style></defs><path d="M500.622222 743.348148c0 18.962963 13.274074 30.340741 34.133334 30.340741h403.911111c20.859259 0 34.133333-11.377778 34.133333-30.340741s-13.274074-30.340741-34.133333-30.340741H532.859259c-18.962963 0-32.237037 13.274074-32.237037 30.340741z m0 0M500.622222 923.496296c0 18.962963 13.274074 30.340741 34.133334 30.340741h403.911111c20.859259 0 34.133333-11.377778 34.133333-30.340741s-13.274074-30.340741-34.133333-30.34074H532.859259c-18.962963 0-32.237037 11.377778-32.237037 30.34074z m0 0" fill="#248FF1" p-id="15240"></path><path d="M764.207407 576.474074c-49.303704-34.133333-104.296296-58.785185-164.977777-72.059259 96.711111-36.02963 166.874074-128.948148 166.874074-238.933334C766.103704 125.155556 650.42963 9.481481 510.103704 9.481481S254.103704 123.259259 254.103704 265.481481c0 106.192593 64.474074 195.318519 155.496296 235.140741-214.281481 39.822222-379.259259 221.866667-386.844444 441.837037 0 7.585185 7.585185 15.17037 15.17037 15.170371s15.17037-5.688889 15.17037-15.170371c7.585185-233.244444 202.903704-420.977778 441.837037-420.977778 92.918519 0 180.148148 28.444444 250.311111 77.748149 7.585185 5.688889 17.066667 3.792593 20.85926-3.792593 5.688889-5.688889 3.792593-15.17037-1.896297-18.962963zM280.651852 265.481481c0-125.155556 102.4-227.555556 229.451852-227.555555C635.259259 37.925926 739.555556 140.325926 739.555556 265.481481s-102.4 227.555556-229.451852 227.555556c-127.051852 0-229.451852-102.4-229.451852-227.555556z" fill="#666666" p-id="15241"></path></svg>