<?xml version="1.0" standalone="no"?><!DOCTYPE svg PUBLIC "-//W3C//DTD SVG 1.1//EN" "http://www.w3.org/Graphics/SVG/1.1/DTD/svg11.dtd"><svg t="1540809179436" class="icon" style="" viewBox="0 0 1024 1024" version="1.1" xmlns="http://www.w3.org/2000/svg" p-id="11176" xmlns:xlink="http://www.w3.org/1999/xlink" width="200" height="200"><defs><style type="text/css"></style></defs><path d="M742.4 704c-140.8-12.8-153.6-76.8-153.6-76.8v-64c83.2-32 108.8-153.6 108.8-153.6 0-51.2-25.6-51.2-25.6-51.2V275.2c6.4-134.4-76.8-102.4-76.8-102.4l-44.8-32c-32-25.6-96 6.4-96 6.4-76.8 0-102.4 57.6-102.4 57.6v147.2c-38.4 0-38.4 57.6-38.4 57.6 0 64 108.8 147.2 108.8 147.2 6.4 83.2-38.4 128-38.4 128s-76.8 0-160 25.6h-6.4c-83.2 25.6-102.4 102.4-102.4 102.4V896h768v-57.6c6.4-89.6-140.8-134.4-140.8-134.4z m-185.6 96L505.6 896l-51.2-96-12.8-51.2 25.6-102.4h83.2l19.2 102.4-12.8 51.2z m0 0" fill="#33CC00" p-id="11177"></path></svg>