<?xml version="1.0" standalone="no"?><!DOCTYPE svg PUBLIC "-//W3C//DTD SVG 1.1//EN" "http://www.w3.org/Graphics/SVG/1.1/DTD/svg11.dtd"><svg t="1539163356595" className="icon" style="" viewBox="0 0 1024 1024" version="1.1" xmlns="http://www.w3.org/2000/svg" p-id="4772" xmlns:xlink="http://www.w3.org/1999/xlink" width="200" height="200"><defs><style type="text/css"></style></defs><path d="M553.353846 415.507692c-35.446154 0-64.984615-11.815385-90.584615-37.415384-25.6-25.6-37.415385-55.138462-37.415385-90.584616 0-35.446154 11.815385-66.953846 37.415385-90.584615 23.630769-27.569231 55.138462-39.384615 90.584615-39.384615 35.446154 0 64.984615 11.815385 90.584616 37.415384 25.6 25.6 37.415385 55.138462 37.415384 90.584616 0 35.446154-11.815385 66.953846-37.415384 90.584615-25.6 27.569231-55.138462 39.384615-90.584616 39.384615z m0-238.276923c-29.538462 0-55.138462 9.846154-76.8 31.507693s-31.507692 47.261538-31.507692 76.8 9.846154 55.138462 31.507692 76.8 45.292308 31.507692 76.8 31.507692c29.538462 0 55.138462-9.846154 76.8-31.507692s31.507692-47.261538 31.507692-76.8-9.846154-55.138462-31.507692-76.8S582.892308 177.230769 553.353846 177.230769zM427.323077 448.984615l-9.846154-3.938461c-11.815385-3.938462-25.6-7.876923-37.415385-7.876923v-5.907693 5.907693l-15.753846 1.969231 7.876923-11.815385c3.938462-5.907692 9.846154-11.815385 15.753847-17.723077 11.815385-11.815385 23.630769-17.723077 39.384615-21.661538l13.784615-3.938462-7.876923 13.784615c-3.938462 9.846154-5.907692 23.630769-5.907692 37.415385v13.784615z m-35.446154-25.6c7.876923 0 13.784615 1.969231 21.661539 3.938462 0-7.876923 1.969231-15.753846 1.96923-21.661539-7.876923 3.938462-13.784615 7.876923-19.692307 13.784616 0 1.969231-1.969231 3.938462-3.938462 3.938461z" fill="#666666" p-id="4773"></path><path d="M681.353846 675.446154h-236.307692l13.784615-15.753846c21.661538-23.630769 33.476923-55.138462 33.476923-90.584616 0-37.415385-15.753846-74.830769-41.353846-98.461538l-3.938461-1.969231V433.230769c0-15.753846 3.938462-27.569231 9.846153-35.446154l5.907693-7.876923 7.876923 7.876923c23.630769 21.661538 51.2 31.507692 80.738461 31.507693 29.538462 0 57.107692-9.846154 80.738462-31.507693l7.876923-7.876923 5.907692 7.876923c5.907692 7.876923 9.846154 19.692308 9.846154 35.446154v31.507693h-9.846154c-17.723077 0-33.476923 7.876923-45.292307 21.661538-13.784615 13.784615-19.692308 31.507692-19.692308 53.169231v33.476923l-1.969231 1.969231c-3.938462 3.938462-7.876923 9.846154-7.876923 15.753846 0 5.907692 1.969231 11.815385 5.907692 15.753846 7.876923 7.876923 17.723077 7.876923 25.6 0 3.938462-3.938462 5.907692-9.846154 5.907693-15.753846 0-5.907692-1.969231-11.815385-5.907693-15.753846l-1.96923-1.969231v-33.476923c0-13.784615 3.938462-25.6 13.784615-35.446154 19.692308-21.661538 49.230769-21.661538 66.953846 0 9.846154 9.846154 13.784615 21.661538 13.784616 35.446154v33.476923l-1.969231 1.969231c-3.938462 3.938462-5.907692 9.846154-5.907693 15.753846 0 5.907692 1.969231 11.815385 5.907693 15.753846 7.876923 7.876923 17.723077 7.876923 25.6 0 3.938462-3.938462 5.907692-9.846154 5.907692-15.753846 0-5.907692-1.969231-11.815385-5.907692-15.753846l-1.969231-1.969231v-33.476923c0-13.784615-3.938462-25.6-9.846154-37.415385-5.907692-11.815385-13.784615-19.692308-23.630769-27.569231l-7.876923-1.96923v-19.692308-15.753846-13.784616c0-5.907692 0-9.846154-1.969231-13.784615 0-3.938462-1.969231-7.876923-3.938461-11.815385l-5.907693-17.723077 17.723077 3.938462c15.753846 3.938462 27.569231 11.815385 39.384616 21.661538 11.815385 9.846154 19.692308 23.630769 25.6 37.415385 5.907692 13.784615 11.815385 27.569231 13.784615 45.292308 3.938462 15.753846 5.907692 31.507692 7.876923 47.261538 1.969231 13.784615 1.969231 29.538462 1.969231 43.323077 0 29.538462-7.876923 53.169231-23.630769 68.923077-15.753846 17.723077-37.415385 27.569231-64.984616 27.569231z m-194.953846-19.692308h194.953846c21.661538 0 37.415385-5.907692 49.230769-19.692308 11.815385-13.784615 19.692308-31.507692 19.692308-55.138461 0-13.784615 0-29.538462-1.969231-41.353846-1.969231-13.784615-3.938462-27.569231-7.876923-43.323077-3.938462-15.753846-7.876923-29.538462-13.784615-41.353846-5.907692-11.815385-11.815385-21.661538-21.661539-31.507693-3.938462-3.938462-9.846154-7.876923-13.784615-9.846153 0 3.938462 1.969231 7.876923 1.969231 11.815384v37.415385c11.815385 7.876923 19.692308 17.723077 25.6 31.507692 7.876923 13.784615 11.815385 29.538462 11.815384 47.261539v25.6c5.907692 7.876923 9.846154 15.753846 9.846154 27.56923 0 11.815385-3.938462 21.661538-9.846154 29.538462-13.784615 15.753846-39.384615 15.753846-55.138461 0-7.876923-7.876923-9.846154-17.723077-9.846154-29.538462 0-9.846154 3.938462-19.692308 9.846154-27.56923v-25.6c0-9.846154-1.969231-15.753846-7.876923-23.63077-11.815385-11.815385-27.569231-11.815385-39.384616 0-5.907692 5.907692-7.876923 13.784615-7.876923 23.63077v25.6c5.907692 7.876923 9.846154 15.753846 9.846154 27.56923 0 11.815385-3.938462 21.661538-9.846154 29.538462-13.784615 15.753846-39.384615 15.753846-55.138461 0-9.846154-11.815385-13.784615-21.661538-13.784616-33.476923 0-9.846154 3.938462-19.692308 9.846154-27.569231v-25.6c0-25.6 7.876923-47.261538 25.6-66.953846 13.784615-15.753846 31.507692-25.6 51.2-27.569231V433.230769c0-5.907692 0-9.846154-1.969231-13.784615-25.6 19.692308-53.169231 27.569231-82.707692 27.569231s-59.076923-9.846154-82.707692-27.569231c0 3.938462-1.969231 9.846154-1.969231 13.784615v25.6c27.569231 27.569231 43.323077 66.953846 43.323077 110.276923 0 31.507692-9.846154 61.046154-25.6 86.646154z" fill="#666666" p-id="4774"></path><path d="M760.123077 580.923077z" fill="#318CCF" p-id="4775"></path><path d="M346.584615 504.123077c-1.969231 0-1.969231-1.969231-3.938461-1.969231l-15.753846-55.138461c-3.938462-11.815385 1.969231-23.630769 11.815384-27.569231h5.907693c9.846154 0 19.692308 9.846154 19.692307 21.661538v5.907693l-15.753846 55.138461c1.969231 1.969231 0 1.969231-1.969231 1.969231z m0-76.8h-3.938461c-5.907692 1.969231-9.846154 9.846154-7.876923 17.723077l11.815384 41.353846 11.815385-41.353846v-3.938462c0-7.876923-3.938462-13.784615-11.815385-13.784615z m0 0" fill="#248FF1" p-id="4776"></path><path d="M346.584615 506.092308c-11.815385 0-25.6-3.938462-35.446153-9.846154s-17.723077-13.784615-23.63077-23.630769c-1.969231-1.969231 0-5.907692 1.969231-5.907693 1.969231-1.969231 5.907692 0 7.876923 1.969231 7.876923 15.753846 27.569231 27.569231 47.261539 27.569231s39.384615-9.846154 47.261538-27.569231c1.969231-1.969231 3.938462-3.938462 7.876923-1.969231 1.969231 1.969231 3.938462 3.938462 1.969231 5.907693-5.907692 9.846154-13.784615 17.723077-23.630769 23.630769-5.907692 5.907692-17.723077 9.846154-31.507693 9.846154z m0 0" fill="#248FF1" p-id="4777"></path><path d="M273.723077 582.892308h68.923077v-74.83077c0-3.938462 1.969231-7.876923 5.907692-7.876923 1.969231 0 5.907692 3.938462 5.907692 7.876923v74.83077h68.923077c15.753846-7.876923 25.6-23.630769 25.6-41.353846 0-25.6-19.692308-45.292308-45.292307-45.292308h-106.338462c-25.6 0-45.292308 19.692308-45.292308 45.292308-3.938462 17.723077 7.876923 33.476923 21.661539 41.353846zM419.446154 592.738462h-68.923077v78.76923c0 3.938462-1.969231 7.876923-5.907692 7.876923h53.16923c25.6 0 45.292308-19.692308 45.292308-45.292307 1.969231-17.723077-7.876923-33.476923-23.630769-41.353846z" fill="#248FF1" p-id="4778"></path><path d="M342.646154 671.507692v-78.76923h-68.923077c-15.753846 7.876923-25.6 23.630769-25.6 41.353846 0 25.6 19.692308 45.292308 45.292308 45.292307h53.16923c-1.969231 0-3.938462-3.938462-3.938461-7.876923zM39.384615 742.4h228.43077l78.76923 74.830769 311.138462 1.969231 74.830769-76.8 230.4 1.969231-39.384615 135.876923H80.738462z" fill="#248FF1" p-id="4779"></path><path d="M756.184615 13.784615h-512l-214.646153 728.615385 78.76923 256h783.753846l82.707693-254.030769L756.184615 13.784615z m-496.246153 19.692308h484.430769l208.738461 699.076923H726.646154l-74.830769 76.8H348.553846L275.692308 732.553846H53.169231L259.938462 33.476923z m618.338461 945.230769H122.092308L53.169231 750.276923h214.646154l74.830769 76.8h319.015384l74.83077-76.8h216.615384l-74.830769 228.430769z" fill="#666666" p-id="4780"></path></svg>