<?xml version="1.0" standalone="no"?><!DOCTYPE svg PUBLIC "-//W3C//DTD SVG 1.1//EN" "http://www.w3.org/Graphics/SVG/1.1/DTD/svg11.dtd"><svg t="1539163368585" className="icon" style="" viewBox="0 0 1024 1024" version="1.1" xmlns="http://www.w3.org/2000/svg" p-id="5004" xmlns:xlink="http://www.w3.org/1999/xlink" width="200" height="200"><defs><style type="text/css"></style></defs><path d="M510.030769 716.8c-145.723077 0-265.846154-120.123077-265.846154-265.846154S364.307692 185.107692 510.030769 185.107692s265.846154 120.123077 265.846154 265.846154c0 147.692308-120.123077 265.846154-265.846154 265.846154z m0-512c-135.876923 0-246.153846 110.276923-246.153846 246.153846S374.153846 697.107692 510.030769 697.107692s246.153846-110.276923 246.153846-246.153846-110.276923-246.153846-246.153846-246.153846z" fill="#666666" p-id="5005"></path><path d="M504.123077 630.153846L472.615385 580.923077h-68.923077c-25.6 0-47.261538-21.661538-47.261539-47.261539v-149.661538c0-17.723077 9.846154-35.446154 27.569231-43.323077v-33.476923h232.369231v33.476923c15.753846 7.876923 25.6 23.630769 25.6 41.353846v78.769231l-11.815385-1.969231c-7.876923-3.938462-17.723077-5.907692-27.569231-5.907692-37.415385 0-66.953846 29.538462-66.953846 66.953846 0 3.938462 0 7.876923 1.969231 11.815385v1.96923c3.938462 13.784615 7.876923 23.630769 15.753846 31.507693l15.753846 15.753846h-31.507692L504.123077 630.153846z m-100.430769-301.292308v27.569231l-7.876923 1.969231c-11.815385 3.938462-19.692308 13.784615-19.692308 25.6v149.661538c0 15.753846 11.815385 27.569231 27.569231 27.569231h78.76923l21.661539 31.507693 21.661538-31.507693c-3.938462-7.876923-7.876923-15.753846-7.876923-23.630769v-3.938462c0-5.907692-1.969231-9.846154-1.96923-15.753846 0-47.261538 39.384615-86.646154 86.646153-86.646154 7.876923 0 13.784615 0 21.661539 1.969231v-51.2c0-11.815385-7.876923-21.661538-19.692308-25.6l-5.907692-1.969231v-27.56923h-194.953846z" fill="#666666" p-id="5006"></path><path d="M490.338462 346.584615h17.723076V512h-17.723076zM675.446154 588.8c-3.938462 0-7.876923-1.969231-11.815385-3.938462l-19.692307-15.753846c-11.815385 7.876923-25.6 13.784615-39.384616 13.784616-35.446154 0-63.015385-27.569231-63.015384-63.015385 0-35.446154 27.569231-63.015385 63.015384-63.015385s63.015385 27.569231 63.015385 63.015385c0 7.876923-1.969231 13.784615-3.938462 21.661539l23.630769 19.692307c7.876923 5.907692 7.876923 15.753846 1.969231 21.661539-1.969231 3.938462-7.876923 5.907692-13.784615 5.907692z m-33.476923-39.384615l29.538461 23.630769c1.969231 1.969231 3.938462 0 5.907693 0l3.938461-7.876923-3.938461 5.907692-33.476923-25.6 1.96923-5.907692c3.938462-5.907692 3.938462-13.784615 3.938462-19.692308 0-27.569231-21.661538-47.261538-47.261539-47.261538-25.6 0-47.261538 21.661538-47.261538 47.261538 0 27.569231 21.661538 47.261538 47.261538 47.261539 11.815385 0 23.630769-3.938462 33.476923-13.784616l5.907693-3.938461z" fill="#666666" p-id="5007"></path><path d="M604.553846 519.876923m-35.446154 0a35.446154 35.446154 0 1 0 70.892308 0 35.446154 35.446154 0 1 0-70.892308 0Z" fill="#248FF1" p-id="5008"></path><path d="M47.261538 748.307692H275.692308l76.8 74.83077 313.107692 1.96923 72.861538-76.8 232.369231 1.969231-39.384615 135.876923H88.615385z" fill="#248FF1" p-id="5009"></path><path d="M764.061538 19.692308h-512L37.415385 748.307692l78.76923 256h783.753847l82.707692-254.030769L764.061538 19.692308zM265.846154 39.384615h484.430769l208.738462 699.076923H734.523077l-74.830769 76.8H356.430769l-74.830769-76.8H59.076923L265.846154 39.384615zM886.153846 984.615385H129.969231L59.076923 758.153846h214.646154l74.830769 76.8h319.015385l74.830769-76.8h216.615385L886.153846 984.615385z" fill="#666666" p-id="5010"></path></svg>