<?xml version="1.0" standalone="no"?><!DOCTYPE svg PUBLIC "-//W3C//DTD SVG 1.1//EN" "http://www.w3.org/Graphics/SVG/1.1/DTD/svg11.dtd"><svg t="1539163414282" className="icon" style="" viewBox="0 0 1024 1024" version="1.1" xmlns="http://www.w3.org/2000/svg" p-id="5237" xmlns:xlink="http://www.w3.org/1999/xlink" width="200" height="200"><defs><style type="text/css"></style></defs><path d="M316.681481 515.792593c0 49.303704 39.822222 89.125926 89.125926 89.125926h79.644445v-91.022223L398.222222 426.666667c-45.511111 3.792593-81.540741 41.718519-81.540741 89.125926zM483.555556 426.666667h-45.511112l45.511112 47.407407z" fill="#248FF1" p-id="5238"></path><path d="M512 37.925926C250.311111 37.925926 37.925926 250.311111 37.925926 512s212.385185 474.074074 474.074074 474.074074 474.074074-212.385185 474.074074-474.074074S773.688889 37.925926 512 37.925926z m0 921.6C265.481481 959.525926 64.474074 758.518519 64.474074 512c0-115.674074 43.614815-221.866667 115.674074-301.511111l185.837037 185.837037c-51.2 15.17037-87.22963 62.577778-87.229629 117.57037 0 68.266667 54.992593 123.259259 123.259259 123.25926H606.814815l202.903704 202.903703c-75.851852 75.851852-182.044444 119.466667-297.718519 119.466667z m-79.644444-538.548148H493.037037v60.681481l-9.481481-7.585185-47.407408-47.407407-3.792592-5.688889z m51.2 92.918518l7.585185 7.585185v89.125926h-89.125926c-53.096296 0-94.814815-43.614815-94.814815-94.814814 0-49.303704 36.02963-89.125926 83.437037-94.814815l5.688889 5.688889 87.22963 87.229629z m98.607407 96.711111H512v-68.266666l70.162963 68.266666zM512 500.622222v-81.540741h89.125926c53.096296 0 94.814815 43.614815 94.814815 94.814815 0 45.511111-32.237037 85.333333-75.851852 92.918519L512 500.622222z m322.37037 322.370371l-189.629629-189.62963c47.407407-17.066667 81.540741-62.577778 81.54074-115.674074 0-68.266667-54.992593-123.259259-123.259259-123.259259H403.911111L201.007407 189.62963c79.644444-77.748148 189.62963-125.155556 310.992593-125.155556C758.518519 64.474074 959.525926 265.481481 959.525926 512c0 121.362963-47.407407 229.451852-125.155556 310.992593z" fill="#666666" p-id="5239"></path></svg>