<?xml version="1.0" standalone="no"?><!DOCTYPE svg PUBLIC "-//W3C//DTD SVG 1.1//EN" "http://www.w3.org/Graphics/SVG/1.1/DTD/svg11.dtd"><svg t="1539163372326" className="icon" style="" viewBox="0 0 1024 1024" version="1.1" xmlns="http://www.w3.org/2000/svg" p-id="5119" xmlns:xlink="http://www.w3.org/1999/xlink" width="200" height="200"><defs><style type="text/css"></style></defs><path d="M578.953846 224.492308h-17.723077v19.692307h-21.661538v17.723077h21.661538v21.661539h17.723077v-21.661539h19.692308v-17.723077h-19.692308v-19.692307z" fill="#666666" p-id="5120"></path><path d="M608.492308 206.769231c21.661538 0 51.2 23.630769 51.2 49.230769v47.261538h-179.2V256c0-25.6 27.569231-49.230769 51.2-49.230769h76.8m0-19.692308H531.692308c-31.507692 0-70.892308 31.507692-70.892308 68.923077v66.953846h218.584615V256c0-39.384615-39.384615-68.923077-70.892307-68.923077zM657.723077 356.430769c-3.938462 31.507692-13.784615 57.107692-29.538462 76.8-5.907692 7.876923-13.784615 13.784615-21.661538 17.723077-1.969231-35.446154-17.723077-68.923077-39.384615-94.523077H657.723077m21.661538-19.692307h-175.261538c49.230769 17.723077 82.707692 68.923077 82.707692 128v15.753846c21.661538-3.938462 41.353846-15.753846 57.107693-33.476923 17.723077-23.630769 33.476923-59.076923 35.446153-110.276923z" fill="#666666" p-id="5121"></path><path d="M454.892308 374.153846c49.230769 0 90.584615 39.384615 90.584615 90.584616s-39.384615 90.584615-90.584615 90.584615-90.584615-39.384615-90.584616-90.584615 41.353846-90.584615 90.584616-90.584616m0-19.692308c-61.046154 0-110.276923 49.230769-110.276923 110.276924 0 61.046154 49.230769 110.276923 110.276923 110.276923 61.046154 0 110.276923-49.230769 110.276923-110.276923 0-61.046154-49.230769-110.276923-110.276923-110.276924z" fill="#666666" p-id="5122"></path><path d="M454.892308 543.507692c-43.323077 0-78.769231-35.446154-78.769231-78.76923s35.446154-78.769231 78.769231-78.769231 78.769231 35.446154 78.76923 78.769231c1.969231 43.323077-33.476923 78.769231-78.76923 78.76923z" fill="#248FF1" p-id="5123"></path><path d="M600.615385 512c61.046154 7.876923 175.261538 51.2 175.261538 102.4v9.846154c0 7.876923 0 31.507692-3.938461 35.446154-31.507692 3.938462-86.646154 3.938462-161.476924 3.938461-90.584615 0-192.984615-1.969231-244.184615-3.938461 0 0-1.969231-1.969231-3.938461-13.784616l41.353846-45.292307h1.96923c19.692308 9.846154 39.384615 15.753846 61.046154 15.753846 61.046154 1.969231 116.184615-43.323077 133.907693-104.369231m-13.784616-21.661538c-11.815385 61.046154-61.046154 108.307692-120.123077 108.307692-19.692308 0-37.415385-5.907692-53.16923-13.784616-5.907692-1.969231-9.846154-3.938462-13.784616-5.907692l-55.138461 61.046154c0 19.692308 3.938462 39.384615 23.630769 41.353846 49.230769 1.969231 151.630769 3.938462 244.184615 3.938462 66.953846 0 128-1.969231 163.446154-3.938462 23.630769-1.969231 23.630769-35.446154 21.661539-57.107692v-9.846154c0-72.861538-143.753846-116.184615-192.984616-122.092308-5.907692-1.969231-11.815385-1.969231-17.723077-1.96923z" fill="#666666" p-id="5124"></path><path d="M452.923077 403.692308c-21.661538-5.907692-45.292308 7.876923-51.2 29.538461 0 1.969231 0 3.938462 1.969231 3.938462s3.938462 0 3.938461-1.969231c5.907692-19.692308 23.630769-31.507692 43.323077-25.6 1.969231 0 3.938462 0 3.938462-1.969231 1.969231-1.969231 0-3.938462-1.969231-3.938461z m0 0" fill="#FFFFFF" p-id="5125"></path><path d="M348.553846 561.230769l7.876923 7.876923-49.230769 51.2c-1.969231 0-3.938462-1.969231-3.938462-3.938461-1.969231-1.969231-1.969231-3.938462-3.938461-5.907693l49.230769-49.230769m0-27.569231l-66.953846 64.984616c-7.876923 7.876923-5.907692 21.661538 3.938462 31.507692 5.907692 5.907692 13.784615 9.846154 19.692307 9.846154 3.938462 0 7.876923-1.969231 9.846154-3.938462l64.984615-66.953846-31.507692-35.446154z" fill="#666666" p-id="5126"></path><path d="M68.923077 738.461538h228.430769l78.769231 74.83077 311.138461 1.96923 74.83077-76.8 230.4 1.969231-39.384616 135.876923H110.276923z" fill="#248FF1" p-id="5127"></path><path d="M785.723077 9.846154h-512L59.076923 738.461538l78.769231 256h783.753846L1004.307692 740.430769 785.723077 9.846154z m-496.246154 19.692308h484.430769L980.676923 728.615385H756.184615l-74.830769 76.8H380.061538L305.230769 728.615385H82.707692L289.476923 29.538462z m618.338462 945.230769H151.630769L82.707692 746.338462H295.384615l74.83077 76.8H691.2l74.830769-76.8h216.615385l-74.830769 228.430769z" fill="#666666" p-id="5128"></path></svg>