<?xml version="1.0" standalone="no"?><!DOCTYPE svg PUBLIC "-//W3C//DTD SVG 1.1//EN" "http://www.w3.org/Graphics/SVG/1.1/DTD/svg11.dtd"><svg t="1539163363573" className="icon" style="" viewBox="0 0 1024 1024" version="1.1" xmlns="http://www.w3.org/2000/svg" p-id="4889" xmlns:xlink="http://www.w3.org/1999/xlink" width="200" height="200"><defs><style type="text/css"></style></defs><path d="M391.876923 608.492308c-39.384615 0-74.830769-15.753846-76.8-15.753846l7.876923-19.692308s51.2 21.661538 92.553846 11.815384l3.938462 21.661539c-7.876923 0-17.723077 1.969231-27.569231 1.969231zM476.553846 307.2c49.230769 0 72.861538 23.630769 74.830769 23.630769l11.815385 11.815385c0 51.2-41.353846 118.153846-88.615385 118.153846s-88.615385-63.015385-88.615384-116.184615l13.784615-13.784616s23.630769-23.630769 76.8-23.630769m0-19.692308h-1.969231c-59.076923 1.969231-88.615385 27.569231-88.615384 29.538462l-19.692308 19.692308v5.907692c0 61.046154 49.230769 137.846154 108.307692 137.846154 61.046154 0 108.307692-76.8 108.307693-137.846154V334.769231l-17.723077-17.723077c-1.969231-1.969231-31.507692-29.538462-88.615385-29.538462z" fill="#666666" p-id="4890"></path><path d="M468.676923 181.169231c43.323077 0 78.769231 17.723077 94.523077 27.569231v59.076923c-19.692308-9.846154-49.230769-17.723077-88.615385-17.723077h-3.938461c-39.384615 0-68.923077 9.846154-88.615385 17.723077v-61.046154c27.569231-17.723077 55.138462-25.6 86.646154-25.6m0-19.692308c-33.476923 0-68.923077 9.846154-106.338461 35.446154v106.338461s35.446154-33.476923 108.307692-33.476923h3.938461c70.892308 0 108.307692 33.476923 108.307693 33.476923V196.923077s-49.230769-35.446154-114.215385-35.446154zM364.307692 450.953846l92.553846 181.169231 11.815385 21.661538c-98.461538 0-149.661538-17.723077-175.261538-31.507692-11.815385-5.907692-19.692308-31.507692-15.753847-49.230769 15.753846-88.615385 63.015385-114.215385 86.646154-122.092308m159.507693 126.030769c7.876923 25.6 19.692308 51.2 37.415384 72.861539-21.661538 1.969231-47.261538 3.938462-74.830769 3.938461h-7.876923l11.815385-19.692307 33.476923-57.107693M374.153846 429.292308s-92.553846 7.876923-118.153846 137.846154c-3.938462 23.630769 5.907692 59.076923 25.6 70.892307 29.538462 15.753846 86.646154 35.446154 189.046154 35.446154h15.753846c47.261538 0 84.676923-3.938462 116.184615-9.846154-49.230769-39.384615-64.984615-98.461538-70.892307-141.784615l-59.076923 102.4-98.461539-194.953846z" fill="#666666" p-id="4891"></path><path d="M712.861538 543.507692h-37.415384v37.415385h-29.538462v-37.415385H610.461538v-29.538461h35.446154v-35.446154h29.538462v35.446154h37.415384z" fill="#248FF1" p-id="4892"></path><path d="M722.707692 447.015385c3.938462 7.876923 11.815385 17.723077 23.63077 29.538461 1.969231 27.569231-1.969231 122.092308-84.676924 155.569231-84.676923-31.507692-86.646154-128-86.646153-155.569231 11.815385-11.815385 19.692308-21.661538 23.630769-29.538461H722.707692m13.784616-19.692308h-149.661539s0 13.784615-29.538461 39.384615c0 0-13.784615 145.723077 104.36923 185.107693 120.123077-39.384615 104.369231-185.107692 104.369231-185.107693-29.538462-25.6-29.538462-39.384615-29.538461-39.384615z" fill="#666666" p-id="4893"></path><path d="M51.2 744.369231h228.430769l76.8 74.830769h311.138462l74.830769-74.830769 230.4 1.969231-39.384615 135.876923H92.553846z" fill="#248FF1" p-id="4894"></path><path d="M766.030769 9.846154h-512L39.384615 738.461538l78.769231 256h783.753846L984.615385 740.430769 766.030769 9.846154z m-496.246154 19.692308h484.43077L960.984615 728.615385H736.492308l-74.83077 76.8H358.4L283.569231 728.615385H63.015385L269.784615 29.538462z m618.338462 945.230769H131.938462L63.015385 748.307692H275.692308l74.830769 76.8H669.538462l74.830769-76.8h216.615384l-72.861538 226.461539z" fill="#666666" p-id="4895"></path></svg>