<?xml version="1.0" standalone="no"?><!DOCTYPE svg PUBLIC "-//W3C//DTD SVG 1.1//EN" "http://www.w3.org/Graphics/SVG/1.1/DTD/svg11.dtd"><svg t="1538893650157" className="icon" style="" viewBox="0 0 1024 1024" version="1.1" xmlns="http://www.w3.org/2000/svg" p-id="1463" xmlns:xlink="http://www.w3.org/1999/xlink" width="200" height="200"><defs><style type="text/css"></style></defs><path d="M627.2 294.4h234.666667c25.6 0 42.666667-21.333333 42.666666-51.2v-128c0-12.8-4.266667-25.6-12.8-34.133333-8.533333-8.533333-21.333333-12.8-29.866666-12.8h-234.666667c-12.8 0-21.333333 4.266667-29.866667 12.8-8.533333 8.533333-12.8 21.333333-12.8 34.133333v128c0 12.8 4.266667 25.6 12.8 34.133333 8.533333 12.8 21.333333 17.066667 29.866667 17.066667zM866.133333 712.533333h-725.333333c-12.8 0-21.333333 4.266667-29.866667 12.8-8.533333 8.533333-12.8 21.333333-12.8 34.133334v115.2c0 25.6 17.066667 46.933333 42.666667 46.933333h729.6c12.8 0 21.333333-4.266667 29.866667-12.8 8.533333-8.533333 12.8-21.333333 12.8-34.133333v-115.2c-4.266667-25.6-21.333333-46.933333-46.933334-46.933334zM136.533333 601.6h324.266667c21.333333 0 38.4-21.333333 38.4-46.933333V115.2c0-12.8-4.266667-21.333333-12.8-29.866667s-17.066667-17.066667-25.6-17.066666H136.533333c-8.533333 0-17.066667 4.266667-25.6 12.8-8.533333 8.533333-12.8 21.333333-12.8 34.133333v443.733333c0 21.333333 17.066667 42.666667 38.4 42.666667zM627.2 601.6h234.666667c25.6 0 42.666667-21.333333 42.666666-51.2v-128c0-12.8-4.266667-25.6-12.8-34.133333-8.533333-8.533333-21.333333-17.066667-29.866666-17.066667h-234.666667c-12.8 0-21.333333 4.266667-29.866667 17.066667-8.533333 8.533333-12.8 21.333333-12.8 34.133333v128c0 29.866667 21.333333 51.2 42.666667 51.2z" fill="#91BEE2" p-id="1464"></path></svg>