<?xml version="1.0" standalone="no"?><!DOCTYPE svg PUBLIC "-//W3C//DTD SVG 1.1//EN" "http://www.w3.org/Graphics/SVG/1.1/DTD/svg11.dtd"><svg t="1535527622656" className="icon" style="" viewBox="0 0 1024 1024" version="1.1" xmlns="http://www.w3.org/2000/svg" p-id="6623" xmlns:xlink="http://www.w3.org/1999/xlink" width="200" height="200"><defs><style type="text/css"></style></defs><path d="M490.66666667 55.46666666v68.26666667H149.33333334a68.26666667 68.26666667 0 0 0-68.26666667 68.26666667v682.66666666a68.26666667 68.26666667 0 0 0 68.26666667 68.26666667h682.66666666a68.26666667 68.26666667 0 0 0 68.26666667-68.26666667V533.33333333h68.26666667v341.33333333a136.53333333 136.53333333 0 0 1-136.53333334 136.53333334H149.33333334a136.53333333 136.53333333 0 0 1-136.53333334-136.53333334V192a136.53333333 136.53333333 0 0 1 136.53333334-136.53333334h341.33333333z m94.208 500.05333334a34.13333333 34.13333333 0 1 1-51.88266667-44.37333334l409.6-477.86666666a34.13333333 34.13333333 0 0 1 51.88266667 44.37333333l-409.6 477.86666667z" p-id="6624" fill="#707070"></path></svg>
