<?xml version="1.0" standalone="no"?><!DOCTYPE svg PUBLIC "-//W3C//DTD SVG 1.1//EN" "http://www.w3.org/Graphics/SVG/1.1/DTD/svg11.dtd"><svg t="1538055827060" className="icon" style="" viewBox="0 0 1024 1024" version="1.1" xmlns="http://www.w3.org/2000/svg" p-id="1488" xmlns:xlink="http://www.w3.org/1999/xlink" width="200" height="200"><defs><style type="text/css"></style></defs><path d="M768 934.4h-68.266667c-4.266667 0-8.533333-4.266667-8.533333-8.533333v-68.266667c0-4.266667 4.266667-8.533333 8.533333-8.533333H768c4.266667 0 8.533333 4.266667 8.533333 8.533333v68.266667c0 4.266667-4.266667 8.533333-8.533333 8.533333zM904.533333 934.4h-68.266666c-4.266667 0-8.533333-4.266667-8.533334-8.533333v-68.266667c0-4.266667 4.266667-8.533333 8.533334-8.533333h68.266666c4.266667 0 8.533333 4.266667 8.533334 8.533333v68.266667c0 4.266667-4.266667 8.533333-8.533334 8.533333zM844.8 541.866667h72.533333v85.333333h-72.533333zM520.533333 85.333333v392.533334h392.533334V85.333333h-392.533334z m285.866667 273.066667c0 4.266667-4.266667 8.533333-8.533333 8.533333H640c-4.266667 0-8.533333-4.266667-8.533333-8.533333V200.533333c0-4.266667 4.266667-8.533333 8.533333-8.533333h157.866667c4.266667 0 8.533333 4.266667 8.533333 8.533333v157.866667zM59.733333 541.866667v392.533333h392.533334v-392.533333H59.733333z m285.866667 277.333333c0 4.266667-4.266667 8.533333-8.533333 8.533333H179.2c-4.266667 0-8.533333-4.266667-8.533333-8.533333v-157.866667c0-4.266667 4.266667-8.533333 8.533333-8.533333h157.866667c4.266667 0 8.533333 4.266667 8.533333 8.533333v157.866667z" fill="#91BEE2" p-id="1489"></path><path d="M738.133333 627.2v-85.333333h-217.6v392.533333h72.533334V682.666667h102.4v85.333333h217.6v-140.8h-68.266667zM59.733333 85.333333v392.533334h392.533334V85.333333H59.733333z m285.866667 268.8c0 8.533333-8.533333 17.066667-17.066667 17.066667H179.2c-8.533333 0-17.066667-8.533333-17.066667-17.066667V204.8c0-8.533333 8.533333-17.066667 17.066667-17.066667h149.333333c8.533333 0 17.066667 8.533333 17.066667 17.066667v149.333333z" fill="#91BEE2" p-id="1490"></path></svg>