<?xml version="1.0" standalone="no"?><!DOCTYPE svg PUBLIC "-//W3C//DTD SVG 1.1//EN" "http://www.w3.org/Graphics/SVG/1.1/DTD/svg11.dtd"><svg t="1541402256185" class="icon" style="" viewBox="0 0 1024 1024" version="1.1" xmlns="http://www.w3.org/2000/svg" p-id="6701" xmlns:xlink="http://www.w3.org/1999/xlink" width="200" height="200"><defs><style type="text/css"></style></defs><path d="M512 46.545455C256 46.545455 46.545455 256 46.545455 512s209.454545 465.454545 465.454545 465.454545 465.454545-209.454545 465.454545-465.454545S768 46.545455 512 46.545455z" fill="#33CC00" p-id="6702"></path><path d="M791.272727 423.563636l-297.890909 307.2c-13.963636 13.963636-37.236364 13.963636-51.2 0L279.272727 563.2c-13.963636-13.963636-13.963636-37.236364 0-51.2 13.963636-13.963636 37.236364-13.963636 51.2 0l139.636364 139.636364L744.727273 372.363636c13.963636-13.963636 37.236364-13.963636 51.2 0 9.309091 13.963636 9.309091 37.236364-4.654546 51.2z" fill="#FFFFFF" p-id="6703"></path></svg>