<?xml version="1.0" standalone="no"?><!DOCTYPE svg PUBLIC "-//W3C//DTD SVG 1.1//EN" "http://www.w3.org/Graphics/SVG/1.1/DTD/svg11.dtd"><svg t="1538893733061" className="icon" style="" viewBox="0 0 1024 1024" version="1.1" xmlns="http://www.w3.org/2000/svg" p-id="2229" xmlns:xlink="http://www.w3.org/1999/xlink" width="200" height="200"><defs><style type="text/css"></style></defs><path d="M925.866667 669.866667l-123.733334 85.333333c-4.266667 0-4.266667 4.266667-8.533333 4.266667-8.533333 0-12.8-4.266667-12.8-12.8v-42.666667h-34.133333c-38.4 0-81.066667 12.8-110.933334 42.666667h-4.266666c-4.266667 0-4.266667-4.266667-4.266667-4.266667 12.8-68.266667 76.8-115.2 153.6-119.466667v-42.666666c0-8.533333 4.266667-12.8 12.8-12.8 4.266667 0 4.266667 0 8.533333 4.266666l123.733334 85.333334s4.266667 4.266667 4.266666 8.533333c-4.266667 0-4.266667 4.266667-4.266666 4.266667z m0 0" fill="#91BEE2" p-id="2230"></path><path d="M217.6 277.333333a217.6 209.066667 0 1 0 435.2 0 217.6 209.066667 0 1 0-435.2 0Z" fill="#91BEE2" p-id="2231"></path><path d="M529.066667 708.266667c0-81.066667 51.2-149.333333 128-174.933334-17.066667-12.8-34.133333-25.6-55.466667-34.133333-46.933333 29.866667-102.4 51.2-162.133333 51.2s-115.2-29.866667-162.133334-51.2c-119.466667 51.2-200.533333 174.933333-200.533333 311.466667 0 106.666667 396.8 132.266667 605.866667 76.8-89.6-12.8-153.6-89.6-153.6-179.2z" fill="#91BEE2" p-id="2232"></path></svg>