<?xml version="1.0" standalone="no"?><!DOCTYPE svg PUBLIC "-//W3C//DTD SVG 1.1//EN" "http://www.w3.org/Graphics/SVG/1.1/DTD/svg11.dtd"><svg t="1538055839573" className="icon" style="" viewBox="0 0 1024 1024" version="1.1" xmlns="http://www.w3.org/2000/svg" p-id="1598" xmlns:xlink="http://www.w3.org/1999/xlink" width="200" height="200"><defs><style type="text/css"></style></defs><path d="M200.533333 311.466667a209.066667 200.533333 90 1 0 401.066667 0 209.066667 200.533333 90 1 0-401.066667 0Z" fill="#91BEE2" p-id="1599"></path><path d="M780.8 631.466667l-34.133333-34.133334-42.666667-46.933333-200.533333 209.066667c-4.266667 4.266667-4.266667 4.266667-4.266667 8.533333l-42.666667 149.333333c0 8.533333 0 12.8 4.266667 17.066667 0 4.266667 4.266667 4.266667 8.533333 4.266667h4.266667l145.066667-42.666667c4.266667 0 4.266667-4.266667 8.533333-4.266667l204.8-209.066666-51.2-51.2z m-260.266667 256l-17.066666-17.066667 21.333333-81.066667 8.533333 8.533334 46.933334 4.266666 4.266666 46.933334 12.8 12.8-76.8 25.6zM721.066667 529.066667l128 132.266666 25.6-29.866666-123.733334-132.266667zM908.8 524.8l-59.733333-64c-17.066667-17.066667-42.666667-17.066667-59.733334 0l-21.333333 21.333333 123.733333 128 17.066667-21.333333c17.066667-17.066667 17.066667-42.666667 0-64z" fill="#91BEE2" p-id="1600"></path><path d="M554.666667 537.6c-42.666667 29.866667-93.866667 51.2-149.333334 51.2-55.466667 0-106.666667-29.866667-149.333333-51.2-110.933333 51.2-183.466667 174.933333-183.466667 311.466667 0 72.533333 166.4 106.666667 332.8 106.666666v-8.533333l55.466667-204.8c0-4.266667 4.266667-8.533333 8.533333-12.8l145.066667-153.6c-17.066667-12.8-38.4-25.6-59.733333-38.4z" fill="#91BEE2" p-id="1601"></path></svg>