<?xml version="1.0" standalone="no"?><!DOCTYPE svg PUBLIC "-//W3C//DTD SVG 1.1//EN" "http://www.w3.org/Graphics/SVG/1.1/DTD/svg11.dtd"><svg t="1538893385477" className="icon" style="" viewBox="0 0 1024 1024" version="1.1" xmlns="http://www.w3.org/2000/svg" p-id="1352" xmlns:xlink="http://www.w3.org/1999/xlink" width="200" height="200"><defs><style type="text/css"></style></defs><path d="M200.533333 256a217.6 209.066667 0 1 0 435.2 0 217.6 209.066667 0 1 0-435.2 0Z" fill="#91BEE2" p-id="1353"></path><path d="M512 691.2c0-81.066667 51.2-149.333333 128-174.933333-17.066667-12.8-34.133333-25.6-55.466667-34.133334-46.933333 29.866667-102.4 51.2-162.133333 51.2s-115.2-29.866667-162.133333-51.2c-119.466667 51.2-200.533333 174.933333-200.533334 311.466667 0 106.666667 396.8 132.266667 605.866667 76.8-89.6-17.066667-153.6-89.6-153.6-179.2z" fill="#91BEE2" p-id="1354"></path><path d="M878.933333 691.2c0 17.066667 12.8 29.866667 29.866667 29.866667-4.266667 21.333333-12.8 42.666667-25.6 59.733333-12.8-12.8-29.866667-8.533333-42.666667 0-12.8 12.8-12.8 29.866667 0 42.666667-17.066667 12.8-38.4 21.333333-59.733333 21.333333 0-17.066667-12.8-29.866667-29.866667-29.866667-17.066667 0-29.866667 12.8-29.866666 29.866667-21.333333-4.266667-38.4-12.8-55.466667-25.6 8.533333-12.8 8.533333-29.866667-4.266667-42.666667-12.8-12.8-29.866667-12.8-42.666666-4.266666-12.8-17.066667-21.333333-38.4-25.6-55.466667 17.066667 0 29.866667-17.066667 29.866666-29.866667 0-17.066667-12.8-29.866667-29.866666-29.866666 4.266667-21.333333 12.8-42.666667 21.333333-59.733334 12.8 12.8 29.866667 8.533333 42.666667 0 12.8-12.8 12.8-29.866667 0-42.666666 17.066667-12.8 38.4-21.333333 59.733333-25.6 0 17.066667 12.8 29.866667 29.866667 29.866666 17.066667 0 29.866667-12.8 29.866666-29.866666 21.333333 4.266667 42.666667 12.8 59.733334 25.6-12.8 12.8-12.8 34.133333 0 42.666666 12.8 12.8 29.866667 12.8 42.666666 0 12.8 17.066667 21.333333 38.4 25.6 59.733334-8.533333 4.266667-25.6 17.066667-25.6 34.133333z m-128-72.533333c-38.4 0-68.266667 29.866667-68.266666 68.266666 0 38.4 29.866667 68.266667 68.266666 68.266667 38.4 0 68.266667-29.866667 68.266667-68.266667 0-38.4-29.866667-68.266667-68.266667-68.266666z m0 0" fill="#91BEE2" p-id="1355"></path></svg>