<?xml version="1.0" standalone="no"?><!DOCTYPE svg PUBLIC "-//W3C//DTD SVG 1.1//EN" "http://www.w3.org/Graphics/SVG/1.1/DTD/svg11.dtd"><svg t="1538893703977" className="icon" style="" viewBox="0 0 1024 1024" version="1.1" xmlns="http://www.w3.org/2000/svg" p-id="1901" xmlns:xlink="http://www.w3.org/1999/xlink" width="200" height="200"><defs><style type="text/css"></style></defs><path d="M861.866667 93.866667H174.933333c-34.133333 0-59.733333 29.866667-59.733333 64v494.933333c0 34.133333 25.6 64 59.733333 64H469.333333v132.266667H320v98.133333h396.8v-98.133333h-149.333333v-132.266667h294.4c34.133333 0 59.733333-29.866667 59.733333-64V157.866667c4.266667-34.133333-25.6-64-59.733333-64z m-42.666667 234.666666c-4.266667 12.8-12.8 21.333333-25.6 29.866667-8.533333 4.266667-17.066667 4.266667-21.333333 4.266667H768c-12.8-8.533333-21.333333 0-29.866667 8.533333l-38.4 38.4L640 469.333333c-8.533333 8.533333-21.333333 17.066667-29.866667 29.866667-4.266667 4.266667-4.266667 8.533333-4.266666 8.533333 4.266667 21.333333-4.266667 38.4-21.333334 51.2-12.8 8.533333-25.6 8.533333-38.4 4.266667-8.533333-4.266667-17.066667-8.533333-25.6-17.066667-8.533333-12.8-12.8-29.866667-4.266666-46.933333 4.266667-4.266667 4.266667-12.8 0-17.066667-12.8-17.066667-25.6-29.866667-34.133334-46.933333 0 0-4.266667-4.266667-8.533333-4.266667h-12.8c-12.8 0-21.333333 0-29.866667-8.533333h-8.533333l-64 51.2c-12.8 12.8-25.6 21.333333-38.4 34.133333-4.266667 4.266667-8.533333 8.533333-4.266667 17.066667v4.266667c-4.266667 17.066667-8.533333 34.133333-25.6 42.666666-21.333333 12.8-42.666667 4.266667-59.733333-17.066666-8.533333-12.8-12.8-25.6-8.533333-38.4 4.266667-17.066667 12.8-29.866667 25.6-34.133334 8.533333-4.266667 17.066667-4.266667 25.6-4.266666h4.266666c12.8 8.533333 21.333333 4.266667 34.133334-4.266667 12.8-12.8 25.6-21.333333 38.4-29.866667 12.8-21.333333 34.133333-38.4 51.2-51.2 4.266667-4.266667 4.266667-8.533333 4.266666-12.8 0-17.066667 8.533333-34.133333 21.333334-42.666666 12.8-8.533333 29.866667-12.8 42.666666-4.266667 8.533333 4.266667 17.066667 8.533333 21.333334 17.066667 8.533333 17.066667 12.8 29.866667 4.266666 46.933333 0 4.266667 0 8.533333 4.266667 12.8 12.8 17.066667 25.6 29.866667 34.133333 46.933333 4.266667 8.533333 12.8 8.533333 17.066667 8.533334 8.533333 0 17.066667-4.266667 25.6 4.266666 0 0 4.266667 0 8.533333-4.266666 12.8-12.8 25.6-25.6 42.666667-38.4l68.266667-68.266667c8.533333-8.533333 17.066667-12.8 25.6-21.333333 4.266667-4.266667 4.266667-8.533333 4.266666-12.8v-21.333334c0-17.066667 8.533333-29.866667 21.333334-38.4 8.533333 0 17.066667-8.533333 25.6-8.533333 12.8 0 25.6 4.266667 38.4 17.066667 12.8 17.066667 8.533333 34.133333 8.533333 55.466666z" fill="#91BEE2" p-id="1902"></path></svg>