<?xml version="1.0" standalone="no"?><!DOCTYPE svg PUBLIC "-//W3C//DTD SVG 1.1//EN" "http://www.w3.org/Graphics/SVG/1.1/DTD/svg11.dtd"><svg t="1540882717595" class="icon" style="" viewBox="0 0 1024 1024" version="1.1" xmlns="http://www.w3.org/2000/svg" p-id="6170" xmlns:xlink="http://www.w3.org/1999/xlink" width="200" height="200"><defs><style type="text/css"></style></defs><path d="M218.763636 190.836364c-13.963636-13.963636-32.581818-13.963636-46.545454 0-9.309091 9.309091-9.309091 27.927273 0 41.890909l41.890909 41.890909c13.963636 13.963636 32.581818 13.963636 41.890909 0 13.963636-13.963636 13.963636-32.581818 0-41.890909l-37.236364-41.890909z m586.472728 0l-41.890909 41.890909c-13.963636 13.963636-13.963636 32.581818 0 41.890909 13.963636 13.963636 32.581818 13.963636 41.890909 0l46.545454-41.890909c13.963636-13.963636 13.963636-32.581818 0-41.890909-13.963636-13.963636-32.581818-13.963636-46.545454 0zM139.636364 432.872727H79.127273c-18.618182 0-32.581818 13.963636-32.581818 32.581818 0 18.618182 13.963636 32.581818 32.581818 32.581819H139.636364c18.618182 0 32.581818-13.963636 32.581818-32.581819 0-18.618182-13.963636-32.581818-32.581818-32.581818z m805.236363 0H884.363636c-18.618182 0-32.581818 13.963636-32.581818 32.581818 0 18.618182 13.963636 32.581818 32.581818 32.581819h60.509091c18.618182 0 32.581818-13.963636 32.581818-32.581819 0-18.618182-13.963636-32.581818-32.581818-32.581818z m-465.454545-353.745454V139.636364c0 18.618182 13.963636 32.581818 32.581818 32.581818 18.618182 0 32.581818-13.963636 32.581818-32.581818V79.127273c0-18.618182-13.963636-32.581818-32.581818-32.581818-18.618182 0-32.581818 13.963636-32.581818 32.581818z m-186.181818 432.872727c0-121.018182 97.745455-218.763636 218.763636-218.763636s218.763636 97.745455 218.763636 218.763636-97.745455 218.763636-218.763636 218.763636-218.763636-97.745455-218.763636-218.763636zM232.727273 512c0 153.6 125.672727 279.272727 279.272727 279.272727s279.272727-125.672727 279.272727-279.272727-125.672727-279.272727-279.272727-279.272727-279.272727 125.672727-279.272727 279.272727z m218.763636 432.872727c0 18.618182 13.963636 32.581818 32.581818 32.581818h60.509091c18.618182 0 32.581818-13.963636 32.581818-32.581818s-13.963636-32.581818-32.581818-32.581818h-60.509091c-18.618182 4.654545-32.581818 18.618182-32.581818 32.581818z m-65.163636-93.090909c0 18.618182 13.963636 32.581818 32.581818 32.581818h186.181818c18.618182 0 32.581818-13.963636 32.581818-32.581818 0-18.618182-13.963636-32.581818-32.581818-32.581818H418.909091c-18.618182 4.654545-32.581818 18.618182-32.581818 32.581818z m0 0" p-id="6171"></path></svg>