<?xml version="1.0" standalone="no"?><!DOCTYPE svg PUBLIC "-//W3C//DTD SVG 1.1//EN" "http://www.w3.org/Graphics/SVG/1.1/DTD/svg11.dtd"><svg t="1538893762461" className="icon" style="" viewBox="0 0 1024 1024" version="1.1" xmlns="http://www.w3.org/2000/svg" p-id="2450" xmlns:xlink="http://www.w3.org/1999/xlink" width="200" height="200"><defs><style type="text/css"></style></defs><path d="M857.6 85.333333H166.4c-34.133333 0-59.733333 29.866667-59.733333 64v494.933334c0 34.133333 25.6 64 59.733333 64h294.4v132.266666H315.733333V938.666667h396.8v-98.133334h-149.333333v-132.266666h294.4c34.133333 0 59.733333-29.866667 59.733333-64V149.333333c0-34.133333-25.6-64-59.733333-64z m-187.733333 396.8c0 8.533333-4.266667 17.066667-12.8 21.333334-85.333333 55.466667-192 55.466667-273.066667 4.266666-4.266667 0-8.533333-8.533333-8.533333-12.8 4.266667-8.533333 8.533333-17.066667 8.533333-29.866666 0-12.8-4.266667-21.333333-12.8-29.866667v-42.666667l132.266667 55.466667c12.8 4.266667 8.533333 4.266667 25.6 0l136.533333-55.466667v89.6z m72.533333-153.6l-209.066667 85.333334c-12.8 4.266667-8.533333 4.266667-25.6 0l-110.933333-42.666667 123.733333-59.733333c4.266667-4.266667 8.533333-8.533333 4.266667-17.066667s-8.533333-8.533333-12.8-8.533333L366.933333 358.4c-21.333333 21.333333-25.6 46.933333-25.6 76.8 8.533333 4.266667 12.8 12.8 12.8 25.6 0 8.533333-4.266667 17.066667-8.533333 21.333333 4.266667 59.733333 8.533333 115.2-34.133333 136.533334-12.8-4.266667-21.333333-8.533333-34.133334-21.333334 29.866667-42.666667 42.666667-81.066667 42.666667-110.933333-8.533333-4.266667-12.8-12.8-12.8-25.6s4.266667-21.333333 12.8-25.6c0-29.866667 0-59.733333 25.6-85.333333l-51.2-21.333334c-12.8-4.266667-12.8-17.066667 0-21.333333l213.333333-85.333333c12.8-4.266667 8.533333-4.266667 25.6 0l213.333334 89.6c8.533333 4.266667 8.533333 12.8-4.266667 17.066666z" fill="#91BEE2" p-id="2451"></path></svg>