<?xml version="1.0" standalone="no"?><!DOCTYPE svg PUBLIC "-//W3C//DTD SVG 1.1//EN" "http://www.w3.org/Graphics/SVG/1.1/DTD/svg11.dtd"><svg t="1538893694855" className="icon" style="" viewBox="0 0 1024 1024" version="1.1" xmlns="http://www.w3.org/2000/svg" p-id="1792" xmlns:xlink="http://www.w3.org/1999/xlink" width="200" height="200"><defs><style type="text/css"></style></defs><path d="M870.4 89.6H179.2c-34.133333 0-59.733333 29.866667-59.733333 64v494.933333c0 34.133333 25.6 64 59.733333 64h294.4v132.266667H324.266667v98.133333h396.8v-98.133333h-149.333334v-132.266667h294.4c34.133333 0 59.733333-29.866667 59.733334-64V153.6c4.266667-34.133333-25.6-64-55.466667-64z m-64 486.4h-145.066667v-51.2h-384V375.466667H230.4V226.133333h145.066667v149.333334H328.533333v102.4h332.8V426.666667h145.066667v149.333333z m0-277.333333h-264.533333V251.733333h264.533333V298.666667z" fill="#91BEE2" p-id="1793"></path></svg>