<?xml version="1.0" standalone="no"?><!DOCTYPE svg PUBLIC "-//W3C//DTD SVG 1.1//EN" "http://www.w3.org/Graphics/SVG/1.1/DTD/svg11.dtd"><svg t="1541057426664" class="icon" style="" viewBox="0 0 1024 1024" version="1.1" xmlns="http://www.w3.org/2000/svg" p-id="27675" xmlns:xlink="http://www.w3.org/1999/xlink" width="200" height="200"><defs><style type="text/css"></style></defs><path d="M512 693.527273c97.745455 0 181.527273-79.127273 181.527273-181.527273 0-97.745455-79.127273-181.527273-181.527273-181.527273-97.745455 0-181.527273 79.127273-181.527273 181.527273 0 97.745455 83.781818 181.527273 181.527273 181.527273z m0 0" fill="#ffffff" p-id="27676"></path><path d="M27.927273 581.818182h23.272727c69.818182 0 121.018182 55.854545 121.018182 121.018182 0 41.890909-23.272727 79.127273-51.2 102.4 27.927273 37.236364 65.163636 74.472727 102.4 102.4 23.272727-32.581818 60.509091-51.2 102.4-51.2 69.818182 0 121.018182 55.854545 121.018182 121.018181v23.272728c23.272727 4.654545 46.545455 4.654545 69.818181 4.654545s46.545455 0 69.818182-4.654545V977.454545c0-69.818182 55.854545-121.018182 121.018182-121.018181 41.890909 0 79.127273 23.272727 102.4 51.2 37.236364-27.927273 74.472727-65.163636 102.4-102.4-32.581818-23.272727-51.2-60.509091-51.2-102.4 0-69.818182 55.854545-121.018182 121.018182-121.018182h23.272727c4.654545-23.272727 4.654545-46.545455 4.654546-69.818182s0-46.545455-4.654546-69.818182h-23.272727c-69.818182 0-121.018182-55.854545-121.018182-121.018182 0-41.890909 23.272727-79.127273 51.2-102.4-27.927273-37.236364-65.163636-74.472727-102.4-102.4-23.272727 32.581818-60.509091 51.2-102.4 51.2-69.818182 0-121.018182-55.854545-121.018182-121.018181V23.272727c-23.272727-4.654545-46.545455-4.654545-69.818182-4.654545s-46.545455 0-69.818181 4.654545V46.545455c0 69.818182-55.854545 121.018182-121.018182 121.018181-46.545455 4.654545-83.781818-13.963636-102.4-46.545454-41.890909 27.927273-74.472727 60.509091-102.4 102.4 32.581818 18.618182 51.2 55.854545 51.2 97.745454 0 69.818182-55.854545 121.018182-121.018182 121.018182H27.927273c-4.654545 23.272727-4.654545 46.545455-4.654546 69.818182s0 46.545455 4.654546 69.818182zM512 279.272727c125.672727 0 232.727273 102.4 232.727273 232.727273 0 125.672727-102.4 232.727273-232.727273 232.727273-125.672727 0-232.727273-102.4-232.727273-232.727273 0-125.672727 107.054545-232.727273 232.727273-232.727273z m0 0" fill="#ffffff" p-id="27677"></path></svg>