<?xml version="1.0" standalone="no"?><!DOCTYPE svg PUBLIC "-//W3C//DTD SVG 1.1//EN" "http://www.w3.org/Graphics/SVG/1.1/DTD/svg11.dtd"><svg t="1538893666401" className="icon" style="" viewBox="0 0 1024 1024" version="1.1" xmlns="http://www.w3.org/2000/svg" p-id="1572" xmlns:xlink="http://www.w3.org/1999/xlink" width="200" height="200"><defs><style type="text/css"></style></defs><path d="M738.133333 247.466667l-42.666666-42.666667L640 153.6 384 401.066667s-4.266667 4.266667-4.266667 8.533333l-55.466666 179.2c-4.266667 8.533333 0 17.066667 4.266666 21.333333 4.266667 4.266667 8.533333 8.533333 17.066667 8.533334h4.266667l183.466666-51.2c4.266667 0 8.533333-4.266667 8.533334-8.533334l256-247.466666-59.733334-64zM409.6 554.666667l-21.333333-21.333334 29.866666-93.866666 12.8 12.8 59.733334 4.266666 4.266666 55.466667 12.8 12.8-98.133333 29.866667zM665.6 128l157.866667 157.866667 38.4-34.133334-162.133334-157.866666zM904.533333 128l-76.8-76.8c-21.333333-21.333333-55.466667-21.333333-76.8 0l-25.6 21.333333 153.6 149.333334 25.6-21.333334c21.333333-21.333333 21.333333-55.466667 0-72.533333z" fill="#91BEE2" p-id="1573"></path><path d="M785.066667 512v247.466667c0 38.4-34.133333 72.533333-72.533334 72.533333H196.266667c-38.4 0-72.533333-29.866667-72.533334-72.533333V256c0-38.4 34.133333-72.533333 72.533334-72.533333h217.6V123.733333H196.266667c-72.533333 0-132.266667 59.733333-132.266667 128v503.466667c0 72.533333 59.733333 128 132.266667 128h516.266666c72.533333 0 132.266667-59.733333 132.266667-128V512h-59.733333z" fill="#91BEE2" p-id="1574"></path></svg>
