<?xml version="1.0" standalone="no"?><!DOCTYPE svg PUBLIC "-//W3C//DTD SVG 1.1//EN" "http://www.w3.org/Graphics/SVG/1.1/DTD/svg11.dtd"><svg t="1538055998224" className="icon" style="" viewBox="0 0 1024 1024" version="1.1" xmlns="http://www.w3.org/2000/svg" p-id="2040" xmlns:xlink="http://www.w3.org/1999/xlink" width="200" height="200"><defs><style type="text/css"></style></defs><path d="M637.672727 37.236364h-144.290909C432.872727 37.236364 358.4 93.090909 358.4 167.563636v125.672728h414.254545V167.563636C772.654545 93.090909 698.181818 37.236364 637.672727 37.236364z m-18.618182 144.290909h-41.890909v37.236363h-32.581818v-37.236363h-41.890909v-32.581818h41.890909v-41.89091h32.581818v37.236364h41.890909v37.236364zM567.854545 316.509091H442.181818c93.090909 32.581818 158.254545 125.672727 158.254546 237.381818v27.927273c37.236364-9.309091 79.127273-27.927273 107.054545-65.163637 32.581818-41.890909 65.163636-107.054545 69.818182-204.8h-209.454546z" fill="#91BEE2" p-id="2041"></path><path d="M349.090909 349.090909c-116.363636 0-204.8 93.090909-204.8 204.8 0 111.709091 93.090909 204.8 204.8 204.8 116.363636 0 204.8-93.090909 204.8-204.8 4.654545-111.709091-88.436364-204.8-204.8-204.8z m0 353.745455c-83.781818 0-148.945455-65.163636-148.945454-148.945455 0-83.781818 65.163636-148.945455 148.945454-148.945454 83.781818 0 148.945455 65.163636 148.945455 148.945454 0 83.781818-65.163636 148.945455-148.945455 148.945455z" fill="#91BEE2" p-id="2042"></path><path d="M991.418182 851.781818v-18.618182c0-134.981818-269.963636-214.109091-367.709091-228.072727-9.309091 0-18.618182 0-27.927273-4.654545-23.272727 116.363636-116.363636 200.145455-228.072727 200.145454-37.236364 0-69.818182-9.309091-102.4-27.927273-9.309091-4.654545-18.618182-4.654545-27.927273-9.30909L134.981818 884.363636c0 37.236364 9.309091 74.472727 41.890909 74.472728 93.090909 4.654545 283.927273 9.309091 460.8 9.309091 125.672727 0 242.036364-4.654545 307.2-9.309091 51.2-4.654545 46.545455-65.163636 46.545455-107.054546zM344.436364 442.181818c-41.890909-9.309091-83.781818 13.963636-97.745455 55.854546 0 4.654545 0 4.654545 4.654546 4.654545s4.654545 0 4.654545-4.654545c9.309091-37.236364 46.545455-55.854545 83.781818-46.545455 4.654545 0 4.654545 0 4.654546-4.654545 4.654545 0 4.654545-4.654545 0-4.654546z m0 0M32.581818 865.745455c-18.618182-18.618182-23.272727-46.545455-9.309091-60.509091l125.672728-121.018182 65.163636 65.163636-125.672727 125.672727c-13.963636 13.963636-37.236364 9.309091-55.854546-9.30909z" fill="#91BEE2" p-id="2043"></path></svg>