<?xml version="1.0" standalone="no"?><!DOCTYPE svg PUBLIC "-//W3C//DTD SVG 1.1//EN" "http://www.w3.org/Graphics/SVG/1.1/DTD/svg11.dtd"><svg t="1538055812433" className="icon" style="" viewBox="0 0 1024 1024" version="1.1" xmlns="http://www.w3.org/2000/svg" p-id="1375" xmlns:xlink="http://www.w3.org/1999/xlink" width="200" height="200"><defs><style type="text/css"></style></defs><path d="M584.533333 448c51.2 0 98.133333-17.066667 136.533334-55.466667 38.4-38.4 55.466667-81.066667 55.466666-136.533333 0-51.2-17.066667-98.133333-55.466666-136.533333-38.4-34.133333-85.333333-55.466667-136.533334-55.466667-51.2 0-98.133333 17.066667-136.533333 55.466667-38.4 38.4-55.466667 85.333333-55.466667 136.533333 0 51.2 17.066667 98.133333 55.466667 136.533333 38.4 38.4 85.333333 55.466667 136.533333 55.466667zM298.666667 507.733333c25.6 0 46.933333 4.266667 68.266666 12.8V512c0-25.6 4.266667-46.933333 12.8-64-21.333333 4.266667-42.666667 17.066667-59.733333 34.133333-12.8 8.533333-21.333333 17.066667-25.6 29.866667 0 0 0-4.266667 4.266667-4.266667zM917.333333 610.133333c-4.266667-25.6-12.8-51.2-21.333333-72.533333s-21.333333-38.4-38.4-55.466667-38.4-25.6-59.733333-34.133333c4.266667 8.533333 4.266667 12.8 4.266666 21.333333s4.266667 17.066667 4.266667 25.6v68.266667c21.333333 12.8 34.133333 29.866667 46.933333 51.2 12.8 21.333333 17.066667 42.666667 17.066667 68.266667v46.933333c8.533333 8.533333 17.066667 21.333333 17.066667 38.4 0 12.8-4.266667 25.6-12.8 38.4-8.533333 8.533333-21.333333 17.066667-34.133334 17.066667-12.8 0-25.6-4.266667-34.133333-17.066667-8.533333-8.533333-12.8-21.333333-12.8-38.4s4.266667-29.866667 17.066667-38.4V682.666667c0-17.066667-4.266667-34.133333-17.066667-46.933334-12.8-12.8-25.6-21.333333-42.666667-21.333333s-29.866667 8.533333-42.666666 21.333333c-12.8 12.8-17.066667 29.866667-17.066667 46.933334v46.933333c8.533333 8.533333 17.066667 21.333333 17.066667 38.4 0 12.8-4.266667 25.6-12.8 38.4-8.533333 8.533333-21.333333 17.066667-34.133334 17.066667-12.8 0-25.6-4.266667-34.133333-17.066667-8.533333-8.533333-12.8-21.333333-12.8-38.4s4.266667-29.866667 17.066667-38.4V682.666667c0-38.4 12.8-72.533333 38.4-98.133334 25.6-25.6 55.466667-42.666667 89.6-42.666666v-34.133334c0-21.333333-4.266667-38.4-12.8-51.2-42.666667 38.4-89.6 55.466667-145.066667 55.466667-55.466667 0-102.4-17.066667-145.066667-55.466667-8.533333 12.8-12.8 29.866667-12.8 51.2V554.666667c42.666667 42.666667 72.533333 102.4 72.533334 174.933333 0 64-21.333333 119.466667-59.733334 157.866667h358.4c38.4 0 72.533333-12.8 93.866667-38.4 25.6-25.6 34.133333-59.733333 34.133333-102.4 0-25.6 0-46.933333-4.266666-72.533334-12.8-12.8-17.066667-38.4-21.333334-64z" fill="#91BEE2" p-id="1376"></path><path d="M930.133333 755.2z" fill="#FFFFFF" p-id="1377"></path><path d="M243.2 631.466667c-4.266667 0-4.266667 0-4.266667-4.266667L213.333333 537.6c-4.266667-17.066667 4.266667-38.4 21.333334-42.666667h8.533333c17.066667 0 29.866667 17.066667 29.866667 34.133334v8.533333l-25.6 89.6c0 4.266667-4.266667 4.266667-4.266667 4.266667z m0-128h-4.266667c-8.533333 4.266667-17.066667 17.066667-12.8 29.866666l21.333334 68.266667 21.333333-68.266667v-8.533333c-8.533333-8.533333-17.066667-21.333333-25.6-21.333333z m0 0" fill="#91BEE2" p-id="1378"></path><path d="M243.2 631.466667c-21.333333 0-42.666667-4.266667-59.733333-17.066667-17.066667-8.533333-29.866667-21.333333-38.4-38.4-4.266667-4.266667 0-8.533333 4.266666-12.8 4.266667 0 12.8 0 12.8 4.266667 12.8 25.6 46.933333 42.666667 81.066667 42.666666s64-17.066667 81.066667-42.666666c4.266667-4.266667 8.533333-4.266667 12.8-4.266667 4.266667 4.266667 4.266667 8.533333 4.266666 12.8-8.533333 17.066667-21.333333 29.866667-38.4 38.4-21.333333 12.8-38.4 17.066667-59.733333 17.066667z m0 0" fill="#91BEE2" p-id="1379"></path><path d="M119.466667 759.466667s4.266667-4.266667 8.533333-4.266667h106.666667v-123.733333c0-8.533333 4.266667-12.8 8.533333-12.8s8.533333 4.266667 8.533333 12.8v123.733333h106.666667c4.266667 0 4.266667 0 8.533333 4.266667 25.6-12.8 42.666667-38.4 42.666667-68.266667 0-42.666667-29.866667-76.8-68.266667-76.8H145.066667c-38.4 0-68.266667 34.133333-68.266667 76.8 0 29.866667 17.066667 59.733333 42.666667 68.266667zM234.666667 904.533333v-128H123.733333c-4.266667 0-4.266667 0-8.533333-4.266666-25.6 12.8-42.666667 38.4-42.666667 68.266666 0 42.666667 29.866667 76.8 68.266667 76.8h93.866667c4.266667 0 0-4.266667 0-12.8zM362.666667 772.266667s-4.266667 4.266667-8.533334 4.266666H251.733333v128c0 8.533333-4.266667 12.8-8.533333 12.8h93.866667c38.4 0 68.266667-34.133333 68.266666-76.8 0-29.866667-17.066667-55.466667-42.666666-68.266666z" fill="#91BEE2" p-id="1380"></path></svg>