<?xml version="1.0" standalone="no"?><!DOCTYPE svg PUBLIC "-//W3C//DTD SVG 1.1//EN" "http://www.w3.org/Graphics/SVG/1.1/DTD/svg11.dtd"><svg t="1538893750964" className="icon" style="" viewBox="0 0 1024 1024" version="1.1" xmlns="http://www.w3.org/2000/svg" p-id="2340" xmlns:xlink="http://www.w3.org/1999/xlink" width="200" height="200"><defs><style type="text/css"></style></defs><path d="M772.266667 72.533333c0-21.333333-17.066667-38.4-38.4-38.4s-38.4 17.066667-38.4 38.4v81.066667c0 21.333333 17.066667 38.4 38.4 38.4s38.4-17.066667 38.4-38.4V72.533333z m0 0M571.733333 72.533333c0-21.333333-17.066667-38.4-38.4-38.4s-38.4 17.066667-38.4 38.4v81.066667c0 21.333333 17.066667 38.4 38.4 38.4s38.4-17.066667 38.4-38.4V72.533333z m0 0M375.466667 72.533333c0-21.333333-17.066667-38.4-38.4-38.4s-42.666667 17.066667-42.666667 38.4v81.066667c0 21.333333 17.066667 38.4 38.4 38.4s38.4-17.066667 38.4-38.4V72.533333z m0 0" fill="#91BEE2" p-id="2341"></path><path d="M878.933333 110.933333H810.666667v38.4c0 42.666667-34.133333 81.066667-81.066667 81.066667-42.666667 0-81.066667-34.133333-81.066667-81.066667v-38.4h-38.4v38.4c0 42.666667-34.133333 81.066667-81.066666 81.066667s-81.066667-34.133333-81.066667-81.066667v-38.4h-34.133333v38.4c0 42.666667-34.133333 81.066667-81.066667 81.066667-42.666667 0-76.8-34.133333-76.8-76.8v-42.666667H187.733333c-21.333333 0-38.4 17.066667-38.4 42.666667v695.466667c0 21.333333 17.066667 38.4 38.4 38.4h686.933334c21.333333 0 38.4-17.066667 38.4-38.4V153.6c4.266667-25.6-12.8-42.666667-34.133334-42.666667zM221.866667 362.666667c0-8.533333 4.266667-17.066667 12.8-17.066667h418.133333c8.533333 0 12.8 4.266667 12.8 12.8v4.266667c0 8.533333-4.266667 12.8-12.8 12.8H234.666667c-8.533333-4.266667-12.8-8.533333-12.8-12.8z m55.466666 98.133333c0-8.533333 4.266667-17.066667 12.8-17.066667h302.933334c8.533333 0 12.8 4.266667 12.8 12.8v4.266667c0 8.533333-4.266667 12.8-12.8 12.8H290.133333c-8.533333 0-12.8-8.533333-12.8-12.8z m567.466667 230.4h-68.266667c-4.266667 0-8.533333-4.266667-12.8-8.533333l-4.266666-12.8-55.466667 98.133333c-4.266667 4.266667-8.533333 8.533333-12.8 4.266667-4.266667 0-8.533333-4.266667-8.533333-8.533334v-85.333333l-42.666667 106.666667c0 4.266667-8.533333 8.533333-12.8 8.533333-4.266667 0-12.8-4.266667-12.8-8.533333l-12.8-179.2-55.466667 102.4c-4.266667 4.266667-8.533333 8.533333-12.8 4.266666-4.266667 0-8.533333-4.266667-8.533333-8.533333v-42.666667l-12.8 17.066667c0 4.266667-4.266667 4.266667-8.533333 4.266667H349.866667c-8.533333 0-12.8-4.266667-12.8-12.8s4.266667-12.8 12.8-12.8h140.8l29.866666-46.933334c4.266667-4.266667 8.533333-4.266667 12.8-4.266666 4.266667 0 8.533333 4.266667 8.533334 8.533333v34.133333l51.2-98.133333c4.266667-4.266667 8.533333-8.533333 12.8-4.266667 4.266667 0 8.533333 4.266667 8.533333 8.533334l12.8 166.4 46.933333-119.466667c0-4.266667 8.533333-8.533333 12.8-8.533333 4.266667 0 12.8 4.266667 12.8 8.533333v106.666667l42.666667-76.8c0-4.266667 8.533333-4.266667 12.8-4.266667 4.266667 0 8.533333 4.266667 12.8 8.533333l12.8 25.6h59.733333c8.533333 0 12.8 4.266667 12.8 12.8 4.266667 12.8-4.266667 17.066667-8.533333 17.066667z" fill="#91BEE2" p-id="2342"></path></svg>
