<?xml version="1.0" standalone="no"?><!DOCTYPE svg PUBLIC "-//W3C//DTD SVG 1.1//EN" "http://www.w3.org/Graphics/SVG/1.1/DTD/svg11.dtd"><svg t="1538289588737" className="icon" style="" viewBox="0 0 1024 1024" version="1.1" xmlns="http://www.w3.org/2000/svg" p-id="1050" xmlns:xlink="http://www.w3.org/1999/xlink" width="200" height="200"><defs><style type="text/css"></style></defs><path d="M967.111111 512A455.111111 455.111111 0 1 0 56.888889 512a455.111111 455.111111 0 0 0 910.222222 0zM170.666667 512c0-188.245333 153.088-341.333333 341.333333-341.333333s341.333333 153.088 341.333333 341.333333-153.088 341.333333-341.333333 341.333333-341.333333-153.088-341.333333-341.333333z" fill="#666666" p-id="1051"></path><path d="M568.775111 683.235556V476.558222l73.557333 74.922667c22.300444 22.072889 58.311111 22.072889 80.611556 0s22.243556-57.799111 0-79.815111l-168.789333-170.666667A57.287111 57.287111 0 0 0 513.820444 284.444444l-1.934222 0.056889C511.260444 284.558222 510.577778 284.444444 509.952 284.444444c-15.132444 0-29.639111 5.973333-40.334222 16.554667l-168.789334 170.666667c-22.243556 22.072889-22.243556 57.799111 0 79.815111s58.311111 22.072889 80.611556 0l73.614222-74.922667v206.677334c0 31.118222 25.201778 56.32 56.32 56.32h1.024a56.32 56.32 0 0 0 56.32-56.32z" fill="#666666" p-id="1052"></path></svg>