<?xml version="1.0" standalone="no"?><!DOCTYPE svg PUBLIC "-//W3C//DTD SVG 1.1//EN" "http://www.w3.org/Graphics/SVG/1.1/DTD/svg11.dtd"><svg t="1539848929935" class="icon" style="" viewBox="0 0 1024 1024" version="1.1" xmlns="http://www.w3.org/2000/svg" p-id="7020" xmlns:xlink="http://www.w3.org/1999/xlink" width="200" height="200"><defs><style type="text/css"></style></defs><path d="M716.8 584.533333c12.8 8.533333 25.6 4.266667 38.4-4.266666 12.8-8.533333 4.266667-25.6-4.266667-38.4-38.4-29.866667-85.333333-46.933333-128-64 64-42.666667 110.933333-110.933333 110.933334-196.266667 0-128-102.4-230.4-230.4-230.4-128 0-234.666667 102.4-234.666667 230.4 0 85.333333 42.666667 153.6 110.933333 196.266667-170.666667 51.2-302.933333 213.333333-302.933333 401.066666 0 17.066667 12.8 25.6 25.6 25.6 17.066667 0 25.6-8.533333 25.6-25.6 0-204.8 166.4-362.666667 366.933333-362.666666 81.066667 0 162.133333 21.333333 221.866667 68.266666zM900.266667 853.333333h-341.333334c-17.066667 0-29.866667 8.533333-29.866666 25.6 0 17.066667 12.8 25.6 29.866666 25.6h341.333334c17.066667 0 29.866667-8.533333 29.866666-25.6 0-17.066667-17.066667-25.6-29.866666-25.6z" fill="#91BEE2" p-id="7021"></path><path d="M533.333333 708.266667c0 17.066667 12.8 25.6 29.866667 25.6h341.333333c17.066667 0 29.866667-8.533333 29.866667-25.6 0-17.066667-12.8-25.6-29.866667-25.6h-341.333333c-21.333333 0-29.866667 8.533333-29.866667 25.6z m0 0" fill="#91BEE2" p-id="7022"></path></svg>