<?xml version="1.0" standalone="no"?><!DOCTYPE svg PUBLIC "-//W3C//DTD SVG 1.1//EN" "http://www.w3.org/Graphics/SVG/1.1/DTD/svg11.dtd"><svg t="1540809129909" class="icon" style="" viewBox="0 0 1024 1024" version="1.1" xmlns="http://www.w3.org/2000/svg" p-id="10677" xmlns:xlink="http://www.w3.org/1999/xlink" width="200" height="200"><defs><style type="text/css"></style></defs><path d="M832 896h64s0-140.8-83.2-166.4c-83.2-25.6-198.4-51.2-198.4-83.2v-51.2s0 25.6 83.2 0l83.2-25.6s-57.6-51.2-57.6-134.4 0-217.6-83.2-268.8C595.2 134.4 544 128 512 128s-83.2 0-128 32c-83.2 57.6-83.2 192-83.2 268.8 0 83.2-57.6 134.4-57.6 134.4l83.2 25.6c83.2 25.6 83.2 0 83.2 0v51.2c0 25.6-115.2 51.2-198.4 83.2S128 896 128 896h704z m0 0" fill="#FF9E1D" p-id="10678"></path></svg>