<?xml version="1.0" standalone="no"?><!DOCTYPE svg PUBLIC "-//W3C//DTD SVG 1.1//EN" "http://www.w3.org/Graphics/SVG/1.1/DTD/svg11.dtd"><svg t="1534151626201" class="icon" style="" viewBox="0 0 1024 1024" version="1.1" xmlns="http://www.w3.org/2000/svg" p-id="1043" xmlns:xlink="http://www.w3.org/1999/xlink" width="48" height="48"><defs><style type="text/css"></style></defs><path d="M213.333333 170.666667 810.666667 170.666667C857.6 170.666667 896 209.066667 896 256L896 768C896 814.933333 857.6 853.333333 810.666667 853.333333L213.333333 853.333333C166.4 853.333333 128 814.933333 128 768L128 256C128 209.066667 166.4 170.666667 213.333333 170.666667M213.333333 341.333333 213.333333 512 469.333333 512 469.333333 341.333333 213.333333 341.333333M554.666667 341.333333 554.666667 512 810.666667 512 810.666667 341.333333 554.666667 341.333333M213.333333 597.333333 213.333333 768 469.333333 768 469.333333 597.333333 213.333333 597.333333M554.666667 597.333333 554.666667 768 810.666667 768 810.666667 597.333333 554.666667 597.333333Z" p-id="1044" fill="#0A6ECB"></path></svg>